<svg width="100" height="71" viewBox="0 0 100 71" fill="none" xmlns="http://www.w3.org/2000/svg">
<path d="M98.674 40.2789C96.1375 35.3654 93.5635 30.4726 90.9354 25.6091C90.0864 24.0385 88.6152 23.1929 86.834 23.1804C80.8017 23.1366 74.7693 23.1575 68.7369 23.1679C67.1534 23.17 65.9299 24.3843 65.9278 25.9631C65.9195 36.3568 65.9195 46.7484 65.9257 57.1421C65.9257 58.571 66.937 59.7416 68.3124 59.9228C68.7848 59.9853 69.2717 59.9332 69.7961 59.9332C70.2664 57.3691 71.4608 55.2071 73.4688 53.5324C75.4934 51.8432 77.8385 51.0517 80.4791 51.0704C84.5701 51.1017 89.6036 54.0719 90.6961 59.9623C92.7083 59.9623 94.6788 59.9623 96.6494 59.9623C98.7885 59.9603 99.8893 58.8563 99.8934 56.7026C99.8976 53.0638 99.8976 49.4249 99.8934 45.7861C99.8913 43.8594 99.5542 41.9827 98.674 40.2789ZM74.4072 45.7049C73.14 45.7049 71.8977 45.7049 70.6201 45.7049C70.6201 45.23 70.6201 44.7801 70.6201 44.2927C71.879 44.2927 73.1192 44.2927 74.4072 44.2927C74.4072 44.7884 74.4072 45.2279 74.4072 45.7049ZM74.89 39.3437C72.8404 39.3437 70.824 39.3437 68.7744 39.3437C68.7744 34.8988 68.7744 30.481 68.7744 26.0277C70.8219 26.0277 72.8383 26.0277 74.89 26.0277C74.89 30.4768 74.89 34.8925 74.89 39.3437ZM76.4839 39.3604C76.4839 34.9196 76.4839 30.4997 76.4839 26.0256C76.6795 26.0152 76.8668 25.9965 77.052 25.9965C80.2211 25.9944 83.3923 25.9965 86.5615 25.9944C87.4479 25.9944 88.1512 26.3547 88.5653 27.1358C90.669 31.0954 92.754 35.0654 94.8453 39.0313C94.8869 39.1125 94.916 39.2 94.9847 39.3604C88.7734 39.3604 82.6495 39.3604 76.4839 39.3604Z" fill="#333333"/>
<path d="M80.2273 52.9117C75.3602 52.9492 71.5003 56.838 71.5232 61.6828C71.5461 66.4693 75.4622 70.3602 80.2253 70.3289C85.1027 70.2977 88.9586 66.4152 88.9273 61.5703C88.8982 56.7859 84.9696 52.8763 80.2273 52.9117ZM80.2253 66.5776C77.5118 66.5734 75.2708 64.3322 75.2728 61.6245C75.2749 58.9042 77.4993 56.6901 80.2315 56.688C82.9595 56.6859 85.1818 58.9063 85.1777 61.6286C85.1714 64.3489 82.9387 66.5818 80.2253 66.5776Z" fill="#333333"/>
<path d="M13.9357 52.9097C8.98541 53.0534 5.21283 56.9609 5.3252 61.8265C5.43757 66.6547 9.38909 70.4331 14.2187 70.3269C18.9818 70.2206 22.8459 66.2319 22.7294 61.5454C22.6066 56.6693 18.6384 52.7722 13.9357 52.9097ZM13.9919 66.5776C11.2743 66.5651 9.06032 64.3219 9.07488 61.5995C9.09153 58.8667 11.3014 56.6839 14.046 56.6901C16.7761 56.6964 18.9631 58.9042 18.9589 61.6537C18.9527 64.3719 16.7157 66.5901 13.9919 66.5776Z" fill="#333333"/>
<path d="M45.2317 21.1225C45.0632 21.1225 44.853 21.1225 44.5846 21.1225C44.6491 21.2412 44.6866 21.3099 44.7074 21.3495C44.9092 21.262 45.0861 21.185 45.2317 21.1225Z" fill="#333333"/>
<path d="M49.8387 21.1183C49.5932 21.1183 49.3893 21.1183 49.2145 21.1183C49.3581 21.1871 49.5266 21.2662 49.7326 21.3641C49.7597 21.3016 49.793 21.2225 49.8387 21.1183Z" fill="#333333"/>
<path d="M19.6457 30.6059C19.3086 29.9332 18.5116 29.9519 18.1142 30.5893C17.9748 30.8142 17.8479 31.0704 17.8021 31.3287C17.6377 32.241 17.5087 33.1596 17.3672 34.076C17.3901 34.0823 17.415 34.0885 17.4379 34.0927C17.4754 34.6447 17.4567 35.2091 17.5669 35.7465C17.7043 36.4131 17.8708 37.0921 18.1662 37.6982C18.4763 38.3335 19.1671 38.3168 19.5625 37.717C19.7373 37.4524 19.8642 37.14 19.9454 36.8338C20.3449 35.3508 20.3553 33.8365 20.1638 32.3306C20.091 31.7411 19.9121 31.1371 19.6457 30.6059Z" fill="#333333"/>
<path d="M23.8386 16.3589C23.7033 15.6632 23.5826 14.9383 23.2788 14.3093C22.8897 13.5032 21.9284 13.5366 21.456 14.2989C21.3436 14.4801 21.2604 14.6842 21.1959 14.8884C20.7277 16.3485 20.7027 17.8461 20.94 19.3395C21.0378 19.9561 21.2334 20.583 21.5163 21.135C21.893 21.8723 22.7232 21.8682 23.1852 21.1808C23.3329 20.96 23.4744 20.708 23.5223 20.4518C23.7033 19.4999 23.9031 17.5753 23.8531 17.5711C23.8531 17.1671 23.9135 16.7505 23.8386 16.3589Z" fill="#333333"/>
<path d="M11.9777 30.7434C11.8487 30.4393 11.5553 30.2581 11.1392 30.306C11.1392 31.587 11.1392 32.8409 11.1412 34.0969C11.1412 34.1635 11.1537 34.2322 11.1745 34.2947C11.2827 34.6218 11.3285 35.055 11.7697 35.0592C12.2233 35.0633 12.3669 34.6363 12.3981 34.2864C12.4605 33.6053 12.4938 32.9096 12.4251 32.2327C12.3731 31.7244 12.1796 31.2204 11.9777 30.7434Z" fill="#333333"/>
<path d="M61.4876 0.343445C41.8236 0.343445 22.1575 0.343445 2.49353 0.343445C0.870466 0.343445 0.215 1.15786 0.215 3.15745C0.215 19.7394 0.175464 57.6462 0.271183 57.6462C0.656139 59.8832 1.65703 60.1852 3.53603 59.8582C4.55564 53.1721 9.1335 50.8517 13.703 50.7038C18.4807 50.5497 23.3706 52.9305 24.4568 59.954C24.6337 59.954 24.8231 59.954 25.0124 59.954C37.1666 59.954 49.3229 59.954 61.4772 59.9519C62.9546 59.9519 63.6537 59.0959 63.6537 57.3004C63.6537 39.1979 63.6537 21.0975 63.6537 2.99498C63.6516 1.19327 62.9587 0.343445 61.4876 0.343445ZM28.3439 12.1035C29.0139 12.1035 29.6818 12.1035 30.4018 12.1035C30.4018 12.77 30.4018 13.4157 30.4018 14.0614C30.4018 14.3718 30.3935 14.6842 30.4039 14.9946C30.4247 15.6069 30.7098 15.9319 31.3132 15.9715C31.7689 16.0027 32.2309 15.9777 32.7449 15.9777C32.7449 14.6926 32.7449 13.4157 32.7449 12.1098C33.469 12.1098 34.1369 12.1098 34.8382 12.1098C34.8382 15.8548 34.8382 19.5957 34.8382 23.3824C34.1536 23.3824 33.496 23.3824 32.7802 23.3824C32.7802 21.5786 32.7802 19.7873 32.7802 17.9523C32.1851 17.9523 31.6482 17.9627 31.1114 17.9502C29.917 17.9231 28.8162 17.1837 28.4375 16.1631C28.4 16.061 28.348 15.5674 28.348 15.4653C28.3418 14.2218 28.3439 13.3678 28.3439 12.1035ZM9.26251 12.1035C11.5036 12.1035 13.7259 12.1035 15.9712 12.1035C15.9712 15.8694 15.9712 19.6103 15.9712 23.3741C15.2741 23.3741 14.604 23.3741 13.8903 23.3741C13.8903 20.2581 13.8903 17.1504 13.8903 14.001C13.0226 14.001 12.2298 14.001 11.3642 14.001C11.3642 17.1254 11.3642 20.2393 11.3642 23.3741C10.6234 23.3741 9.95544 23.3741 9.26043 23.3741C9.26251 19.6103 9.26251 15.8694 9.26251 12.1035ZM14.0443 35.5216C13.959 35.7736 13.8154 36.0131 13.6614 36.2318C13.0434 37.1087 12.2381 37.24 11.1145 36.6068C11.1145 37.5357 11.0916 38.4126 11.1249 39.2875C11.1394 39.704 11.0083 39.8436 10.6005 39.804C10.253 39.7707 9.89717 39.7894 9.54759 39.7978C9.33742 39.804 9.2209 39.7499 9.2209 39.5062C9.2313 35.8944 9.23546 32.2827 9.23962 28.6709C9.23962 28.6584 9.24587 28.6438 9.26251 28.5668C9.95544 28.5668 10.6671 28.5314 11.3725 28.5793C11.7783 28.6063 12.2007 28.7147 12.5731 28.8834C13.4221 29.2645 13.8695 30.0123 14.1338 30.86C14.6186 32.4181 14.5687 33.9781 14.0443 35.5216ZM21.1525 38.6001C20.4408 39.779 19.288 40.2643 18.0874 39.8936C17.4173 39.6874 16.9616 39.2208 16.6204 38.6293C16.1168 37.7586 15.8962 36.8005 15.7839 35.8153C15.5924 34.1219 15.6091 32.4347 16.1584 30.8038C16.3457 30.2498 16.6204 29.6999 16.9679 29.2333C17.8835 28.0044 19.5773 27.9252 20.6531 29.0229C21.4958 29.8832 21.8204 30.9829 22.0035 32.1285C22.1076 32.7805 22.1325 33.4449 22.1762 33.9157C22.1076 35.6674 21.989 37.215 21.1525 38.6001ZM21.3397 23.4657C20.4908 23.1783 19.9518 22.5513 19.5669 21.7786C18.9759 20.5893 18.824 19.3041 18.7678 17.7565C18.7741 16.613 18.876 15.2404 19.4545 13.9531C19.8727 13.0242 20.4512 12.2368 21.4771 11.9202C22.9295 11.4724 24.3778 12.1202 25.156 13.5574C25.9696 15.0612 26.1174 16.6942 26.03 18.3626C25.9675 19.5582 25.7532 20.7226 25.1789 21.7953C24.3653 23.3179 22.8546 23.9802 21.3397 23.4657ZM29.17 40.1144C28.2461 40.1519 27.3908 40.0061 26.5897 39.6291C24.8085 38.7876 23.9117 37.2983 23.6224 35.407C23.4247 34.1073 23.4955 32.8117 23.947 31.5661C24.6524 29.6207 26.0757 28.5689 28.1129 28.3293C28.4333 28.2918 28.7559 28.2731 29.1325 28.2418C29.1325 28.9417 29.1325 29.5728 29.1325 30.2414C28.8204 30.2727 28.5103 30.281 28.2107 30.3414C26.7354 30.6393 25.7615 31.7515 25.5867 33.3033C25.4973 34.1031 25.5056 34.8925 25.7345 35.6736C26.1527 37.1067 27.2056 37.9752 28.6893 38.1002C28.8349 38.1127 28.9806 38.1315 29.145 38.1502C29.1533 38.2939 29.1658 38.4147 29.1658 38.5335C29.172 39.0458 29.17 39.5582 29.17 40.1144ZM36.1429 38.6418C36.1075 39.1104 36.1345 39.5853 36.1345 40.1269C34.4033 40.131 32.9446 39.6436 31.8334 38.3335C30.8201 37.1379 30.4809 35.7111 30.4851 34.1844C30.4892 32.7534 30.7327 31.3829 31.6129 30.1998C32.4452 29.0812 33.5959 28.5084 34.9485 28.3397C36.1117 28.1939 36.1137 28.2189 36.1137 29.4041C36.1137 30.2123 36.1117 30.1977 35.3168 30.3122C34.0704 30.4935 33.2026 31.1787 32.7802 32.366C32.3599 33.5491 32.3433 34.7592 32.7823 35.9402C33.2692 37.2566 34.2285 38.0065 35.6414 38.0856C36.0555 38.1127 36.1741 38.2439 36.1429 38.6418ZM37.3498 12.1056C39.1851 12.1056 41.0037 12.1056 42.8952 12.1056C42.8952 12.6013 42.8973 13.0721 42.8931 13.5428C42.8931 13.674 42.8786 13.8052 42.8682 13.974C42.3105 13.974 41.7736 13.974 41.1868 13.974C41.1868 17.115 41.1868 20.2185 41.1868 23.3616C40.4565 23.3616 39.7781 23.3616 39.054 23.3616C39.054 20.2581 39.054 17.1525 39.054 13.9927C38.4672 13.9927 37.9199 13.9927 37.3498 13.9927C37.3498 13.3366 37.3498 12.7346 37.3498 12.1056ZM42.7995 39.8019C42.5331 39.804 42.5435 39.6207 42.5373 39.4416C42.4811 37.7649 42.4208 36.0881 42.3729 34.4093C42.3563 33.7928 42.3708 33.1762 42.3708 32.4618C41.9255 32.8867 41.5822 33.2012 41.2576 33.5324C40.8227 33.9781 40.3878 34.4239 39.9841 34.8967C39.8426 35.0633 39.7302 35.3112 39.7261 35.5237C39.7032 36.7817 39.7136 38.0419 39.7136 39.3C39.7136 39.4458 39.7136 39.5916 39.7136 39.7957C39.1351 39.7957 38.5983 39.804 38.0635 39.7853C37.9907 39.7832 37.8929 39.6478 37.8617 39.5562C37.8263 39.4458 37.8512 39.3145 37.8512 39.1937C37.8512 35.8236 37.8512 32.4535 37.8512 29.0833C37.8512 28.5189 37.8512 28.5168 38.4339 28.5189C38.8126 28.5209 39.1913 28.5272 39.57 28.5355C39.6075 28.5355 39.6429 28.5647 39.7074 28.5897C39.7074 29.8248 39.7074 31.0662 39.7074 32.443C41.1619 30.9267 42.5373 29.4937 44.0001 27.9711C44.152 31.964 44.2998 35.8444 44.4496 39.7978C43.8482 39.8019 43.3239 39.7978 42.7995 39.8019ZM45.2382 21.4932C45.334 18.5168 45.4463 15.5424 45.5316 12.5659C45.542 12.1827 45.6357 12.0535 46.0331 12.0681C46.9529 12.0993 47.8726 12.0723 48.7923 12.0806C50.6568 12.0973 51.6951 13.1616 51.82 15.0112C51.924 16.5734 52.1591 18.1293 52.336 19.6874C52.4754 20.9059 52.6169 22.1244 52.7626 23.3741C52.0405 23.3741 51.358 23.3741 50.6318 23.3741C50.5569 22.6701 50.4799 21.9723 50.4071 21.2766C50.2968 20.2289 50.1927 19.1791 50.0679 18.1314C50.0575 18.0419 49.916 17.9002 49.8328 17.8981C49.0774 17.8794 48.3221 17.8877 47.5084 17.8877C47.4377 19.729 47.369 21.5453 47.2983 23.3762C46.5825 23.3762 45.9145 23.3762 45.2341 23.3762C45.2341 22.7305 45.2174 22.1119 45.2382 21.4932ZM52.8521 39.7874C52.3277 39.8124 51.8033 39.7999 51.2103 39.7999C51.1229 37.3566 51.0355 34.9425 50.946 32.4743C50.8399 32.568 50.7587 32.6263 50.6921 32.6972C49.9951 33.4345 49.2917 34.1656 48.6155 34.9196C48.4781 35.0717 48.3803 35.3175 48.3782 35.5216C48.3574 36.7942 48.3533 38.0669 48.3762 39.3375C48.3845 39.7249 48.2534 39.829 47.8892 39.8082C47.4481 39.7811 47.0049 39.8019 46.5346 39.8019C46.5346 36.0298 46.5346 32.3035 46.5346 28.5293C47.0902 28.5293 47.6291 28.5147 48.1639 28.5459C48.2367 28.5501 48.3533 28.7771 48.3554 28.9042C48.372 29.8915 48.3658 30.8809 48.3658 31.8682C48.3658 32.014 48.3658 32.1619 48.3658 32.4368C49.814 30.9267 51.1811 29.4999 52.6336 27.9836C52.6565 28.2668 52.6752 28.4376 52.6814 28.6084C52.8 31.8411 52.9145 35.0717 53.0331 38.3043C53.0477 38.7105 53.0914 39.1146 53.0851 39.5207C53.0851 39.6166 52.9374 39.7832 52.8521 39.7874Z" fill="#333333"/>
<path d="M47.5831 14.0385C47.5831 14.6676 47.5831 15.307 47.5831 15.961C48.2989 15.961 49.0106 15.961 49.7493 15.961C49.7909 14.4114 49.0834 13.7802 47.5831 14.0385Z" fill="#333333"/>
</svg>
