<svg width="96" height="66" viewBox="0 0 96 66" fill="none" xmlns="http://www.w3.org/2000/svg">
<path d="M15.8159 16.2252C15.8159 21.4164 15.8066 26.6077 15.8299 31.8001C15.8323 32.3551 15.6781 32.4797 15.1524 32.4433C14.4199 32.3927 13.6805 32.4139 12.9457 32.4527C12.4551 32.4786 12.2939 32.3551 12.2974 31.8178C12.3254 28.1092 12.2997 24.4019 12.3254 20.6933C12.3289 20.1372 12.2098 19.9302 11.6327 19.9925C11.114 20.0478 10.5813 20.0372 10.0592 19.9937C9.60126 19.9561 9.3793 20.1136 9.19123 20.5428C7.94713 23.3918 6.66916 26.2267 5.40403 29.0663C4.96129 30.0599 4.51739 31.0523 4.08867 32.0517C3.96485 32.341 3.79313 32.4527 3.47188 32.4456C2.44623 32.4245 1.41941 32.4162 0.39376 32.4433C-0.0793477 32.4551 -0.060657 32.3081 0.104055 31.9494C1.96261 27.8846 3.80364 23.8116 5.6657 19.748C5.85962 19.3258 5.92153 19.0965 5.41922 18.8085C3.00228 17.4245 1.76752 15.2352 1.37385 12.5284C1.00471 9.99687 1.11218 7.49943 2.21493 5.14896C3.86439 1.63326 6.77663 0.10234 10.5393 0.0188566C12.114 -0.0152422 13.6898 0.0353181 15.2645 4.34383e-05C15.7482 -0.0105389 15.8264 0.156428 15.8253 0.591481C15.8112 5.80272 15.8159 11.014 15.8159 16.2252ZM12.3126 10.0004C12.3126 7.81337 12.3032 5.62752 12.3207 3.4405C12.3243 3.03719 12.2203 2.87728 11.8044 2.91608C11.4376 2.95018 11.0661 2.91843 10.6958 2.92431C8.01956 2.96076 6.22408 4.22124 5.4566 6.71516C4.76387 8.96333 4.75102 11.2479 5.41688 13.5102C5.9262 15.2399 7.04063 16.4098 8.79989 16.8907C9.78816 17.1611 10.8091 17.0412 11.8161 17.0835C12.2378 17.1012 12.3254 16.9601 12.3219 16.5603C12.3032 14.3733 12.3126 12.1874 12.3126 10.0004Z" fill="#FE0202"/>
<path d="M48.9252 19.5398C48.9252 22.6816 48.9334 25.8234 48.9147 28.9652C48.9123 29.3885 48.9953 29.5261 49.4474 29.5167C50.7277 29.4884 50.7277 29.512 50.7277 30.8207C50.7277 32.6937 50.716 34.568 50.737 36.4411C50.7417 36.8538 50.6237 36.9761 50.216 36.9573C49.5175 36.9243 48.8142 36.9126 48.1168 36.9608C47.6449 36.9925 47.583 36.8068 47.5911 36.3987C47.6168 35.2288 47.5876 34.0565 47.6075 32.8866C47.6133 32.5244 47.4954 32.4233 47.1402 32.4245C44.1848 32.4374 41.2293 32.4386 38.2738 32.4233C37.9012 32.4209 37.8206 32.5432 37.8264 32.8901C37.8451 34.1 37.8241 35.3099 37.8405 36.5199C37.8451 36.8409 37.7704 36.9667 37.4246 36.9561C36.6279 36.9314 35.83 36.9349 35.0333 36.9549C34.7226 36.9631 34.6362 36.8573 34.6373 36.5563C34.6467 34.3516 34.6479 32.1458 34.6373 29.9411C34.6362 29.626 34.7086 29.5002 35.0555 29.4943C36.0987 29.4767 36.0976 29.4602 36.4515 28.4302C37.4468 25.5342 37.8498 22.5288 38.0858 19.4928C38.3287 16.3581 38.3428 13.2174 38.3112 10.0768C38.3066 9.63001 38.4257 9.53712 38.8544 9.53947C42.0435 9.55946 45.2326 9.55829 48.4205 9.54065C48.8294 9.5383 48.9334 9.64412 48.931 10.0545C48.917 13.2174 48.9252 16.378 48.9252 19.5398ZM39.4362 29.5037C41.408 29.5037 43.3086 29.499 45.2093 29.5084C45.5328 29.5096 45.4756 29.3038 45.4756 29.1169C45.4768 23.6893 45.4744 18.2629 45.4814 12.8353C45.4814 12.5214 45.4184 12.3838 45.0667 12.3908C44.0364 12.4132 43.0049 12.412 41.9746 12.3908C41.6393 12.3838 41.5424 12.4896 41.5459 12.8212C41.5529 13.6784 41.5237 14.5355 41.5073 15.3915C41.4407 18.7885 41.2258 22.1713 40.5599 25.5118C40.2936 26.8476 39.9315 28.1551 39.4362 29.5037Z" fill="#030303"/>
<path d="M20.3448 20.9731C20.3448 17.3422 20.353 13.7112 20.3343 10.0815C20.3319 9.64642 20.4382 9.51944 20.8786 9.5406C21.7139 9.58058 22.5526 9.57705 23.3879 9.54178C23.8061 9.52414 23.8925 9.65701 23.8902 10.058C23.8715 12.9481 23.889 15.8371 23.8715 18.7273C23.8691 19.1424 23.9369 19.2999 24.4007 19.2882C25.8001 19.2529 27.2019 19.2576 28.6026 19.2858C29.0301 19.2952 29.1504 19.1988 29.1469 18.7496C29.1236 15.8795 29.1481 13.0093 29.1224 10.1391C29.1177 9.64055 29.2521 9.51473 29.7322 9.53942C30.5476 9.58175 31.3665 9.56412 32.183 9.54413C32.4926 9.53707 32.6152 9.59586 32.6152 9.94861C32.6047 17.3104 32.6047 24.6711 32.6152 32.0329C32.6152 32.3845 32.4961 32.4468 32.1818 32.4397C31.3069 32.4197 30.4296 32.408 29.5558 32.4444C29.1434 32.4621 29.0955 32.2986 29.0967 31.9482C29.1084 28.884 29.0932 25.8198 29.1177 22.7557C29.1212 22.2842 28.9822 22.1854 28.5418 22.196C27.1996 22.2254 25.8562 22.2289 24.5151 22.1948C24.0268 22.183 23.861 22.2724 23.8668 22.8168C23.8983 25.8434 23.8726 28.8699 23.8925 31.8965C23.8948 32.3257 23.8026 32.4679 23.3551 32.4456C22.5398 32.4056 21.7197 32.4021 20.9055 32.4456C20.4324 32.4703 20.3354 32.3092 20.3378 31.8671C20.3518 28.235 20.3448 24.604 20.3448 20.9731Z" fill="#030303"/>
<path d="M65.2889 28.1704C65.5424 29.0287 65.7631 29.833 66.0225 30.6255C66.1346 30.9688 65.8729 31.0335 65.7024 31.1534C63.8754 32.4433 61.8206 32.9124 59.6303 32.6796C56.1783 32.3128 54.4191 30.047 53.5056 26.9393C52.7918 24.5088 52.807 22.0091 52.9752 19.5104C53.1189 17.3857 53.4437 15.2928 54.3023 13.3197C55.0242 11.663 56.0311 10.2403 57.8021 9.61943C60.3207 8.73638 63.4899 9.31136 64.9337 12.7718C65.7748 14.7872 65.9746 16.913 66.0377 19.0636C66.0599 19.8044 66.0365 20.5463 66.0727 21.2871C66.0914 21.6822 65.9979 21.8103 65.5692 21.808C62.7236 21.7856 59.8779 21.7951 57.0311 21.8021C56.8302 21.8021 56.5241 21.6728 56.5335 22.0808C56.5743 23.8986 56.6912 25.7105 57.4762 27.3873C58.42 29.405 60.0613 30.1081 62.31 29.5296C63.3567 29.2592 64.3193 28.8135 65.2889 28.1704ZM59.5088 18.919C60.3452 18.919 61.1816 18.899 62.0168 18.9284C62.3942 18.9413 62.4783 18.8155 62.4467 18.4616C62.3941 17.8596 62.4105 17.2529 62.3556 16.6508C62.2505 15.4856 62.1033 14.3215 61.525 13.2762C60.7786 11.9252 59.1408 11.7547 58.1093 12.9094C57.8219 13.2304 57.6152 13.6055 57.4575 14.0064C56.8769 15.4762 56.7402 17.0259 56.6339 18.5827C56.6129 18.8978 56.7461 18.9284 56.9996 18.9249C57.8371 18.9119 58.6724 18.919 59.5088 18.919Z" fill="#030303"/>
<path d="M83.0742 32.4315C81.8395 32.4315 80.711 32.4092 79.5849 32.4433C79.1737 32.4562 79.113 32.1646 78.9868 31.9283C77.1773 28.5313 75.376 25.1309 73.5724 21.7316C73.4859 21.5681 73.3971 21.4047 73.2126 21.2601C73.2126 22.9438 73.2126 24.6288 73.2126 26.3126C73.2126 28.2033 73.2044 30.0952 73.2243 31.9859C73.2278 32.3469 73.139 32.4527 72.7768 32.4409C71.9217 32.4139 71.0631 32.3986 70.2104 32.4445C69.7127 32.4715 69.6567 32.2693 69.6578 31.8472C69.6695 26.5759 69.666 21.3047 69.666 16.0347C69.666 14.0241 69.6742 12.0134 69.6578 10.0028C69.6555 9.65824 69.7198 9.5289 70.0971 9.54183C70.9907 9.5724 71.8867 9.57123 72.7804 9.54301C73.1472 9.53125 73.2254 9.6406 73.2231 9.99922C73.2079 13.2939 73.2137 16.5885 73.2137 20.0701C73.5724 19.3929 73.8574 18.8673 74.1319 18.337C75.5723 15.5585 77.0173 12.7824 78.4413 9.9957C78.6037 9.67705 78.766 9.53242 79.1375 9.54301C80.1468 9.57005 81.1561 9.55241 82.2483 9.55241C81.8383 10.3343 81.4563 11.0657 81.0708 11.7971C79.6679 14.4638 78.2731 17.1341 76.8537 19.7915C76.6587 20.1571 76.6517 20.4288 76.8502 20.7956C78.8279 24.4548 80.7846 28.1257 82.7471 31.7931C82.8453 31.9777 82.9376 32.1658 83.0742 32.4315Z" fill="#030303"/>
<path d="M22.6648 48.8624C24.7885 45.4572 26.9111 42.0521 29.0348 38.6469C29.7894 37.437 30.5581 36.2365 31.2952 35.0159C31.4728 34.7208 31.6679 34.6197 31.9996 34.6397C32.4973 34.6691 32.9984 34.6467 33.5322 34.6467C33.5147 34.9266 33.3267 35.1124 33.1982 35.3181C30.5137 39.6216 27.8339 43.9275 25.1226 48.2134C24.799 48.7249 24.8107 49.0705 25.1133 49.5879C28.1049 54.6992 31.0639 59.8305 34.0322 64.9559C34.1315 65.1264 34.2215 65.3028 34.3523 65.5462C33.5743 65.5462 32.8582 65.5426 32.141 65.5485C31.9202 65.5509 31.8793 65.3757 31.7987 65.2381C29.3946 61.0922 26.9917 56.945 24.5876 52.7979C23.9486 51.6962 23.305 50.5979 22.5491 49.5033C22.5491 49.6902 22.5491 49.8772 22.5491 50.0629C22.5491 55.0237 22.5421 59.9845 22.5608 64.9453C22.5632 65.4239 22.4674 65.6144 21.9616 65.5567C21.541 65.5085 21.1111 65.5356 20.6859 65.5509C20.4441 65.5591 20.346 65.4744 20.3764 65.2322C20.388 65.1405 20.3787 65.0464 20.3787 64.9535C20.3787 55.0508 20.3822 45.148 20.367 35.2441C20.3658 34.7608 20.4651 34.5703 20.9675 34.6373C21.3132 34.6832 21.6742 34.6797 22.02 34.6373C22.4849 34.5809 22.5585 34.7808 22.5573 35.1982C22.5433 39.5464 22.5491 43.8934 22.5491 48.2416C22.5491 48.4415 22.5491 48.6402 22.5491 48.8401C22.5889 48.8495 22.6274 48.8554 22.6648 48.8624Z" fill="#030303"/>
<path d="M95.2395 28.4832C95.4907 29.2909 95.7243 30.0646 95.9743 30.8324C96.0771 31.1476 95.8434 31.2475 95.6659 31.3816C93.8178 32.7831 91.742 33.0959 89.5377 32.5738C87.074 31.9895 85.5869 30.2869 84.6758 28.0234C83.5753 25.2884 83.4328 22.4147 83.5788 19.514C83.6957 17.1953 84.1302 14.9542 85.2926 12.9047C87.2878 9.38664 91.9429 8.14615 95.4393 10.1921C95.7114 10.3508 95.8213 10.5119 95.7663 10.8353C95.6016 11.79 95.4661 12.7507 95.3096 13.7677C94.4837 13.1516 93.6835 12.6437 92.7501 12.392C90.9885 11.917 89.5774 12.4908 88.6265 14.0676C87.7469 15.5244 87.4338 17.1471 87.31 18.8061C87.1114 21.4623 87.1593 24.1079 87.942 26.6889C87.9817 26.8194 88.0249 26.9487 88.0716 27.0769C89.2912 30.4009 91.9932 30.348 94.5269 28.9699C94.7629 28.8418 94.9732 28.6666 95.2395 28.4832Z" fill="#030303"/>
<path d="M45.3611 62.6572C44.8494 63.5755 44.36 64.3139 43.6661 64.8889C41.3765 66.7843 37.9502 66.2082 36.6022 63.532C35.2062 60.7618 35.2681 57.8975 36.9 55.2013C37.7668 53.7691 39.206 53.1166 40.8041 52.8073C42.1393 52.5498 43.492 52.5898 44.8401 52.6074C45.1777 52.6121 45.2875 52.5334 45.27 52.1806C45.208 50.9213 45.3365 49.6596 45.1613 48.4003C44.7817 45.6607 43.0271 44.8635 40.6043 45.2703C39.3427 45.4819 38.2902 46.111 37.4386 47.0752C37.3323 47.1951 37.2704 47.3691 37.0601 47.4221C36.9573 47.0717 36.8942 46.706 36.7447 46.3803C36.455 45.75 36.6559 45.3373 37.1594 44.9105C39.081 43.2808 42.5213 42.8834 44.7349 44.1027C46.2898 44.9587 46.882 46.4214 47.1402 48.0782C47.2407 48.7225 47.2523 49.3716 47.2512 50.0218C47.2488 53.8479 47.2465 57.674 47.2523 61.5002C47.2547 62.7454 47.3493 63.9835 47.646 65.197C47.7114 65.4662 47.6822 65.5803 47.3855 65.5544C47.2208 65.5403 47.0526 65.5521 46.8855 65.5521C45.7816 65.5521 45.7734 65.5532 45.5912 64.4527C45.5013 63.9024 45.4487 63.3509 45.3611 62.6572ZM45.2629 57.1837C45.2629 56.2736 45.2548 55.3624 45.2676 54.4523C45.2711 54.1807 45.2197 54.0513 44.9067 54.0572C43.853 54.0772 42.7946 54.0172 41.7456 54.1501C40.1312 54.3547 38.7668 55.0014 38.1441 56.6182C37.4187 58.503 37.4164 60.4419 38.1558 62.3221C38.9619 64.368 41.2888 65.0112 42.9979 63.6284C44.3775 62.5114 45.2688 61.0616 45.2629 59.1909C45.2606 58.5218 45.2629 57.8528 45.2629 57.1837Z" fill="#030303"/>
<path d="M80.1643 47.5185C80.0323 47.074 79.9692 46.6989 79.8115 46.3697C79.4879 45.6948 79.766 45.2656 80.294 44.8764C82.5368 43.2267 84.983 42.9222 87.5202 43.9628C89.3356 44.7071 89.9827 46.3603 90.2351 48.1922C90.3285 48.873 90.3437 49.5597 90.3437 50.2475C90.3402 53.9808 90.346 57.714 90.3402 61.4473C90.3379 62.7136 90.4325 63.9706 90.7222 65.2028C90.7923 65.5003 90.742 65.572 90.4652 65.5509C90.3367 65.5415 90.2059 65.5497 90.0762 65.5497C88.873 65.5497 88.8683 65.5509 88.665 64.321C88.5809 63.8142 88.5214 63.3015 88.4431 62.7312C88.1464 63.1745 87.9022 63.5825 87.6172 63.9588C86.4724 65.4686 84.955 66.1882 83.0707 65.9283C81.0696 65.6532 79.8115 64.415 79.2274 62.5314C78.4927 60.1621 78.5207 57.794 79.7321 55.574C80.7647 53.6821 82.5555 52.9461 84.5905 52.7003C85.7131 52.5639 86.8439 52.6039 87.9723 52.598C88.1335 52.5968 88.3648 52.6885 88.3555 52.3675C88.3181 50.9225 88.4793 49.4656 88.1849 48.0346C87.6616 45.4996 85.928 44.8881 83.6478 45.2832C82.2273 45.5266 81.0848 46.2838 80.1643 47.5185ZM88.3543 57.1578C88.3543 56.2489 88.3496 55.34 88.3578 54.4311C88.3602 54.196 88.3345 54.0537 88.0366 54.0584C86.9467 54.0772 85.8521 54.0078 84.7704 54.1536C83.3604 54.3441 82.0696 54.8556 81.4248 56.216C80.4201 58.3337 80.3944 60.5372 81.4072 62.6536C82.2471 64.4103 84.372 64.9089 85.9292 63.7342C87.4186 62.6101 88.3368 61.1063 88.3555 59.1614C88.3601 58.4936 88.3543 57.8257 88.3543 57.1578Z" fill="#030303"/>
<path d="M61.5601 47.4761C61.1337 46.9458 60.7447 46.5002 60.288 46.1204C57.9551 44.1767 54.9354 44.8728 53.6761 47.6337C53.0044 49.107 52.7287 50.6732 52.6282 52.2664C52.4624 54.8814 52.4519 57.4953 53.1282 60.0597C53.2556 60.543 53.4238 61.011 53.627 61.4672C54.8326 64.1869 57.6362 65.0005 60.1127 63.3497C60.6863 62.9664 61.1781 62.496 61.6535 61.8858C61.865 62.409 62.0496 62.8782 62.2446 63.3438C62.3463 63.5872 62.1862 63.7224 62.0531 63.8741C59.7202 66.5303 54.6293 67.0676 52.2416 62.9076C51.2521 61.1838 50.8106 59.3013 50.6178 57.3542C50.341 54.5487 50.4204 51.7549 51.1493 49.0141C51.5582 47.4761 52.2065 46.051 53.3677 44.9128C55.5405 42.7834 59.573 42.7916 61.7435 44.9222C62.0203 45.1938 62.1313 45.4466 61.9958 45.8394C61.8218 46.3438 61.7166 46.8729 61.5601 47.4761Z" fill="#030303"/>
<path d="M75.8701 47.4821C75.3771 46.8777 74.9297 46.3627 74.376 45.9523C72.1355 44.2921 69.4452 44.8764 68.131 47.3351C67.3834 48.7343 67.1159 50.2711 66.9734 51.8291C66.7292 54.5029 66.7526 57.1673 67.36 59.8011C67.5107 60.4525 67.7327 61.0816 68.0247 61.6848C69.1543 64.0188 71.5222 64.816 73.8504 63.6672C74.6798 63.2581 75.3374 62.649 75.9682 61.9023C76.1738 62.4079 76.3537 62.863 76.5441 63.3133C76.6808 63.639 76.4227 63.7931 76.2591 63.973C73.9532 66.5092 68.874 67.1077 66.4734 62.7865C65.5949 61.2062 65.1639 59.4907 64.9688 57.7094C64.6475 54.7721 64.6954 51.8514 65.4688 48.9801C65.9395 47.2316 66.7082 45.6513 68.1626 44.4861C70.3085 42.7682 74.0898 42.9763 76.036 44.9199C76.3058 45.1892 76.4413 45.4338 76.293 45.8418C76.1096 46.3415 76.0196 46.8765 75.8701 47.4821Z" fill="#030303"/>
</svg>
