<svg width="104" height="75" viewBox="0 0 104 75" fill="none" xmlns="http://www.w3.org/2000/svg">
<path d="M24.0741 61.7489C23.8908 61.8769 23.2961 61.7761 23.1901 61.5968C22.7127 60.7883 22.3446 59.9142 21.8914 58.968C22.208 58.667 22.4153 58.3116 22.6629 58.2812C22.9281 58.2476 23.3685 58.4445 23.4954 58.6734C23.878 59.3619 24.2026 60.0983 24.4277 60.8507C24.5032 61.1069 24.3023 61.5888 24.0741 61.7489Z" fill="#333333"/>
<path d="M23.5308 56.288C23.5115 56.8532 23.4247 57.4311 22.6966 57.3959C22.036 57.3639 21.9733 56.8243 21.9573 56.2816C21.9396 55.7005 21.8737 55.1193 21.8223 54.5398C21.7772 54.0451 21.9701 53.616 22.4652 53.6288C22.7609 53.6368 23.2029 53.9602 23.3042 54.2388C23.4971 54.7767 23.4954 55.3835 23.5742 55.963C23.5597 55.9646 23.5453 55.9662 23.5324 55.9694C23.5308 56.0751 23.534 56.1824 23.5308 56.288Z" fill="#333333"/>
<path d="M27.4463 64.9636C26.7198 64.9668 24.7332 63.6396 24.6158 63.1337C24.5596 62.8968 24.648 62.4693 24.8135 62.3733C25.061 62.2292 25.5047 62.1747 25.7425 62.3044C26.4176 62.6726 27.0589 63.1193 27.6536 63.6076C27.8497 63.7677 27.9735 64.1759 27.922 64.4273C27.869 64.669 27.5491 64.8563 27.4463 64.9636Z" fill="#333333"/>
<path d="M31.7008 66.6766C30.73 66.3756 29.8684 66.1675 29.0664 65.8217C28.8446 65.7257 28.6646 65.1941 28.7192 64.9124C28.7578 64.7139 29.2593 64.4305 29.4988 64.4769C30.333 64.637 31.1607 64.8756 31.9483 65.1925C32.1685 65.2806 32.379 65.7625 32.3372 66.0218C32.2955 66.2684 31.921 66.4637 31.7008 66.6766Z" fill="#333333"/>
<path d="M33.2373 66.1707C33.1987 65.6136 33.6825 65.4631 34.2017 65.5223C34.4669 65.5528 34.7321 65.58 34.9973 65.6088C34.8767 65.7049 34.7562 65.7993 34.6356 65.8938C34.2676 66.1803 33.959 66.5117 33.7114 66.8704C33.4735 66.6959 33.2533 66.3965 33.2373 66.1707Z" fill="#333333"/>
<path d="M45.6023 67.5652C45.4898 67.602 45.366 67.6036 45.239 67.5924C45.5637 67.2306 45.8787 66.8623 46.1841 66.4861C46.2821 66.6462 46.3513 66.8271 46.3545 66.9648C46.3593 67.1681 45.9044 67.4691 45.6023 67.5652Z" fill="#333333"/>
<path d="M52.7322 67.1345C53.5873 67.2946 54.4359 67.5379 55.246 67.8549C55.463 67.9398 55.6752 68.4185 55.635 68.6762C55.5948 68.9324 55.2348 69.1405 55.0403 69.3422C54.0341 69.0396 53.1549 68.8251 52.3239 68.4889C52.1198 68.4073 51.9318 67.8885 52.0025 67.6468C52.0684 67.4147 52.5136 67.0929 52.7322 67.1345Z" fill="#333333"/>
<path d="M57.3258 68.7018C58.1279 69.1517 58.8897 69.6848 59.6114 70.2548C59.7609 70.3732 59.7673 70.8055 59.6837 71.0376C59.6098 71.2426 59.3205 71.369 59.1421 71.5163C58.9701 71.4635 58.856 71.4539 58.7724 71.3995C58.0395 70.9256 57.2808 70.4837 56.6042 69.941C56.4242 69.7969 56.3695 69.2622 56.4949 69.0444C56.6218 68.8299 57.1523 68.6058 57.3258 68.7018Z" fill="#333333"/>
<path d="M50.3823 66.6286C50.8838 66.7038 51.2004 67.0256 51.0509 67.5123C50.9577 67.8149 50.6073 68.0374 50.4594 68.1991C49.4452 68.0486 48.6609 67.999 47.9247 67.7861C47.6483 67.706 47.4827 67.2418 47.2673 66.9536C47.5647 66.7439 47.8604 66.3612 48.1578 66.3596C48.9003 66.3564 49.6429 66.5181 50.3823 66.6286Z" fill="#333333"/>
<path d="M45.8931 14.9209C45.8963 10.1725 42.0388 6.34779 37.2475 6.351C32.4947 6.3542 28.6902 10.2061 28.6967 15.009C28.7031 19.703 32.5574 23.4876 37.3343 23.4924C42.0485 23.4972 45.8899 19.6501 45.8931 14.9209ZM44.326 14.9017C44.3389 18.8401 41.2754 21.9267 37.3439 21.9347C33.3417 21.9427 30.2525 18.8849 30.2541 14.9161C30.2573 10.9778 33.3707 7.91833 37.3696 7.92474C41.2416 7.92954 44.3132 11.0098 44.326 14.9017Z" fill="#333333"/>
<path d="M10.0569 39.4331C10.0923 42.6863 12.881 45.3935 16.1743 45.3711C19.5544 45.3487 22.2868 42.5934 22.2611 39.2362C22.2338 35.8358 19.5287 33.1926 16.0988 33.2166C12.6447 33.2406 10.0184 35.9415 10.0569 39.4331ZM16.0988 34.7151C18.5949 34.6591 20.6715 36.7035 20.6844 39.1882C20.6972 41.7962 18.7412 43.8038 16.1807 43.8086C13.6975 43.8134 11.7125 41.8618 11.6144 39.4732C11.5083 36.9565 13.5062 34.7728 16.0988 34.7151Z" fill="#333333"/>
<path d="M36.6753 73.4006C37.0016 73.4006 37.3279 73.4006 37.6541 73.4006C37.3279 73.4391 37 73.4391 36.6753 73.4006Z" fill="#333333"/>
<path d="M34.6356 65.8954C34.7561 65.8009 34.8767 65.7048 34.9972 65.6104C35.3975 65.6552 35.7961 65.7 36.1963 65.7401C36.7219 65.7929 37.1349 66.0619 37.0112 66.5918C36.9372 66.9104 36.5161 67.1489 36.3522 67.3202C35.391 67.2081 34.6533 67.2017 33.967 67.008C33.885 66.9856 33.7982 66.936 33.713 66.8735C33.9589 66.5133 34.2675 66.1819 34.6356 65.8954Z" fill="#333333"/>
<path d="M44.6506 67.5075C44.6506 67.4931 44.649 67.4771 44.649 67.4627C44.1942 67.4627 43.7056 67.5651 43.2957 67.4291C42.9967 67.3298 42.6528 66.936 42.6142 66.635C42.5869 66.4333 43.0466 65.9786 43.3069 65.9642C44.1283 65.9194 44.9721 65.961 45.779 66.1147C45.9156 66.1403 46.0683 66.2972 46.1824 66.4845C45.877 66.8607 45.562 67.2289 45.2373 67.5908C45.046 67.5747 44.8435 67.5251 44.6506 67.5075Z" fill="#333333"/>
<path d="M41.0488 67.349C40.2307 67.4387 39.3901 67.4387 38.5719 67.3458C38.3148 67.317 37.876 66.8319 37.9194 66.6526C37.9917 66.3564 38.3485 66.0362 38.6603 65.9162C38.9866 65.7897 39.3981 65.8874 39.7726 65.8874C39.7726 65.8906 39.7726 65.8938 39.7726 65.897C40.2001 65.897 40.6582 65.8057 41.0472 65.9274C41.322 66.0138 41.6805 66.3933 41.6789 66.6382C41.6756 66.888 41.2979 67.3202 41.0488 67.349Z" fill="#333333"/>
<path d="M33.7918 71.7181C34.5087 72.6834 35.5631 73.2678 36.6769 73.4007C37.0032 73.4007 37.3295 73.4007 37.6558 73.4007C38.3389 73.319 39.0156 73.0629 39.6215 72.6162C41.6869 71.0953 43.5819 69.4351 45.239 67.5908C45.0461 67.5732 44.8436 67.5236 44.6507 67.5075C44.6507 67.4931 44.6491 67.4771 44.6491 67.4627C44.1943 67.4627 43.7056 67.5652 43.2958 67.4291C42.9968 67.3298 42.6529 66.936 42.6143 66.635C42.587 66.4333 43.0466 65.9786 43.307 65.9642C44.1284 65.9194 44.9722 65.961 45.779 66.1147C45.9157 66.1403 46.0684 66.2972 46.1825 66.4845C48.1546 64.0655 49.7298 61.3423 50.7713 58.2268C51.501 56.0447 51.8594 53.7393 52.3979 51.4436C52.5377 51.6036 52.7467 51.783 52.8785 52.0071C54.1804 54.226 55.77 56.3345 56.691 58.7023C58.1456 62.4357 59.1791 66.334 60.3299 70.1811C61.0274 72.5153 63.1153 73.8297 65.4491 73.2806C67.6141 72.7715 68.9723 70.6406 68.5335 68.3849C67.6768 63.9886 66.4119 59.7125 64.5989 55.6076C61.9372 49.5832 58.3529 44.2408 52.917 40.3329C52.0796 39.731 51.681 39.1338 51.9511 38.1508C52.0362 37.8402 52.25 37.3968 52.3095 37.2783C52.3191 37.2591 52.3256 37.2463 52.3256 37.2463C52.3256 37.2463 51.6055 36.4842 51.2937 36.1304C51.1956 36.0183 51.0992 35.9063 51.0044 35.7942C49.3087 33.7834 48.19 31.6445 47.6114 29.3872C47.4056 28.5851 47.2674 27.7686 47.1951 26.9393C47.0118 24.8325 47.2545 22.6343 47.8942 20.3562C48.0325 19.8663 48.2832 19.3732 48.5982 18.9714C49.1897 18.2173 50.0496 17.7995 50.9481 17.7434C51.4319 17.713 51.927 17.7882 52.3979 17.9756C52.4799 18.0076 52.5602 18.0428 52.6406 18.0812C54.0952 18.7952 54.7976 20.3802 54.3122 22.0692C53.7287 24.0976 53.6371 26.102 54.354 28.1384C55.2107 26.0012 56.0223 23.8655 56.5865 21.6674C56.834 20.6988 56.7183 19.5765 56.5254 18.5711C56.1011 16.3682 54.6368 15.1211 52.422 14.9626C52.3818 14.9594 52.3448 14.9546 52.3047 14.953C51.8369 14.9273 51.3885 14.9385 50.9578 14.9818C48.2061 15.2587 46.2211 16.8901 44.8227 19.3716C41.6129 25.0694 40.0458 31.2139 40.0651 37.749C40.0667 38.4838 40.1519 39.1898 40.3287 39.8638C40.4991 40.509 40.7546 41.1238 41.1099 41.7081C41.3461 42.0972 41.6274 42.4734 41.9553 42.8336C42.4246 43.3475 42.767 44.0487 42.9679 44.7243C44.4289 49.6409 43.9435 54.3493 41.2963 58.7887C39.6762 61.5072 37.4517 63.6588 34.9973 65.6088C35.3975 65.6536 35.7961 65.6985 36.1964 65.7385C36.7219 65.7913 37.135 66.0603 37.0113 66.5902C36.9373 66.9088 36.5162 67.1473 36.3523 67.3186C35.3911 67.2066 34.6534 67.2002 33.967 67.0065C33.8851 66.984 33.7983 66.9344 33.7131 66.872C32.7085 68.3288 32.7085 70.258 33.7918 71.7181ZM37.9194 66.651C37.9917 66.3549 38.3485 66.0347 38.6603 65.9146C38.9866 65.7881 39.3981 65.8858 39.7726 65.8858C39.7726 65.889 39.7726 65.8922 39.7726 65.8954C40.2001 65.8954 40.6582 65.8041 41.0472 65.9258C41.322 66.0123 41.6804 66.3917 41.6788 66.6366C41.6756 66.8864 41.2979 67.3186 41.0488 67.3475C40.2307 67.4371 39.3901 67.4371 38.5719 67.3442C38.3132 67.3154 37.876 66.8319 37.9194 66.651Z" fill="#333333"/>
<path d="M61.9468 40.3857C61.4952 40.5682 60.9792 40.6163 60.4408 40.5042C60.2833 40.4706 60.1225 40.4274 59.9618 40.3665C57.4126 39.3995 55.0821 38.186 53.1565 36.5498C52.6454 36.116 52.1632 35.6517 51.7132 35.1538C50.3775 33.6761 49.3215 31.9055 48.64 29.7506C48.5645 29.512 48.4986 29.2703 48.4375 29.027C48.37 28.7548 48.3121 28.4794 48.2607 28.2041C48.1016 27.3427 48.0196 26.4702 48.0084 25.5961C47.9939 24.3906 48.1144 23.1803 48.3555 21.9924C48.4536 21.5089 48.5629 21.0302 48.6915 20.5563C48.992 19.4516 49.86 18.7856 50.8565 18.6912C51.2037 18.6576 51.5669 18.6928 51.927 18.8049C52.033 18.8385 52.1343 18.8785 52.2323 18.9233C53.3478 19.4324 53.8911 20.662 53.5519 22.0084C52.1616 27.5253 53.9264 31.5885 58.9492 34.3341C59.8493 34.8256 60.8137 35.2034 61.7572 35.6117C63.223 36.2473 63.8643 37.5697 63.3452 38.9257C63.0751 39.6253 62.5721 40.1328 61.9468 40.3857Z" fill="#333333"/>
<path d="M0.733019 74.9792C0.996615 75.016 1.26825 74.9904 1.53506 74.9904C25.8293 74.9904 50.1236 74.9904 74.4178 74.9904C74.6059 74.9904 74.7923 74.9936 74.9804 74.9888C75.9432 74.96 76.2357 74.5469 75.866 73.644C75.08 71.7181 74.2667 69.8049 73.4615 67.887C70.7773 61.4944 68.0996 55.1001 65.3945 48.7171C65.2579 48.3953 64.4622 46.6503 63.35 43.7445C63.2005 43.3523 62.7424 43.1762 62.3663 43.3635C62.0368 43.5268 61.8874 43.9142 62.0208 44.2552L64.1086 49.604C67.4759 57.6296 70.7709 65.4871 74.0964 73.4135H61.3923C61.0692 72.8227 61.2894 71.7421 60.2109 71.9006C59.4169 72.0174 59.5584 72.7363 59.7304 73.4007H37.6558C37.3295 73.4391 37 73.4391 36.6769 73.4007H1.93688C4.8493 66.4557 7.72796 59.5908 10.6548 52.6106C10.8525 52.9452 10.9924 53.163 11.1113 53.3887C12.4823 55.9839 13.8341 58.5886 15.234 61.1678C15.4269 61.5248 15.8496 61.9858 16.1663 61.9858C16.4797 61.9858 16.8944 61.5184 17.0888 61.1597C18.4518 58.651 19.7586 56.1119 21.1135 53.5984C21.2646 53.3183 21.6455 53.171 21.8529 52.91C22.0747 52.6299 22.2724 52.3049 22.3817 51.9687C22.4942 51.6245 22.3881 51.1922 22.544 50.8816C23.4827 49.0245 24.4487 47.1818 25.4436 45.3535C26.6121 43.2098 26.9737 40.9445 26.596 38.5494C26.5349 38.1636 26.4481 37.7826 26.3549 37.2943C27.7484 37.2943 29.0552 37.3263 30.3587 37.2799C30.9566 37.2591 31.2652 37.4784 31.532 37.9939C33.1168 41.0485 34.7209 44.0952 36.3555 47.1226C36.5468 47.4764 36.9614 47.9294 37.2813 47.9359C37.5915 47.9423 38.0206 47.4908 38.2103 47.1402C39.1859 45.3359 40.1471 43.522 41.1067 41.7097C40.8029 41.2102 40.5714 40.6851 40.4043 40.1392C40.3014 40.1312 40.2934 40.1296 40.1905 40.1216C39.2486 41.905 38.2971 43.6821 37.3054 45.5488C37.0273 45.0637 36.8602 44.806 36.6882 44.4169C33.5041 37.2126 29.6933 30.3093 25.6573 23.5405C23.6771 20.2201 23.1066 16.6916 24.0918 13.0878C25.6509 7.39003 29.285 3.663 35.2706 2.78728C40.8061 1.9772 45.3788 3.93036 48.5082 8.60516C49.8809 10.656 50.7118 12.7965 50.9545 14.9834C51.3853 14.9401 51.8337 14.9289 52.3015 14.9545C52.3416 14.9562 52.3786 14.9626 52.4188 14.9642C52.324 13.9459 52.1279 12.9373 51.8321 11.9544C51.186 9.81228 50.0673 7.79347 48.5002 6.05483C48.2157 5.73944 47.9184 5.43366 47.6049 5.13749C40.1246 -1.93394 27.8449 0.494712 23.5679 9.87632C21.8239 13.7026 21.6005 17.6185 22.994 21.5473C23.6209 23.3163 24.6431 24.9493 25.5191 26.6255C27.0268 29.5104 28.5601 32.3826 30.0806 35.2611C30.1513 35.394 30.2076 35.5348 30.3201 35.7846C28.8382 35.7846 27.4559 35.807 26.0768 35.7606C25.8759 35.7542 25.6252 35.45 25.4998 35.2275C23.7881 32.1808 21.2775 30.2613 17.7752 29.6994C12.7813 28.8973 7.87262 31.8238 6.23157 36.5851C5.17558 39.6461 5.35721 42.6031 6.9211 45.4672C7.79065 47.0601 8.63287 48.6675 9.44134 50.2909C9.58278 50.5758 9.62779 51.0209 9.50885 51.3043C6.46463 58.6158 3.39309 65.9162 0.327981 73.2181C0.225114 73.4647 0.101352 73.7064 0.0386677 73.9626C-0.101167 74.5389 0.141535 74.8976 0.733019 74.9792ZM8.21819 44.6203C7.17827 42.6735 6.86163 40.6243 7.31971 38.503C8.07514 35.0001 10.0987 32.4802 13.6283 31.5132C17.3316 30.4982 20.6394 31.3836 23.0744 34.4238C25.4757 37.424 25.9145 40.8036 24.2268 44.3177C23.2689 46.3109 22.1743 48.24 21.1392 50.198C19.5078 53.283 17.8748 56.3681 16.1711 59.5876C15.9766 59.2466 15.8528 59.0449 15.7435 58.8368C13.2362 54.0963 10.7465 49.3479 8.21819 44.6203Z" fill="#333333"/>
<path d="M58.909 0C63.0622 0 66.4295 3.354 66.4295 7.49087C66.4295 11.6277 63.0622 14.9817 58.909 14.9817C57.3611 14.9817 55.9242 14.5159 54.7284 13.717C52.7996 12.4298 51.5042 10.2781 51.3965 7.81747C51.3916 7.7086 51.3884 7.59974 51.3884 7.48927C51.3884 3.354 54.7557 0 58.909 0Z" fill="#333333"/>
<path d="M71.1662 30.146C71.2209 29.9923 71.2723 29.8435 71.3237 29.6946C72.0984 27.442 72.8764 25.1911 73.6463 22.9353C73.7009 22.7736 73.7765 22.7256 73.9452 22.7256C75.44 22.732 76.9364 22.7192 78.4312 22.7352C78.8796 22.74 79.3329 22.7832 79.7717 22.8665C80.9884 23.097 81.5734 23.7182 81.7936 24.9317C81.9431 25.753 81.8338 26.5551 81.6201 27.346C81.0929 29.2927 80.2008 31.0586 78.8732 32.5843C77.777 33.8442 76.398 34.6255 74.6942 34.6863C73.0114 34.7456 71.3269 34.7376 69.6425 34.7584C69.6264 34.7584 69.6104 34.7504 69.5814 34.744C69.7486 34.2493 69.9141 33.7578 70.0797 33.2663C70.1215 33.143 70.1697 33.023 70.2051 32.8981C70.3642 32.3233 70.7676 32.032 71.335 31.9375C71.5037 31.9087 71.6757 31.8927 71.8477 31.8927C72.7381 31.8879 73.6286 31.8719 74.5174 31.8959C75.4545 31.9215 76.1778 31.5229 76.7644 30.8441C77.6902 29.773 78.1821 28.5019 78.4328 27.1298C78.4746 26.9009 78.4649 26.6576 78.4392 26.4238C78.383 25.8987 78.0551 25.6073 77.507 25.5945C76.9798 25.5817 76.451 25.5945 75.9222 25.5881C75.8 25.5865 75.7792 25.6586 75.7502 25.7466C75.4143 26.7536 75.08 27.7606 74.7344 28.7644C74.6508 29.0078 74.5383 29.2447 74.4162 29.4736C74.1767 29.9235 73.7925 30.1604 73.2782 30.1669C72.6015 30.1749 71.9249 30.1701 71.2498 30.1701C71.2337 30.1701 71.2112 30.1588 71.1662 30.146Z" fill="#333333"/>
<path d="M97.1096 22.7192C96.5101 24.453 95.9186 26.1692 95.3255 27.8855C95.3399 27.8951 95.3544 27.9031 95.3689 27.9127C95.3994 27.8855 95.4348 27.8614 95.4621 27.831C96.3413 26.8897 97.2189 25.9451 98.1013 25.0053C98.7844 24.2769 99.4723 23.5517 100.163 22.8312C100.218 22.7752 100.311 22.724 100.387 22.7224C101.562 22.716 102.737 22.7176 103.912 22.7176C103.929 22.7176 103.947 22.7224 104.002 22.7288C103.81 22.9049 103.637 23.0666 103.46 23.2251C102.393 24.1873 101.324 25.1478 100.255 26.1084C99.5912 26.7056 98.9306 27.3059 98.262 27.8983C98.1575 27.9911 98.1334 28.0632 98.1832 28.1977C98.958 30.2997 99.7246 32.405 100.495 34.5086C100.522 34.5855 100.548 34.6623 100.58 34.76C100.351 34.76 100.144 34.76 99.9384 34.76C99.3871 34.76 98.8342 34.752 98.2829 34.7616C97.7589 34.7712 97.3603 34.5518 97.1498 34.086C96.9296 33.5993 96.7544 33.0902 96.5856 32.5827C96.2947 31.7101 96.0247 30.8328 95.745 29.9571C95.7289 29.9075 95.7064 29.861 95.6759 29.7874C95.4541 29.9699 95.2467 30.1396 95.0394 30.3109C94.8979 30.4278 94.7645 30.5543 94.6151 30.6599C94.3659 30.8376 94.2132 31.0634 94.1136 31.3595C93.7519 32.437 93.3598 33.5064 92.9885 34.5807C92.9403 34.7215 92.8744 34.7664 92.7249 34.7648C91.8296 34.7568 90.9327 34.7616 90.0375 34.7616C89.9844 34.7616 89.9314 34.7616 89.8542 34.7616C89.8768 34.6847 89.8928 34.6255 89.9121 34.5679C90.7913 32.0463 91.6705 29.5232 92.5497 27.0017C93.0271 25.6329 93.5028 24.2625 93.9721 22.8905C94.0187 22.7528 94.0798 22.7128 94.2229 22.7144C95.1133 22.7208 96.0022 22.7176 96.8926 22.7176C96.9553 22.7192 97.0196 22.7192 97.1096 22.7192Z" fill="#333333"/>
<path d="M72.3187 22.748C72.0776 23.4172 71.8574 24.0896 71.5938 24.7444C71.3447 25.3656 70.8335 25.6153 70.181 25.6153C69.1427 25.6137 68.1044 25.6265 67.066 25.6105C66.5276 25.6025 66.084 25.8042 65.6886 26.134C64.9492 26.7504 64.496 27.5605 64.1649 28.4426C63.935 29.0558 63.8113 29.6897 63.845 30.3477C63.8659 30.7576 63.9623 31.1418 64.2372 31.4604C64.5233 31.7918 64.909 31.8847 65.3237 31.8895C66.0052 31.8959 66.6883 31.8895 67.3698 31.8943C67.7106 31.8959 68.0449 31.9503 68.3471 32.1184C68.7199 32.3265 68.8871 32.6627 68.7714 33.0726C68.6123 33.6393 68.413 34.1948 68.2297 34.7632C67.545 34.7632 66.8748 34.7696 66.2045 34.7616C65.4925 34.7536 64.7789 34.7696 64.0716 34.7119C62.8726 34.6143 61.8488 34.1516 61.1383 33.1382C60.6256 32.405 60.4665 31.5725 60.5131 30.6983C60.5886 29.3055 60.984 27.9959 61.6398 26.7664C62.4113 25.3207 63.4577 24.1376 64.9701 23.422C65.8316 23.0154 66.7414 22.7736 67.6961 22.7576C69.2134 22.7336 70.7323 22.7384 72.2512 22.732C72.2672 22.732 72.2833 22.74 72.3187 22.748Z" fill="#333333"/>
<path d="M92.4195 22.74C92.3279 23.033 92.2411 23.3115 92.1543 23.5917C92.0418 23.9519 91.9261 24.3121 91.8184 24.6739C91.6866 25.1158 91.3924 25.3944 90.9504 25.5C90.682 25.5641 90.4007 25.6089 90.1259 25.6105C87.9544 25.6201 85.783 25.6153 83.6115 25.6153C83.5697 25.6153 83.5295 25.6105 83.462 25.6073C83.5537 25.3063 83.6421 25.015 83.7321 24.7252C83.8269 24.421 83.9378 24.1216 84.0165 23.8142C84.203 23.0922 84.6418 22.8056 85.3731 22.7624C86.0819 22.7208 86.7956 22.7336 87.5076 22.732C89.0972 22.7288 90.6868 22.7304 92.2781 22.7304C92.3182 22.7304 92.3584 22.7352 92.4195 22.74Z" fill="#333333"/>
<path d="M80.3149 34.7616C80.3985 34.4926 80.4757 34.2397 80.5544 33.9883C80.6814 33.5833 80.8084 33.1798 80.9354 32.7748C81.0607 32.3778 81.3259 32.1152 81.7261 32.0095C81.964 31.9471 82.2148 31.8959 82.4591 31.8959C84.6772 31.8863 86.8952 31.8895 89.1149 31.8895C89.1615 31.8895 89.2081 31.8943 89.2708 31.8991C89.1599 32.2577 89.0522 32.6067 88.9445 32.9541C88.8642 33.2135 88.7677 33.468 88.7034 33.7306C88.5427 34.3758 88.0862 34.6495 87.469 34.7216C87.2408 34.7488 87.0077 34.7584 86.7779 34.7584C84.6836 34.76 82.5909 34.76 80.4966 34.7584C80.4419 34.7616 80.3905 34.7616 80.3149 34.7616Z" fill="#333333"/>
<path d="M90.8845 27.3203C90.7527 27.743 90.6289 28.1416 90.5052 28.5403C90.4457 28.7324 90.3734 28.9197 90.3284 29.115C90.1676 29.7986 89.6919 30.0884 89.0361 30.154C88.8063 30.1764 88.5748 30.1892 88.3434 30.1892C86.2796 30.1925 84.2158 30.1908 82.1521 30.1908C82.0829 30.1908 82.0138 30.1908 81.9238 30.1908C82.0476 29.7922 82.1649 29.416 82.2823 29.0398C82.3578 28.798 82.443 28.5579 82.5073 28.3129C82.6568 27.7382 83.0521 27.4484 83.6179 27.3636C83.8622 27.3267 84.113 27.3107 84.3621 27.3107C86.4725 27.3075 88.5845 27.3107 90.6948 27.3123C90.7463 27.3123 90.7977 27.3171 90.8845 27.3203Z" fill="#333333"/>
</svg>
