<svg width="85" height="76" viewBox="0 0 85 76" fill="none" xmlns="http://www.w3.org/2000/svg">
<g clip-path="url(#clip0_234_590)">
<path d="M31.8609 37.4031C31.8609 39.0177 31.8609 40.6324 31.8609 42.247C31.8585 49.0905 31.8561 56.1626 31.8825 63.1264C31.0401 63.6871 30.2577 64.4667 29.6434 65.3546C27.097 65.345 24.517 65.3426 22.0163 65.3426C18.8579 65.3402 15.5964 65.3378 12.3852 65.3209C10.1269 62.3203 7.5229 61.6706 5.69413 61.6706C5.09174 61.6706 4.48455 61.7404 3.87256 61.8799V37.4031H31.8609ZM32.8713 34.9968H2.86217C2.09419 34.9968 1.4726 35.62 1.4726 36.3901V65.4485C1.71739 65.3546 1.83259 65.3306 1.92859 65.2704C3.23897 64.4691 4.50615 64.0745 5.69413 64.0745C7.6285 64.0745 9.35887 65.1188 10.7556 67.1642C10.9788 67.4914 11.586 67.7176 12.0156 67.7224C17.9843 67.7585 23.9554 67.7369 29.9241 67.7609C29.9289 67.7609 29.9361 67.7609 29.9409 67.7609C30.6369 67.7609 31.0593 67.5877 31.4649 66.9476C31.9209 66.2257 32.5617 65.5423 33.2769 65.0851C33.8937 64.6881 34.2849 64.0239 34.2825 63.2876C34.2465 54.3266 34.2609 45.3631 34.2609 36.4021C34.2609 36.3973 34.2609 36.3925 34.2609 36.3876C34.2609 35.6224 33.6393 34.9968 32.8713 34.9968Z" fill="#333333"/>
<path d="M69.5595 30.3334C68.8299 28.0787 68.9403 26.1465 69.4563 24.2142C70.0251 22.0822 69.2067 20.3593 67.3419 19.789C65.482 19.2212 63.754 20.2198 63.1636 22.3445C61.6036 27.9777 62.4628 33.1632 66.3148 37.663C67.0683 38.5413 67.3683 39.333 67.2003 40.4471C67.1403 40.8537 67.3587 41.5083 67.6755 41.7344C74.0546 46.2799 78.0194 52.5917 80.6593 59.7937C81.8545 63.0518 82.6657 66.4567 83.5441 69.8255C84.0217 71.6567 83.4505 73.2497 81.8569 74.3566C80.4553 75.3311 78.6386 75.3239 77.2298 74.3782C76.1714 73.6708 75.6458 72.6481 75.3842 71.4089C74.093 65.2849 72.1395 59.4231 68.4771 54.2568C68.2083 53.8766 67.9107 53.5157 67.5171 53.0031C67.2675 54.5359 67.1115 55.8811 66.8211 57.1973C65.1988 64.5557 60.7996 70.0012 54.8933 74.359C53.0766 75.6993 50.571 75.1795 49.2342 73.3796C47.9142 71.6062 48.267 69.1975 49.9662 67.6454C51.7638 66.0043 53.6837 64.4402 55.2029 62.5609C58.9853 57.8879 60.01 52.5387 58.3757 46.7275C58.1741 46.0128 57.8669 45.238 57.3749 44.711C55.8341 43.0627 55.3901 41.1088 55.4477 38.9504C55.5725 34.3447 56.2757 29.857 58.1045 25.593C58.1597 25.4607 58.1837 25.3163 58.2245 25.1767C58.1309 25.0925 58.0373 25.0059 57.9461 24.9217C56.4845 26.185 54.9317 27.3592 53.5782 28.7284C51.3222 31.0072 49.7958 33.7816 48.6942 36.7847C48.3318 37.7713 47.7846 38.498 46.7671 38.9431C46.3759 39.114 46.0975 39.7685 45.9583 40.2594C43.7623 47.9619 41.5975 55.6741 39.4256 63.3839C39.3176 63.7665 39.1904 64.1419 39.0512 64.587C38.444 64.4114 37.8824 64.2501 37.2152 64.0576C37.2896 63.6895 37.3376 63.3478 37.4312 63.0181C39.6392 55.1519 41.8615 47.2906 44.0383 39.4148C44.1631 38.9624 43.9135 38.4041 43.8295 37.8988C43.7023 37.136 43.3087 36.3107 43.4767 35.6225C45.7927 26.2355 56.0453 17.633 65.6956 16.8895C70.4475 16.5237 72.9291 19.4329 71.7147 24.1059C71.1939 26.1128 70.3659 28.0354 69.5595 30.3334Z" fill="#333333"/>
<path d="M84.6217 6.52796C79.9514 7.39423 75.3218 6.55924 70.6395 6.14777C73.3299 6.83115 76.0178 7.51695 78.6842 8.19552C78.689 11.2106 76.5218 13.9923 73.5242 14.9163C70.3587 15.8909 66.934 14.6636 65.1028 11.9012C62.8804 8.54925 63.7204 3.97729 66.9892 1.63837C70.2171 -0.669266 74.7698 -0.0291912 77.1866 3.13509C77.6882 3.792 78.2186 4.10963 79.0298 4.25642C80.5177 4.52592 81.9817 4.93981 83.4385 5.3561C83.9017 5.48844 84.3097 5.81329 84.7417 6.05152C84.7009 6.20792 84.6601 6.36674 84.6217 6.52796Z" fill="#333333"/>
<path d="M62.8948 27.1234C63.2116 25.4823 63.4372 23.8148 63.8764 22.205C64.2916 20.6818 65.7244 19.9743 67.162 20.369C68.5491 20.7492 69.3123 22.1641 68.9595 23.6993C67.5052 30.0399 69.5163 34.2822 75.3674 37.1745C76.2266 37.598 77.1458 37.9012 77.9906 38.3464C79.1906 38.9792 79.6681 40.4014 79.1786 41.6502C78.713 42.8414 77.3714 43.6715 76.181 43.2576C69.8043 41.0342 64.8604 37.3454 63.358 30.2685C63.2836 29.9171 63.2092 29.561 63.1804 29.2025C63.1276 28.5239 63.106 27.8429 63.0724 27.1619C63.0172 27.1499 62.9572 27.1355 62.8948 27.1234Z" fill="#333333"/>
<path d="M36.5601 75.0159C33.7329 75.0376 31.5153 72.855 31.5081 70.0445C31.5009 67.2941 33.6753 65.0899 36.4305 65.0538C39.2192 65.0153 41.4848 67.2436 41.4944 70.0325C41.4992 72.7684 39.296 74.9942 36.5601 75.0159ZM38.768 70.006C38.7464 68.7355 37.712 67.7224 36.4545 67.7393C35.2209 67.7561 34.1769 68.8341 34.1889 70.0758C34.2009 71.3246 35.2617 72.3473 36.5241 72.3257C37.8056 72.3064 38.7896 71.2861 38.768 70.006Z" fill="#333333"/>
<path d="M5.55973 75.0087C2.79497 75.0039 0.606209 72.843 0.57741 70.0854C0.54621 67.2989 2.78297 65.0538 5.58613 65.0538C8.31969 65.0514 10.5373 67.2532 10.5637 69.9964C10.5901 72.7973 8.37969 75.0135 5.55973 75.0087ZM7.86369 70.071C7.88529 68.8149 6.86051 67.7585 5.60293 67.7393C4.36215 67.72 3.28937 68.7571 3.25817 70.006C3.22697 71.2332 4.28055 72.304 5.53573 72.3233C6.80531 72.3425 7.84449 71.3367 7.86369 70.071Z" fill="#333333"/>
<path d="M30.5049 69.1133C30.5049 69.763 30.5049 70.3477 30.5049 70.995C24.1666 70.995 17.8811 70.995 11.55 70.995C11.55 70.379 11.55 69.7942 11.55 69.1133C17.8307 69.1133 24.1066 69.1133 30.5049 69.1133Z" fill="#333333"/>
</g>
<defs>
<clipPath id="clip0_234_590">
<rect width="84.1667" height="74.8598" fill="white" transform="translate(0.575012 0.252335)"/>
</clipPath>
</defs>
</svg>
