<svg width="106" height="76" viewBox="0 0 106 76" fill="none" xmlns="http://www.w3.org/2000/svg">
<path d="M103.57 21.9528C102.56 21.9865 101.544 21.9294 100.535 21.9722C99.9326 21.9982 99.7318 21.7958 99.643 21.2119C99.1937 18.2628 98.693 15.3214 98.2013 12.3788C97.9786 11.0437 97.4367 10.6427 96.0517 10.8192C95.0798 10.9438 94.108 11.093 93.1478 11.2876C92.463 11.4264 92.1 11.3161 91.8644 10.5714C90.9969 7.83633 90.0405 5.12722 89.1163 2.40903C88.5757 0.819629 88.0247 0.544566 86.3887 1.07134C62.8034 8.66671 39.2195 16.2634 15.6355 23.86C14.1475 24.3388 13.8411 24.9162 14.3251 26.3408C15.0743 28.5439 15.8247 30.7483 16.5739 32.9514C16.0873 33.3393 15.5956 33.7182 15.0923 34.0867C11.882 36.4377 8.68077 38.8017 5.46922 41.1514C3.99538 42.2283 2.50481 43.2818 1.02197 44.347C0.706602 44.5728 -0.375928 45.6601 0.630658 46.9225C1.10821 47.5219 2.28985 47.4817 2.91414 47.0393C3.34921 46.7305 3.78042 46.4152 4.21292 46.1012C7.93163 43.4103 11.6581 40.7284 15.3665 38.0232C16.1529 37.4497 16.9343 36.8697 17.7066 36.2794C18.2935 38.0037 19.062 40.0862 19.8601 42.1465C19.851 42.1517 19.842 42.1556 19.833 42.1582C19.833 42.1582 22.1191 49.533 23.4616 51.3028C25.7541 54.3246 30.0186 53.0453 31.5066 52.4731C32.9019 51.9878 35.1905 51.1211 36.7442 50.4023C38.1794 49.738 39.6172 49.0802 41.0499 48.4081C41.149 48.3614 41.2494 48.316 41.3498 48.2693C42.2585 47.8411 43.1441 47.3611 44.0567 46.9446C45.3735 46.3438 46.7251 45.8443 48.1796 45.6977C48.4358 45.6717 48.6842 45.6679 48.9223 45.6938C49.481 45.7522 49.983 45.9741 50.391 46.4697C50.8686 47.0497 51.1955 47.6932 51.3204 48.4094C51.3564 48.6196 51.377 48.835 51.377 49.0568C51.3783 50.2142 50.9973 51.2275 50.3923 52.15C50.2469 52.3719 50.0898 52.5872 49.9212 52.8C48.9622 54.0041 47.7291 54.8669 46.4278 55.6376C46.384 55.6635 46.3402 55.6895 46.2952 55.7154C43.7002 57.2348 40.8323 58.8073 38.0044 59.8258C37.9696 59.8388 37.9348 59.8518 37.9001 59.8647C37.7894 59.9037 37.2205 60.11 36.9707 60.3383C36.425 60.8378 35.8805 61.3387 35.354 61.8589C34.7027 62.5025 34.063 63.159 33.4219 63.8129C33.2507 63.9881 33.077 64.1619 32.9045 64.3371C32.4347 64.8133 31.9636 65.2856 31.4809 65.7487C30.3906 66.7958 29.1137 67.5821 27.7042 68.1309C25.7824 68.8795 23.7693 69.1403 21.7278 69.2363C20.5513 69.2921 19.3735 69.3233 18.197 69.3817C16.9265 69.4452 15.6561 69.5283 14.3856 69.6009C12.6942 69.6982 11.0042 69.7943 9.31279 69.8916C7.95608 69.9694 6.60067 70.0447 5.24396 70.1238C4.15371 70.1887 3.06346 70.2393 1.97578 70.3327C1.3296 70.3885 0.882948 70.7725 0.651253 71.3798C0.414409 72.0025 0.543129 72.5721 0.974339 73.0704C1.43129 73.5984 2.03627 73.6412 2.67601 73.5945C3.71349 73.5193 4.75226 73.4583 5.79102 73.3986C8.90732 73.2196 12.0223 73.0392 15.1386 72.868C17.4311 72.7421 19.7236 72.6318 22.0161 72.5137C23.8838 72.4177 25.7245 72.1492 27.515 71.5951C28.259 71.3655 28.9863 71.0775 29.7354 70.8115C29.7599 70.8725 29.7895 70.9516 29.8217 71.0294C30.2439 72.0596 30.8887 72.9108 31.9327 73.3325C34.0346 74.1836 36.1148 74.0629 38.1279 73.0172C38.5501 72.7979 38.9389 72.5112 39.3417 72.2569C39.352 72.2633 39.3636 72.2659 39.3675 72.2711C39.4087 72.3464 39.4499 72.4216 39.4872 72.4995C39.9223 73.3792 40.5067 74.1421 41.3626 74.6247C43.547 75.8573 46.4239 76.0273 48.7743 74.264C49.3304 73.8462 49.8478 73.3779 50.391 72.925C51.5444 73.614 53.0336 73.7035 54.0801 73.5206C56.307 73.1313 57.97 71.8987 59.1645 70.0031C60.2561 68.2723 60.7246 66.3339 60.9808 64.3371C75.1399 64.3384 89.2991 64.3397 103.459 64.3449C104.359 64.3449 105.098 64.1451 105.56 63.3381C105.56 49.8872 105.56 36.4377 105.56 22.9868C105.134 22.2071 104.457 21.9229 103.57 21.9528ZM102.661 24.8189C102.661 26.7171 102.661 28.5063 102.661 30.2929C100.316 30.3798 96.9939 27.2464 97.0197 24.8189C98.8719 24.8189 100.725 24.8189 102.661 24.8189ZM95.4905 13.7476C95.9474 16.4982 96.3902 19.1736 96.8446 21.9099C79.2126 21.9099 61.6566 21.9099 44.1005 21.9099C44.0954 21.8775 44.0915 21.8451 44.0863 21.8126C61.197 19.1282 78.309 16.4437 95.4905 13.7476ZM86.5908 3.96988C87.4854 6.59076 88.3697 9.17921 89.2913 11.874C71.8756 14.6065 54.5345 17.3273 37.1934 20.0481C37.1805 19.9962 37.1677 19.9456 37.1535 19.8937C53.5936 14.5987 70.0323 9.30376 86.5908 3.96988ZM29.8088 24.8189C31.7151 24.8189 33.5738 24.8189 35.4377 24.8189C35.1339 27.4333 32.6136 29.9257 29.8088 30.3552C29.8088 28.5192 29.8088 26.6937 29.8088 24.8189ZM26.7633 24.5269C26.7633 25.5727 26.7633 26.6146 26.7633 27.6564C26.7633 28.7917 26.7633 29.9257 26.7633 31.0571C26.7633 31.903 26.7633 32.749 26.7633 33.5936C26.7633 33.0928 26.7633 32.592 26.7659 32.0912C26.7659 31.9459 26.7723 31.7992 26.7852 31.6539C26.7929 32.7684 26.7826 34.0088 26.7633 35.3206C26.7633 34.7445 26.7633 34.1697 26.7633 33.5936C26.7633 34.1762 26.7633 34.7588 26.7633 35.3413C26.7234 38.0375 26.6436 41.0294 26.5882 43.8358C25.8738 39.5153 25.1594 35.1934 24.4399 30.8417C24.2623 29.77 24.0846 28.6957 23.907 27.6201C23.7654 26.7677 23.6251 25.9126 23.4835 25.0576C24.6085 24.876 25.6486 24.7073 26.7633 24.5269ZM18.9371 30.9455C18.4107 29.3963 17.8816 27.8433 17.35 26.2811C18.4184 25.936 19.4417 25.6051 20.5835 25.2354C20.7881 26.4744 20.9928 27.7083 21.1975 28.9435C21.4111 30.2358 21.6248 31.5242 21.8385 32.8126C22.4872 36.7283 23.1334 40.6298 23.7796 44.53C23.7345 44.5391 23.6882 44.5468 23.6431 44.5559C23.0883 43.0457 22.6661 41.769 22.6661 41.769C22.6378 41.7287 22.6095 41.6924 22.5799 41.6561C21.7548 39.2298 20.9284 36.801 20.0982 34.3617C19.712 33.2239 19.3246 32.086 18.9371 30.9455ZM44.5394 43.204C43.0875 43.6944 41.7192 44.3769 40.3445 45.049C38.4394 45.9805 36.5112 46.8667 34.5894 47.7659C34.1299 47.9812 33.6704 48.194 33.2108 48.4068C32.2751 48.8402 31.3393 49.2722 30.4035 49.7056C30.2966 49.7549 30.1898 49.8029 30.0315 49.8755C30.0315 49.8574 30.025 49.8652 30.0122 49.8872C29.9143 49.9223 29.8191 49.9534 29.7251 49.9832C29.7251 49.8755 29.7264 49.7679 29.7264 49.6615C29.7444 44.5183 29.7431 39.3739 29.7174 34.2307C29.7135 33.5327 29.8963 33.2485 30.6274 33.0708C34.6422 32.0938 37.1973 29.6208 38.2258 25.7154C38.4111 25.0109 38.6582 24.7462 39.4499 24.7514C45.3723 24.7877 51.2946 24.7709 57.4912 24.7709C51.5469 29.4638 48.97 35.5152 48.8181 42.4813C47.3468 42.384 45.9348 42.7317 44.5394 43.204ZM45.6567 59.8141C47.4035 58.9539 49.1077 58.0171 50.6201 56.7729C51.0578 56.4135 51.471 56.0346 51.8559 55.6337C51.9138 55.574 51.9691 55.513 52.0258 55.4534C53.3541 57.6331 55.124 59.6364 57.3869 61.4373C56.966 61.4684 56.6944 61.506 56.4241 61.506C52.0927 61.5086 47.7626 61.5008 43.4312 61.5112L41.7166 61.4892L44.5433 60.3526C44.5536 60.3474 44.5652 60.3422 44.5755 60.337C44.9346 60.1619 45.2976 59.9906 45.6567 59.8141ZM39.1422 65.9006C39.0611 66.596 38.953 67.2876 38.8552 67.9817C38.8462 68.0466 38.8333 68.1283 38.7908 68.1698C38.339 68.6188 37.9001 69.0832 37.4213 69.5023C36.7674 70.0732 36.0079 70.4469 35.1416 70.5662C34.5264 70.6506 33.9239 70.5598 33.3447 70.3431C33.059 70.2367 32.9302 69.9694 32.8311 69.6956C32.8131 69.6476 32.8015 69.5957 32.7848 69.5477C32.6651 69.2169 32.7127 68.9872 33.0281 68.7407C34.5624 67.5457 35.8753 66.1107 37.2282 64.7199C37.353 64.5927 37.4753 64.463 37.6002 64.3345C38.1678 64.3345 38.7342 64.3345 39.3018 64.3345C39.2504 64.8639 39.2027 65.3829 39.1422 65.9006ZM48.6211 65.3089C48.468 66.6596 48.2813 68.0141 48.504 69.37C48.5774 69.8176 48.4255 70.0888 48.1616 70.3976C47.5772 71.0826 46.9156 71.6574 46.1021 72.048C45.4315 72.3684 44.7428 72.3632 44.0426 72.1777C44.0014 72.1673 43.9589 72.1569 43.9177 72.1453C42.6846 71.8001 42.2302 71.202 42.0783 69.8682C41.9831 69.0249 42.1543 68.2152 42.2585 67.3939C42.3873 66.3754 42.4992 65.3556 42.6138 64.3358C44.6553 64.3358 46.6968 64.3358 48.7383 64.3358C48.6984 64.6602 48.6585 64.9858 48.6211 65.3089ZM57.4693 65.283C57.235 66.404 56.9081 67.4951 56.2645 68.4553C55.7033 69.2908 54.9812 69.9435 53.9939 70.2354C53.4044 70.4093 52.8161 70.3509 52.2472 70.1575C52.112 70.1121 51.9627 69.937 51.9267 69.7956C51.8198 69.3609 51.7246 68.9172 51.6975 68.4708C51.6126 67.0761 51.8353 65.7046 52.0515 64.3345C53.9154 64.3345 55.7792 64.3345 57.6444 64.3345C57.589 64.6537 57.535 64.9703 57.4693 65.283ZM57.8194 58.1015C56.0766 56.5328 54.7701 54.7553 53.8175 52.8143C54.0068 52.4056 54.1689 51.98 54.3002 51.5324C54.6156 50.4542 54.7199 49.4098 54.6156 48.4029C54.4727 47.0263 53.9373 45.7224 52.9925 44.5066C52.605 44.0084 52.1545 43.6153 51.6512 43.3117C51.6512 43.3065 51.6512 43.3 51.6499 43.2948C51.7593 38.0569 53.1006 33.3977 56.5425 29.469C58.9843 26.682 62.026 24.9395 65.8631 24.815C69.2523 24.7047 72.1369 25.9632 74.5851 28.1845C77.9949 31.2803 79.779 35.2051 80.4522 39.6178C81.2567 44.8842 80.4264 49.9002 77.5894 54.5101C75.8646 57.3126 73.5554 59.5572 70.3567 60.712C65.6456 62.413 61.43 61.3503 57.8194 58.1015ZM102.643 61.4606C100.706 61.4606 98.8706 61.4606 97.0377 61.4606C96.9617 59.29 99.8631 56.1631 102.643 55.9334C102.643 57.7499 102.643 59.5624 102.643 61.4606ZM101.832 53.1984C97.7122 54.2065 95.1313 56.7443 94.1106 60.7652C93.996 61.218 93.8853 61.5255 93.2675 61.5229C87.4043 61.4982 81.5411 61.5086 75.678 61.5047C75.5145 61.5047 75.3497 61.4645 75.0472 61.4243C81.0391 56.6159 83.5916 50.3634 83.5775 43.0989C83.5633 35.8603 81.0082 29.6325 75.0035 24.8357C81.3815 24.8357 87.6077 24.8357 93.924 24.8357C94.3204 26.9571 95.2317 28.8786 96.8356 30.4343C98.4394 31.9887 100.384 32.9267 102.686 33.3004C102.686 33.6287 102.686 33.9128 102.686 34.197C102.686 40.1653 102.673 46.1337 102.704 52.102C102.706 52.7806 102.508 53.0323 101.832 53.1984Z" fill="#333333"/>
</svg>
