<svg width="94" height="75" viewBox="0 0 94 75" fill="none" xmlns="http://www.w3.org/2000/svg">
<g clip-path="url(#clip0_234_534)">
<path d="M54.4928 24.4776C53.8963 23.5431 53.2641 22.6297 52.71 21.6708C51.6834 19.8926 49.9495 19.2696 48.2841 20.1311C46.6334 20.9845 46.1103 22.8114 47.0408 24.6334C48.3444 27.1887 50.0832 29.4325 52.288 31.2626C53.1044 31.9408 53.2413 32.5979 53.1174 33.56C52.8762 35.4323 52.7638 37.3208 52.5894 39.2823C55.6318 39.7593 58.4608 40.3417 61.3207 40.6094C64.073 40.8674 65.6569 42.1394 66.5776 44.7482C68.0459 48.9146 69.8091 52.9788 71.4077 57.1014C72.0416 58.7368 71.7189 60.2441 70.4691 61.495C69.3332 62.6323 67.5098 62.934 66.0154 62.2883C64.8275 61.7756 64.1545 60.82 63.6982 59.6519C62.3571 56.2204 60.9703 52.8052 59.6504 49.3657C59.3896 48.6859 59.0164 48.4312 58.3108 48.3306C54.5319 47.7854 50.7578 47.2127 46.9902 46.5978C43.5046 46.0283 41.7072 44.1463 41.2558 40.6808C40.4703 34.6486 41.0439 28.7576 43.1673 23.0369C44.1059 20.5092 45.6654 18.5671 48.3428 17.7381C51.5188 16.7532 53.9925 18.1437 54.6899 21.3561C54.8985 22.3198 54.8496 23.3403 54.9197 24.3348C54.7747 24.3819 54.6329 24.4306 54.4928 24.4776Z" fill="#333333"/>
<path d="M72.5321 63.776C72.5321 65.1227 72.5321 66.3119 72.5321 67.5628C64.0029 67.5628 55.5259 67.5628 46.9234 67.5628C47.4954 63.2552 46.3026 59.5804 42.9163 56.7704C40.6985 54.9306 38.0944 54.0902 35.2199 54.2621C28.9265 54.6418 23.7151 60.1175 24.7515 67.5287C22.9427 67.5287 21.1469 67.5287 19.2208 67.5287C19.444 62.8788 21.098 58.6605 22.7178 54.3189C21.4549 54.0366 21.274 53.1216 21.3441 52.0297C21.3946 51.2574 21.3408 50.4786 21.3588 49.7031C21.3865 48.5236 21.8053 48.0904 22.99 48.0807C25.2502 48.0612 27.5087 48.0742 29.769 48.0742C35.9629 48.0742 42.1586 48.0726 48.3526 48.0758C50.0066 48.0774 50.3146 48.3954 50.3227 50.06C50.326 50.9134 50.3374 51.7668 50.3162 52.6202C50.308 52.922 50.3146 53.3714 50.1353 53.498C49.0712 54.241 49.4427 55.2437 49.6676 56.1312C50.2266 58.3409 50.9012 60.5215 51.5221 62.7166C51.7469 63.5083 52.2326 63.742 53.0685 63.7371C59.1843 63.6982 65.3017 63.716 71.4191 63.7193C71.758 63.7193 72.097 63.7533 72.5321 63.776Z" fill="#333333"/>
<path d="M83.6653 75C78.3219 74.9984 73.9694 70.6519 74.0215 65.3709C74.0737 60.1077 78.3888 55.8278 83.6506 55.8164C88.9842 55.805 93.3286 60.1045 93.3514 65.4131C93.3726 70.7022 89.0282 75.0016 83.6653 75ZM83.7468 61.6507C81.6903 61.6182 79.9271 63.3169 79.8928 65.3611C79.8586 67.4151 81.5452 69.1414 83.6246 69.1852C85.6729 69.2274 87.4589 67.5125 87.4801 65.4812C87.5046 63.4288 85.8033 61.6831 83.7468 61.6507Z" fill="#333333"/>
<path d="M45.4569 65.4472C45.4487 70.759 41.22 74.9854 35.9043 74.9968C30.4534 75.0081 26.1904 70.7541 26.2182 65.3352C26.2459 60.0688 30.5528 55.81 35.8408 55.8181C41.2053 55.8262 45.4666 60.0915 45.4569 65.4472ZM39.6148 65.4634C39.6344 63.3818 37.938 61.6604 35.8571 61.6491C33.7859 61.6393 32.0732 63.3526 32.0732 65.4358C32.0732 67.4736 33.7305 69.1496 35.7707 69.1788C37.881 69.2096 39.5969 67.5515 39.6148 65.4634Z" fill="#333333"/>
<path d="M63.6624 5.74502C63.6998 5.95594 63.5499 6.15712 63.3381 6.20092C62.1534 6.44753 61.0225 6.62438 59.9437 6.96671C58.0746 7.55727 57.6199 8.35389 57.8529 10.2765C57.9507 11.0844 58.1235 11.8843 58.1968 12.6923C58.2929 13.7452 57.9621 14.4802 56.74 14.6311C54.4863 14.9085 52.2961 14.6668 50.2412 13.7468C49.5014 13.4159 48.8105 12.7734 48.333 12.1066C46.5193 9.58206 46.5959 6.47349 48.4031 3.72834C50.2722 0.885847 53.7204 -0.514308 57.1506 0.171979C60.4114 0.825818 63.0562 2.50665 63.6607 5.74015C63.6624 5.7434 63.6624 5.7434 63.6624 5.74502Z" fill="#333333"/>
<path d="M68.2626 37.5398C67.192 37.9421 66.2941 38.3153 65.3718 38.6187C64.1251 39.0291 63.2289 37.4505 62.9355 36.172C63.9231 36.172 64.9155 36.4414 65.8981 36.5079C68.0736 36.6523 69.7194 36.0114 70.3973 33.362C71.204 35.6983 71.9308 37.6906 72.5728 39.7106C72.8482 40.5786 73.2849 41.1302 74.1372 41.5504C77.8217 43.3643 80.4551 46.1678 81.7457 50.1006C82.039 50.9962 82.4659 51.3304 83.4567 51.3758C87.7572 51.5705 91.1092 53.5109 93.4655 57.1127C93.6774 57.4356 93.9398 57.7779 93.9903 58.1381C94.0408 58.4967 93.855 58.8893 93.7719 59.2657C93.4248 59.1181 92.962 59.0645 92.7485 58.8065C88.1629 53.24 81.1313 52.6754 75.7945 57.4713C75.7097 57.5475 75.612 57.6108 75.3675 57.7958C72.9427 50.7625 70.7021 44.6071 68.2626 37.5398Z" fill="#333333"/>
<path d="M65.4076 35.5068C58.1267 35.1256 51.4715 30.6655 47.9631 24.4516C47.176 23.0579 47.541 21.6902 48.7681 21.0202C49.9968 20.3501 51.289 20.8596 52.0859 22.2419C54.9686 27.2422 60.5645 31.0014 66.5728 30.8505C68.1192 30.8115 69.1621 31.7201 69.2208 33.0764C69.2795 34.4263 68.3196 35.3868 66.7699 35.502C66.3185 35.536 65.8606 35.5068 65.4076 35.5068Z" fill="#333333"/>
<path d="M80.077 31.9002C80.7809 34.2917 80.7728 36.8421 80.077 39.2368C80.0672 39.2725 80.0558 39.3082 80.046 39.3423C79.7804 40.2346 79.0797 40.551 78.128 40.4715C75.6706 40.2622 73.6662 37.9908 73.7445 35.4403C73.8211 32.8899 75.9737 30.7061 78.4132 30.659C79.3062 30.6412 79.8472 31.1279 80.0672 31.8645C80.0704 31.8759 80.0737 31.8872 80.077 31.9002Z" fill="#333333"/>
<path d="M50.6307 14.9312C51.6247 15.4131 53.9126 15.9988 55.9219 15.8187C58.6319 15.5753 59.4678 14.8825 59.0181 12.152C58.961 11.808 58.8893 11.4657 58.8453 11.1201C58.5601 8.87955 58.917 8.37173 61.1675 7.80551C63.4277 7.23603 63.7487 7.46317 63.998 9.7946C64.337 12.9535 62.3799 15.7376 60.3445 16.711C57.5694 18.0382 53.4172 17.5222 51.7697 15.9825C51.5807 15.8057 50.9338 15.2719 50.6307 14.9312Z" fill="#333333"/>
<path d="M10.8073 42.579C10.8627 42.4233 10.9149 42.2724 10.967 42.1215C11.7525 39.8387 12.5412 37.5576 13.3217 35.2716C13.3771 35.1077 13.4537 35.0591 13.6248 35.0591C15.1403 35.0655 16.6575 35.0526 18.173 35.0688C18.6276 35.0737 19.0872 35.1175 19.532 35.2018C20.7656 35.4355 21.3588 36.065 21.582 37.2948C21.7336 38.1271 21.6228 38.9399 21.406 39.7414C20.8715 41.7143 19.9671 43.5038 18.6211 45.05C17.5097 46.3268 16.1116 47.1186 14.3842 47.1802C12.6781 47.2402 10.9703 47.2321 9.26249 47.2532C9.24619 47.2532 9.22989 47.2451 9.20056 47.2386C9.37004 46.7373 9.53788 46.2392 9.70573 45.7411C9.7481 45.6162 9.79698 45.4945 9.83283 45.368C9.99416 44.7855 10.4032 44.4902 10.9784 44.3945C11.1495 44.3653 11.3239 44.3491 11.4983 44.3491C12.401 44.3442 13.3038 44.328 14.205 44.3523C15.155 44.3783 15.8883 43.9743 16.4831 43.2864C17.4217 42.201 17.9204 40.9128 18.1746 39.5224C18.217 39.2903 18.2072 39.0437 18.1811 38.8069C18.1241 38.2747 17.7916 37.9794 17.236 37.9664C16.7015 37.9535 16.1653 37.9664 15.6292 37.96C15.5054 37.9583 15.4842 38.0313 15.4548 38.1206C15.1143 39.1411 14.7753 40.1616 14.425 41.1788C14.3402 41.4255 14.2261 41.6656 14.1023 41.8976C13.8595 42.3535 13.47 42.5936 12.9486 42.6001C12.2625 42.6082 11.5765 42.6033 10.8921 42.6033C10.8758 42.6033 10.8529 42.5904 10.8073 42.579Z" fill="#333333"/>
<path d="M37.1102 35.0509C36.5024 36.808 35.9027 38.5473 35.3014 40.2865C35.316 40.2962 35.3307 40.3044 35.3454 40.3141C35.3763 40.2865 35.4122 40.2622 35.4399 40.2314C36.3313 39.2774 37.221 38.3201 38.1156 37.3678C38.8082 36.6296 39.5057 35.8946 40.2064 35.1645C40.2618 35.1077 40.3563 35.0558 40.4329 35.0542C41.6241 35.0477 42.8153 35.0493 44.0065 35.0493C44.0244 35.0493 44.0424 35.0542 44.0978 35.0607C43.9039 35.2391 43.7279 35.403 43.5486 35.5636C42.4666 36.5387 41.3829 37.5122 40.2993 38.4856C39.6262 39.0908 38.9565 39.6992 38.2786 40.2995C38.1727 40.3936 38.1482 40.4666 38.1987 40.6029C38.9842 42.7331 39.7615 44.8666 40.5421 46.9985C40.5698 47.0764 40.5958 47.1543 40.6284 47.2532C40.397 47.2532 40.1868 47.2532 39.9782 47.2532C39.4193 47.2532 38.8587 47.2451 38.2998 47.2549C37.7685 47.2646 37.3644 47.0423 37.1509 46.5702C36.9277 46.077 36.7501 45.561 36.579 45.0467C36.284 44.1625 36.0102 43.2734 35.7267 42.3859C35.7104 42.3356 35.6876 42.2886 35.6566 42.214C35.4317 42.3989 35.2215 42.5709 35.0113 42.7445C34.8679 42.8629 34.7327 42.9911 34.5811 43.0982C34.3285 43.2783 34.1737 43.507 34.0727 43.8072C33.706 44.8991 33.3084 45.9829 32.932 47.0715C32.8831 47.2143 32.8163 47.2597 32.6647 47.2581C31.7571 47.25 30.8478 47.2549 29.9401 47.2549C29.8863 47.2549 29.8326 47.2549 29.7543 47.2549C29.7771 47.177 29.7934 47.1169 29.813 47.0585C30.7044 44.5032 31.5957 41.9463 32.4871 39.3909C32.9711 38.0038 33.4535 36.615 33.9293 35.2245C33.9765 35.085 34.0385 35.0444 34.1835 35.0461C35.0863 35.0526 35.9874 35.0493 36.8902 35.0493C36.9538 35.0509 37.0189 35.0509 37.1102 35.0509Z" fill="#333333"/>
<path d="M11.9757 35.082C11.7313 35.7602 11.508 36.4416 11.2408 37.1052C10.9882 37.7347 10.47 37.9878 9.8084 37.9878C8.75569 37.9862 7.70299 37.9991 6.65029 37.9829C6.10439 37.9748 5.65463 38.1792 5.25375 38.5134C4.50415 39.1381 4.04461 39.959 3.70892 40.853C3.47589 41.4744 3.35042 42.1169 3.38464 42.7837C3.40582 43.199 3.5036 43.5884 3.78225 43.9113C4.07232 44.2471 4.46341 44.3412 4.88384 44.3461C5.57478 44.3526 6.26734 44.3461 6.95828 44.3509C7.30375 44.3526 7.6427 44.4077 7.94906 44.5781C8.32712 44.789 8.49659 45.1297 8.37926 45.5434C8.21794 46.1178 8.01587 46.6807 7.8301 47.2567C7.1359 47.2567 6.45637 47.2632 5.77684 47.2551C5.05494 47.247 4.33142 47.2632 3.61441 47.2048C2.39875 47.1058 1.36071 46.6369 0.640445 45.6099C0.120613 44.8669 -0.0407148 44.0232 0.00654272 43.1374C0.0831324 41.7259 0.484006 40.3987 1.14887 39.1527C1.93106 37.6876 2.99191 36.4887 4.52534 35.7651C5.39878 35.353 6.32112 35.108 7.28908 35.0917C8.8274 35.0674 10.3673 35.0723 11.9073 35.0658C11.9252 35.0642 11.9399 35.0723 11.9757 35.082Z" fill="#333333"/>
<path d="M32.3567 35.072C32.2638 35.3689 32.1758 35.6512 32.0878 35.9352C31.9738 36.3002 31.8565 36.6653 31.7473 37.0319C31.6136 37.4797 31.3154 37.762 30.8673 37.8691C30.5952 37.934 30.31 37.9794 30.0313 37.981C27.8298 37.9908 25.6282 37.9859 23.4267 37.9859C23.3843 37.9859 23.3436 37.981 23.2751 37.9778C23.368 37.6728 23.4577 37.3775 23.5489 37.0838C23.6451 36.7756 23.7575 36.4722 23.8373 36.1607C24.0264 35.429 24.4712 35.1385 25.2127 35.0947C25.9313 35.0526 26.6549 35.0655 27.3768 35.0639C28.9884 35.0607 30.6001 35.0623 32.2133 35.0623C32.2524 35.0639 32.2932 35.0688 32.3567 35.072Z" fill="#333333"/>
<path d="M20.0828 47.2549C20.1676 46.9823 20.2458 46.7259 20.3256 46.4712C20.4544 46.0607 20.5831 45.6519 20.7118 45.2414C20.8389 44.8391 21.1078 44.573 21.5136 44.4659C21.7548 44.4026 22.009 44.3507 22.2567 44.3507C24.5055 44.341 26.7543 44.3442 29.0047 44.3442C29.052 44.3442 29.0992 44.3491 29.1628 44.3539C29.0503 44.7174 28.9411 45.0711 28.832 45.4231C28.7505 45.686 28.6527 45.9439 28.5875 46.21C28.4246 46.8638 27.9618 47.1413 27.336 47.2143C27.1046 47.2419 26.8683 47.2516 26.6353 47.2516C24.512 47.2532 22.3903 47.2532 20.267 47.2516C20.2132 47.2548 20.1594 47.2549 20.0828 47.2549Z" fill="#333333"/>
<path d="M30.7988 39.7154C30.6652 40.1437 30.5397 40.5477 30.4142 40.9517C30.3539 41.1464 30.2806 41.3362 30.235 41.5342C30.072 42.2269 29.5897 42.5206 28.9248 42.5871C28.6918 42.6098 28.4571 42.6228 28.2225 42.6228C26.1301 42.626 24.0377 42.6244 21.9454 42.6244C21.8753 42.6244 21.8052 42.6244 21.714 42.6244C21.8395 42.2204 21.9584 41.8392 22.0774 41.4579C22.154 41.2129 22.2403 40.9695 22.3055 40.7213C22.4571 40.1389 22.8579 39.8452 23.4316 39.7592C23.6792 39.7219 23.9335 39.7057 24.186 39.7057C26.3257 39.7024 28.4669 39.7057 30.6065 39.7073C30.6587 39.7057 30.7108 39.7105 30.7988 39.7154Z" fill="#333333"/>
</g>
<defs>
<clipPath id="clip0_234_534">
<rect width="94" height="75" fill="white"/>
</clipPath>
</defs>
</svg>
