<svg id="svg" xmlns="http://www.w3.org/2000/svg" xmlns:xlink="http://www.w3.org/1999/xlink" width="400" height="462.4390243902439" viewBox="0, 0, 400,462.4390243902439"><g id="svgg"><path id="path0" d="M323.164 13.520 C 314.367 18.092,307.806 32.541,310.204 42.063 L 310.989 45.179 308.502 47.079 C 295.772 56.812,274.778 84.595,265.729 103.685 C 252.324 131.964,225.670 149.801,196.748 149.848 C 183.488 149.870,155.183 139.564,148.047 132.116 C 141.216 124.986,135.152 82.319,138.236 63.089 C 140.794 47.138,140.142 41.674,134.996 35.950 C 125.408 25.286,106.735 27.146,92.960 40.137 L 88.677 44.176 84.282 43.492 C 70.573 41.357,55.950 52.204,52.441 67.110 C 52.116 68.491,51.034 69.333,47.239 71.158 C 37.012 76.077,30.626 86.759,28.843 101.930 C 28.496 104.879,28.120 105.588,26.090 107.114 C 18.146 113.086,14.332 121.107,14.317 131.874 C 14.310 136.716,15.905 150.105,16.567 150.768 C 16.715 150.915,15.847 152.472,14.639 154.228 C 7.545 164.540,7.578 175.869,14.741 190.132 C 17.646 195.915,17.662 195.986,16.655 198.308 C 11.580 210.009,14.957 222.501,26.543 234.887 L 30.514 239.131 30.933 246.232 C 32.072 265.555,36.572 271.512,55.565 278.840 C 65.617 282.718,64.536 281.716,71.553 293.659 C 84.827 316.248,104.792 333.231,130.053 343.423 C 146.207 349.940,149.844 352.088,157.073 359.377 C 164.360 366.726,168.641 369.450,177.986 372.690 C 190.614 377.067,192.538 383.768,183.891 393.258 C 181.653 395.714,179.457 398.196,179.010 398.774 C 178.307 399.683,178.983 400.423,184.017 404.262 L 189.836 408.700 184.511 414.474 C 176.579 423.077,176.901 422.109,180.549 426.380 C 189.103 436.391,195.664 438.787,208.082 436.432 C 211.051 435.869,211.916 435.979,215.163 437.337 C 225.441 441.635,253.085 448.140,260.971 448.116 C 270.961 448.086,276.423 442.603,276.423 432.605 L 276.423 428.094 280.813 426.747 C 284.326 425.668,296.992 419.322,298.359 417.955 C 298.534 417.781,297.767 416.049,296.655 414.106 C 293.981 409.432,293.907 409.535,299.576 410.066 C 304.187 410.498,304.493 410.449,304.153 409.330 C 303.953 408.670,302.883 404.764,301.776 400.650 C 298.007 386.653,294.900 383.854,281.135 382.054 C 265.018 379.947,244.548 375.633,241.645 373.731 C 238.673 371.783,236.873 367.187,238.415 365.484 C 242.935 360.489,261.127 350.661,273.334 346.619 C 286.017 342.419,291.767 338.639,306.016 325.136 C 309.951 321.407,315.951 316.124,319.350 313.395 C 363.948 277.588,380.906 214.093,363.811 146.923 L 361.559 138.074 363.544 130.430 C 364.635 126.226,365.528 121.116,365.528 119.074 C 365.528 115.434,365.578 115.334,368.074 113.931 C 374.597 110.265,379.364 102.482,380.223 94.094 L 380.652 89.910 383.587 89.508 C 385.202 89.287,387.653 89.106,389.034 89.106 L 391.545 89.106 391.545 82.392 C 391.545 74.320,390.515 70.823,386.943 66.766 C 384.902 64.447,384.390 63.355,384.390 61.320 C 384.390 39.773,368.695 21.348,346.016 16.270 C 344.049 15.830,340.709 14.623,338.595 13.588 C 333.292 10.993,328.072 10.970,323.164 13.520 M339.704 37.720 C 355.154 41.529,361.056 48.436,362.223 64.076 C 362.523 68.092,363.068 71.912,363.433 72.565 C 363.950 73.488,363.745 74.216,362.511 75.833 C 360.184 78.885,358.374 84.629,358.374 88.965 C 358.374 93.799,357.614 94.772,352.867 96.011 C 340.704 99.188,335.958 108.009,341.843 116.501 L 343.634 119.085 341.838 125.396 C 338.956 135.524,338.931 139.821,341.693 150.244 C 357.741 210.807,343.936 264.649,304.065 297.002 C 300.488 299.905,293.759 305.851,289.112 310.216 C 278.372 320.303,274.762 322.654,265.396 325.661 C 244.616 332.331,220.343 348.318,215.633 358.435 C 211.384 367.563,218.213 384.926,228.845 392.026 L 232.670 394.581 231.685 396.461 C 228.552 402.440,230.802 412.508,236.046 415.978 C 237.378 416.859,238.937 418.565,239.511 419.768 L 240.554 421.956 235.562 420.687 C 232.816 419.990,227.642 418.290,224.065 416.910 C 220.488 415.530,216.729 414.222,215.713 414.003 C 214.298 413.697,213.969 413.344,214.306 412.493 C 216.740 406.362,216.193 398.229,213.032 393.532 C 211.001 390.513,210.895 390.078,211.216 386.073 C 212.436 370.872,203.436 358.049,187.642 352.485 C 179.171 349.501,177.420 348.451,173.605 344.065 C 166.866 336.317,158.352 330.898,143.415 324.851 C 114.889 313.303,101.665 301.735,86.533 275.095 C 82.097 267.285,76.848 263.179,65.795 258.871 C 52.544 253.707,53.590 255.259,52.798 239.584 C 52.236 228.464,51.394 226.292,46.186 222.519 C 37.395 216.150,35.131 210.039,39.163 203.554 C 43.126 197.179,42.508 190.294,37.416 184.087 C 31.064 176.343,30.169 170.273,34.631 165.203 C 40.190 158.886,41.253 153.306,38.447 145.164 C 34.892 134.847,35.928 127.177,41.301 124.048 C 48.304 119.970,50.001 117.039,50.776 107.681 C 51.798 95.322,53.663 91.995,60.761 89.866 C 68.259 87.616,71.968 83.512,73.498 75.772 C 75.102 67.657,78.213 64.608,83.389 66.078 C 93.263 68.880,96.398 68.814,100.680 65.713 C 102.096 64.687,104.311 62.108,105.602 59.983 C 107.916 56.175,110.759 53.776,114.980 52.070 C 117.759 50.947,117.730 50.859,116.552 56.911 C 113.048 74.908,115.765 104.900,123.238 130.726 C 128.275 148.132,140.558 157.947,168.780 167.116 C 213.963 181.796,264.724 159.376,284.608 115.957 C 293.624 96.271,313.795 69.863,324.837 63.290 C 335.481 56.954,338.616 48.305,333.458 39.504 C 331.774 36.630,331.786 35.414,333.491 36.068 C 333.973 36.253,336.769 36.997,339.704 37.720 " stroke="none" fill="#000000" fill-rule="evenodd"></path></g></svg>