<svg width="26" height="22" viewBox="0 0 26 22" fill="none" xmlns="http://www.w3.org/2000/svg">
<g clip-path="url(#clip0_72_103)">
<path d="M2.58264 0.109805C2.51939 0.0732037 2.45614 0.035458 2.39172 0C2.39407 0.0366018 2.46551 0.0732037 2.58264 0.109805Z" fill="black"/>
<path d="M8.93568 7.59487C8.79045 6.96692 8.45429 6.37786 8.19661 5.77507C8.00569 5.32899 7.87099 4.86918 7.96587 4.38992C8.06191 3.90152 8.20364 3.42112 8.34068 2.94072C8.39807 2.73941 8.41798 2.55526 8.24814 2.40199C8.07714 2.24643 7.87216 2.25901 7.67656 2.34823C7.27716 2.53009 6.87775 2.71196 6.49123 2.9167C6.27571 3.03108 6.08714 3.19121 5.87162 3.33991C5.85874 3.28386 5.8482 3.24612 5.84234 3.20723C5.83649 3.16033 5.84 3.11343 5.83063 3.06768C5.74044 2.61359 5.59403 2.19038 5.39491 1.79348C5.15012 1.30279 4.73549 0.724021 4.68981 0.977946C4.63476 1.28334 4.51529 1.55099 4.35365 1.79234C4.16624 2.07028 3.92262 2.31277 3.64971 2.53695C3.19994 2.9064 2.75017 3.27814 2.43861 3.76312C2.29572 3.98501 2.11534 4.11426 1.8846 4.24237C0.959289 4.75022 0.413474 5.54746 0.138224 6.50825C-0.0843183 7.2849 -0.00350021 8.07413 0.137053 8.85649C0.342026 9.99458 1.17129 12.2502 3.51384 12.583C3.65557 12.6036 3.89568 12.6333 4.03038 12.6185C4.03389 12.6185 4.0374 12.6173 4.04092 12.6173C4.46024 12.5659 4.52114 11.9356 4.09948 11.9356C3.51384 11.9356 2.57682 11.7069 1.66674 10.5299C0.94172 9.59424 0.669984 8.33834 0.873786 7.00123C0.939378 6.57002 1.17129 5.64582 1.75693 5.30268C1.6398 5.41706 1.61052 5.89975 1.61403 6.02671C1.62926 6.63636 1.75927 7.21741 2.0802 7.75272C2.26995 8.06955 2.64007 8.12102 2.86027 7.85909C3.00082 7.69095 2.96334 7.51023 2.88018 7.33179C2.66233 6.86283 2.41401 6.27148 2.47141 5.74533C2.57682 4.77081 3.14841 4.10397 3.91559 3.45772C4.21661 3.20379 4.50709 2.935 4.77531 2.64905C4.85847 2.56097 4.93929 2.47061 5.01776 2.37911C4.98028 2.42257 4.9428 2.46604 4.90415 2.50836C4.82685 2.59415 4.79756 2.71196 4.83036 2.82062C4.95569 3.25183 5.00254 3.70478 4.96271 4.18175C4.93929 4.46084 4.88775 4.73878 4.86901 5.01787C4.85613 5.20546 4.99902 5.3633 5.18877 5.41706C5.36329 5.46625 5.57998 5.38618 5.67953 5.22376C5.73927 5.12653 5.78846 5.0213 5.83649 4.91722C6.11291 4.31558 6.56736 3.86949 7.1776 3.52978C7.1694 3.5904 7.16471 3.62929 7.15769 3.66818C7.15183 3.70135 7.1448 3.73338 7.1366 3.7654C7.01128 4.30071 6.95857 4.84516 7.1202 5.3736C7.26076 5.83112 7.43059 6.2875 7.65782 6.71185C8.16147 7.65435 8.24112 8.65404 7.92839 9.65143C7.51961 10.9542 6.56502 11.581 5.34806 11.8956C5.24265 11.923 5.15832 11.9951 5.12084 12.0923L5.11849 12.0992C5.0365 12.3165 5.15363 12.6242 5.50501 12.6242C6.89649 12.6242 8.20246 11.3283 8.68269 10.2096C9.08912 9.2614 9.07975 8.22053 8.93568 7.59487Z" fill="black"/>
<path d="M16.6568 5.68703C15.5769 5.68703 14.5286 5.68589 13.4803 5.69047C13.4287 5.69047 13.3608 5.73393 13.328 5.77739C13.0762 6.11024 12.6908 6.96581 12.4894 7.5583C11.9201 9.23169 11.3755 10.2726 10.5603 11.7687C10.025 12.7512 9.08916 14.6934 7.27017 17.3024C6.32261 18.6612 3.14025 20.8539 2.95284 21.0095C2.96221 21.0404 2.97275 21.0232 2.98213 21.0541C3.96131 20.934 4.94987 20.8665 5.91617 20.6846C8.63939 20.1734 11.1319 19.0959 13.451 17.6227C15.3965 16.3874 17.1405 14.9187 18.7276 13.2739C19.3894 12.5888 20.0055 11.8613 20.6309 11.1441C20.693 11.0732 20.7129 10.9257 20.686 10.8307C20.5501 10.34 20.3955 9.85393 20.2444 9.36666C20.1062 8.92172 19.9645 8.47678 19.8192 8.01926C19.5697 8.08331 19.3425 8.1405 19.1165 8.20227C18.4032 8.39786 17.6922 8.59917 16.9789 8.79018C16.4705 8.9263 16.1637 8.64606 16.2492 8.14279C16.3874 7.33526 16.5186 6.52544 16.6568 5.68703ZM21.4133 9.6652C22.1208 7.76419 21.4953 5.52576 19.4784 4.3911C17.8679 3.4852 15.7608 3.81576 14.6398 4.67934C14.7394 4.67934 14.8284 4.67934 14.9186 4.67934C15.6729 4.67934 16.426 4.67591 17.1803 4.68048C17.5868 4.68277 17.8363 4.94356 17.7765 5.29814C17.7062 5.71334 17.6278 6.1274 17.5563 6.54375C17.4966 6.89375 17.4415 7.2449 17.3806 7.6235C17.4802 7.60062 17.5423 7.58804 17.6032 7.57089C18.3633 7.36386 19.1235 7.15568 19.8836 6.94865C20.3369 6.82512 20.556 6.9395 20.6953 7.37873C20.9319 8.12792 21.1662 8.87826 21.4133 9.6652ZM22.1009 5.61154C22.6127 6.43623 22.7861 7.37301 22.7381 8.32809C22.6643 9.8402 22.0517 11.1453 21.035 12.2799C19.9996 13.4363 18.9443 14.5721 17.7777 15.6061C14.887 18.1671 11.6625 20.1665 7.8886 21.2508C6.08367 21.769 4.24125 22.0378 2.35666 21.9966C2.03808 21.9897 1.71832 21.9726 1.39973 21.9417C1.046 21.9074 0.870313 21.7747 0.825805 21.5162C0.780125 21.2417 0.933562 21.0701 1.16313 20.9363C2.63191 20.0796 5.04826 18.4359 6.10358 17.14C5.32936 18.0905 7.06988 16.2101 8.71787 13.2739C9.70525 11.5147 9.90554 10.7381 10.9035 8.98463C11.4809 7.96893 11.5992 6.43737 12.2692 5.48C13.2121 4.13374 14.5461 3.29419 16.1812 2.96591C17.6477 2.67081 19.0392 2.91216 20.3252 3.72426C20.7937 3.01624 21.3946 2.49123 22.1571 2.14924C23.0648 1.74204 24.0077 1.66197 24.9787 1.86557C25.1848 1.90904 25.3851 1.97767 25.5854 2.04401C25.8665 2.1378 25.993 2.30823 25.9965 2.59875L25.7681 2.91444C25.6334 3.10088 25.3746 3.15579 25.1731 3.03912L24.9529 2.91216C23.415 2.42718 21.76 3.17638 21.151 4.37966C21.2107 4.44257 21.2775 4.50091 21.3477 4.58555C21.5562 4.82803 21.9346 5.3416 22.1009 5.61154Z" fill="black"/>
<path d="M10.9491 15.0102C10.5392 15.0068 10.2967 14.6934 10.4209 14.372C10.5122 14.1352 10.6446 13.9144 10.7629 13.688C11.4247 12.4172 11.5617 12.4721 12.186 11.1842C12.5397 10.4544 12.6205 8.83593 13.1956 8.22743C13.4041 8.00667 13.636 7.95063 13.8703 8.07301C14.0811 8.18282 14.1783 8.3624 14.1338 8.59002C14.1127 8.6941 13.8855 9.03953 13.8422 9.13676C13.3011 10.3389 13.3444 11.31 12.8946 12.1587C12.2364 13.402 12.0607 13.3952 11.4118 14.6431C11.3017 14.8524 11.1623 15.0182 10.9491 15.0102Z" fill="black"/>
</g>
<defs>
<clipPath id="clip0_72_103">
<rect width="26" height="22" fill="white"/>
</clipPath>
</defs>
</svg>
