<svg id="svg" xmlns="http://www.w3.org/2000/svg" xmlns:xlink="http://www.w3.org/1999/xlink" width="400" height="289.9244332493703" viewBox="0, 0, 400,289.9244332493703"><g id="svgg"><path id="path0" d="M343.955 7.195 C 342.292 8.357,339.925 10.015,338.694 10.879 C 337.463 11.744,335.593 13.239,334.538 14.201 C 330.178 18.179,325.851 20.895,316.990 25.217 C 309.664 28.790,307.824 30.496,307.805 33.735 C 307.798 34.855,307.546 34.964,304.279 35.262 C 297.021 35.924,288.496 37.848,281.828 40.331 C 276.394 42.354,275.705 42.468,265.113 43.078 C 241.429 44.444,240.697 44.514,219.018 47.502 C 176.251 53.396,171.487 53.479,141.046 48.868 C 104.626 43.350,87.070 43.407,69.819 49.098 C 50.605 55.436,39.552 67.501,37.782 84.067 C 37.630 85.487,37.331 87.067,37.118 87.579 C 36.875 88.159,36.694 89.547,36.637 91.266 C 36.410 98.080,33.997 103.572,26.602 114.104 C 20.305 123.072,17.127 129.429,13.570 140.176 C 11.603 146.121,10.887 147.501,8.619 149.714 C 1.781 156.390,3.123 175.509,11.069 184.619 C 13.467 187.368,13.384 187.183,14.479 192.185 C 14.843 193.851,15.492 195.878,16.010 196.968 L 16.908 198.859 18.127 197.541 C 19.602 195.945,19.503 195.949,22.390 197.355 C 28.643 200.398,30.436 197.540,25.979 191.636 C 22.633 187.205,22.163 183.035,23.784 172.168 C 25.549 160.330,24.946 152.975,22.004 150.462 C 19.604 148.411,19.396 147.154,20.659 142.317 C 22.217 136.347,24.306 132.275,31.704 120.781 C 33.577 117.872,36.200 113.659,37.533 111.420 L 39.957 107.349 40.634 112.302 C 41.966 122.056,42.583 130.160,42.536 137.280 C 42.501 142.533,42.512 142.494,40.679 143.522 C 36.708 145.749,34.339 151.885,33.122 163.098 C 32.896 165.176,32.262 169.824,31.712 173.426 C 29.963 184.896,29.938 184.354,33.221 207.053 C 35.865 225.332,36.553 234.391,36.027 243.987 C 35.580 252.136,36.441 255.032,39.714 256.388 C 40.433 256.686,40.466 256.780,40.986 260.022 C 42.145 267.242,44.190 269.845,50.281 271.853 C 55.629 273.616,62.431 274.043,67.380 272.927 C 77.743 270.589,78.465 261.211,69.130 250.226 C 66.602 247.252,66.172 246.211,65.614 241.716 C 63.721 226.481,63.549 217.227,65.028 210.345 C 65.925 206.171,65.848 206.171,67.369 210.327 C 68.104 212.336,69.868 216.870,71.288 220.403 C 72.709 223.936,75.451 231.587,77.382 237.406 C 81.564 250.006,82.384 251.497,85.579 252.304 C 85.976 252.405,86.146 252.635,86.146 253.071 C 86.146 258.696,90.872 265.172,96.208 266.857 C 101.654 268.578,113.952 268.376,117.617 266.507 C 125.066 262.706,122.725 254.909,110.044 241.277 C 102.432 233.094,99.396 226.803,96.569 213.350 C 94.848 205.160,97.249 198.036,104.633 189.421 C 108.753 184.613,110.632 182.014,111.688 179.658 C 112.251 178.402,112.029 178.426,115.936 179.200 C 122.095 180.421,137.689 182.767,151.259 184.513 C 166.121 186.426,168.887 186.684,176.700 186.894 C 183.681 187.080,184.545 187.154,188.035 187.865 C 198.839 190.063,215.807 190.839,224.964 189.554 L 225.873 189.426 226.050 192.005 C 226.295 195.568,226.808 199.385,227.955 206.171 C 230.649 222.114,231.207 234.257,229.560 241.079 C 228.093 247.158,228.763 251.750,231.549 254.694 C 232.327 255.517,232.431 255.798,232.572 257.472 C 233.395 267.200,238.812 272.029,250.898 273.807 C 259.862 275.126,264.339 273.597,266.911 268.340 L 267.581 266.971 268.614 267.144 C 269.182 267.240,270.214 267.475,270.907 267.667 C 278.495 269.772,288.155 269.386,291.159 266.859 C 295.407 263.284,293.074 255.883,284.774 246.599 C 275.541 236.273,274.322 227.036,278.592 199.748 C 280.036 190.520,280.536 186.630,280.768 182.803 L 280.936 180.040 282.061 179.378 C 287.662 176.080,293.338 170.436,296.819 164.703 C 297.873 162.966,298.193 162.654,300.250 161.350 C 309.937 155.209,316.185 147.819,320.272 137.670 C 322.609 131.866,323.984 130.086,327.494 128.318 C 329.823 127.146,332.260 124.820,333.756 122.344 L 334.886 120.473 338.287 120.323 C 343.510 120.092,347.190 119.225,355.668 116.225 L 359.068 115.022 365.743 114.853 C 371.979 114.696,372.564 114.640,374.634 114.015 C 384.076 111.162,390.420 103.119,390.426 93.991 C 390.430 88.759,389.461 86.928,383.606 81.108 C 380.404 77.926,378.460 75.737,376.613 73.237 C 375.207 71.332,372.894 68.230,371.474 66.344 C 370.054 64.458,368.744 62.713,368.564 62.467 C 368.384 62.220,367.962 60.675,367.628 59.032 C 365.812 50.121,361.440 42.921,355.002 38.234 L 353.454 37.108 355.244 35.620 C 358.206 33.155,360.625 29.690,361.703 26.368 C 362.021 25.387,364.204 14.040,364.100 13.906 C 364.023 13.807,355.197 19.613,351.763 22.023 C 348.437 24.357,345.944 25.600,344.103 25.841 L 342.741 26.020 343.506 24.660 C 345.399 21.294,345.756 19.838,346.719 11.587 C 347.405 5.711,347.452 5.026,347.166 5.060 C 347.062 5.073,345.617 6.034,343.955 7.195 M331.105 28.055 C 330.044 29.675,339.210 34.485,343.393 34.504 C 344.307 34.509,344.335 34.535,344.148 35.202 C 343.190 38.627,344.597 41.630,348.337 44.142 C 354.492 48.278,357.728 53.359,359.328 61.402 C 360.093 65.247,360.657 66.542,362.642 69.018 C 363.475 70.057,365.692 73.004,367.570 75.567 C 372.113 81.769,374.476 84.550,378.079 87.935 C 382.119 91.729,382.688 93.424,381.254 97.376 C 378.923 103.797,374.298 106.287,364.689 106.294 C 358.414 106.298,357.651 106.435,350.630 108.826 C 343.750 111.168,341.698 111.595,336.272 111.817 C 330.614 112.049,328.964 112.884,327.194 116.411 C 326.020 118.749,324.859 119.973,322.831 121.011 C 317.960 123.505,315.272 126.892,312.360 134.209 C 308.936 142.814,304.149 148.415,295.178 154.314 C 291.897 156.472,291.242 157.129,289.558 159.950 C 286.837 164.507,283.241 168.178,278.289 171.452 C 273.253 174.782,272.713 175.673,272.286 181.368 C 271.903 186.473,271.556 189.097,269.653 201.259 C 265.347 228.773,267.330 239.522,279.303 253.581 C 281.276 255.898,283.423 258.872,283.764 259.761 C 284.097 260.629,278.061 260.644,274.878 259.783 C 274.079 259.568,272.250 259.137,270.812 258.827 C 269.290 258.498,268.114 258.111,267.995 257.898 C 267.883 257.698,266.844 256.235,265.687 254.648 C 261.020 248.246,261.019 248.244,260.438 238.882 C 259.626 225.804,258.985 221.471,256.290 210.855 C 254.750 204.790,254.529 204.054,254.320 204.303 C 253.819 204.901,248.562 215.575,248.260 216.607 C 247.709 218.489,247.753 221.166,248.374 223.404 C 248.851 225.127,248.885 225.903,248.849 234.104 C 248.787 248.129,250.068 252.418,256.366 259.268 C 261.420 264.766,260.073 266.512,251.763 265.234 C 243.450 263.956,241.028 261.605,241.036 254.820 C 241.039 252.192,240.741 251.465,238.999 249.856 C 237.065 248.069,236.957 247.423,237.906 243.325 C 239.824 235.047,239.247 220.386,236.376 204.433 C 235.492 199.527,235.086 196.484,234.522 190.565 C 233.580 180.673,233.091 180.381,219.144 181.353 C 209.724 182.010,199.000 181.287,189.043 179.323 C 185.305 178.586,184.464 178.514,177.456 178.330 C 171.996 178.186,168.361 177.949,164.358 177.477 C 146.229 175.340,126.497 172.481,117.003 170.615 C 109.843 169.208,106.875 170.204,104.533 174.801 C 103.269 177.279,101.701 179.487,98.615 183.130 C 90.869 192.273,88.095 198.135,87.506 206.605 C 87.030 213.451,90.254 226.274,94.576 234.722 C 97.149 239.753,98.851 242.006,105.399 249.051 C 109.519 253.483,113.085 258.535,112.505 259.116 C 112.066 259.555,100.985 259.352,99.450 258.877 C 96.415 257.938,95.204 255.930,94.456 250.591 C 93.969 247.115,92.454 245.076,89.807 244.335 L 88.659 244.013 86.358 236.931 C 83.470 228.038,81.776 223.321,78.839 215.995 C 74.036 204.015,72.688 199.699,70.753 190.113 C 70.145 187.100,69.591 184.641,69.521 184.649 C 69.343 184.668,63.222 193.034,62.127 194.755 C 55.535 205.114,54.153 216.403,56.690 239.166 C 57.794 249.066,58.433 250.938,62.298 255.592 C 65.344 259.260,67.664 263.401,67.033 264.046 C 65.754 265.354,58.123 265.229,53.435 263.823 C 50.144 262.835,49.931 262.479,49.240 256.801 C 48.647 251.934,47.867 250.408,45.307 249.102 L 44.296 248.586 44.488 246.900 C 45.470 238.328,44.429 224.368,41.125 201.763 C 38.704 185.202,38.679 184.407,40.249 174.307 C 40.820 170.636,41.409 166.385,41.557 164.861 C 42.309 157.161,43.938 151.550,45.670 150.702 C 47.395 149.858,49.029 148.229,49.863 146.523 C 52.239 141.663,51.360 124.237,47.556 100.756 C 45.630 88.872,45.762 83.460,48.126 77.330 C 53.870 62.434,73.224 53.405,99.413 53.401 C 110.434 53.400,119.354 54.323,144.458 58.063 C 170.955 62.011,178.005 61.812,221.033 55.909 C 238.505 53.513,239.019 53.446,242.317 53.151 C 243.911 53.008,252.358 52.442,261.090 51.893 C 278.914 50.771,278.972 50.763,284.938 48.408 C 290.295 46.294,298.530 44.418,305.038 43.830 C 312.170 43.184,314.719 41.507,315.992 36.619 C 316.197 35.832,316.395 35.165,316.432 35.136 C 316.469 35.107,319.049 33.830,322.166 32.298 C 325.283 30.766,328.571 29.061,329.471 28.508 C 331.409 27.320,331.626 27.259,331.105 28.055 " stroke="none" fill="#000000" fill-rule="evenodd"></path></g></svg>