<svg width="260" height="175" viewBox="0 0 260 175" fill="none" xmlns="http://www.w3.org/2000/svg">
<path d="M259.641 74.2269C258.894 72.7278 257.993 71.2784 256.979 69.9446C255.106 67.481 253.917 64.7805 253.514 61.707C253.195 59.2747 252.084 57.2538 250.191 55.6757C248.386 54.1711 246.495 52.7566 244.816 51.1215C243.341 49.6831 241.896 48.1252 240.814 46.3854C239.304 43.9531 239.677 42.1086 241.589 39.9813C242.002 39.5183 242.447 39.0811 242.832 38.5942C244.272 36.7626 244.346 34.8925 243.009 32.9818C241.832 31.2991 241.186 29.4454 241.043 27.4062C240.948 26.032 240.981 24.6395 240.754 23.2892C240.529 21.9536 240.214 20.5813 239.635 19.3725C238.974 17.991 237.814 17.1422 236.089 17.3627C235.154 17.4821 234.191 17.3847 233.265 17.3847C232.805 14.0044 232.02 13.1704 228.497 12.2243C230.35 10.9548 232.164 9.84154 233.821 8.52617C234.806 7.74355 235.663 6.72396 236.36 5.66761C237.356 4.1575 237.188 2.29651 236.164 1.06564C235.295 0.0166453 234.143 -0.135835 232.902 0.0956413C231.74 0.312421 232.086 1.32467 232.001 2.04115C231.844 3.3804 231.112 4.12995 229.832 4.0583C228.223 3.96828 227.06 4.71599 225.883 5.63271C222.982 7.89052 220.016 10.0657 217.138 12.3529C215.617 13.5617 214.141 14.8569 212.799 16.2604C212.204 16.8832 211.88 17.4343 211.792 17.9947C211.681 18.7001 211.937 19.4221 212.497 20.3204C212.724 20.686 212.764 21.1674 212.975 21.5476C212.999 21.5917 213.024 21.6377 213.048 21.6836L212.797 25.909C212.79 25.9126 212.783 25.9181 212.775 25.9237C211.851 26.427 210.961 26.9635 210.112 27.5495C208.435 28.7069 206.921 30.059 205.647 31.7638C204.283 33.5899 202.277 34.2825 199.964 33.7571C199.446 33.6395 198.921 33.555 198.395 33.4797C196.64 33.228 195.64 33.7387 194.837 35.3425C194.5 36.0149 194.26 36.7369 193.938 37.4185C192.861 39.6983 191.131 40.819 188.552 41.0725C187.256 41.1993 185.961 41.4803 184.689 41.8459C184.233 41.9764 183.783 42.1197 183.334 42.2685C182.944 42.3989 182.556 42.5349 182.172 42.6763C180.387 43.334 179.922 44.6273 180.489 46.4644C180.85 47.6292 181.425 48.7278 181.892 49.83C177.084 51.0333 173.469 53.5998 171.878 58.4957C169.59 57.9538 165.467 59.5576 165.956 60.0756C166.439 60.5882 166.693 61.2881 166.651 61.9936L165.848 75.2153C167.955 75.2153 169.954 75.2171 171.827 75.2171C173.895 75.2171 174.624 75.9667 174.626 78.083C174.628 82.5454 174.626 87.0077 174.626 91.4683C174.626 91.8632 174.626 92.2582 174.626 92.7745C175.102 92.7745 175.49 92.7745 175.88 92.7745C181.784 92.7745 187.688 92.802 193.592 92.7542C194.895 92.7432 195.77 93.197 196.517 94.2607C202.648 102.983 208.823 111.673 214.952 120.395C215.353 120.967 215.997 121.321 216.693 121.343C226.445 121.663 234.654 129.269 235.63 139.022C235.807 140.798 235.833 142.59 235.837 144.383C236.576 144.414 237.343 144.351 238.138 144.186C241.008 143.587 243.394 141.151 244.071 138.329C244.146 138.015 244.207 137.699 244.238 137.378C244.252 137.234 244.263 137.091 244.274 136.946C244.397 135.46 244.399 133.911 244.066 132.489C243.185 128.74 242.013 125.058 240.997 121.338C240.459 119.365 239.811 117.318 240.571 115.325C241.18 113.727 241.01 112.345 240.122 111.052C239.406 110.007 238.592 108.952 237.601 108.19C235.377 106.476 233.658 104.387 232.3 101.956C231.998 101.416 231.646 100.9 231.278 100.4C230.394 99.1952 229.182 98.6 227.802 99.2595C226.108 100.07 224.384 100.924 222.886 102.037C222.78 102.116 222.672 102.193 222.568 102.274C222.227 102.542 221.89 102.772 221.561 102.963C218.98 104.468 216.779 103.641 215.617 100.459C214.209 96.6067 214.352 92.8553 216.034 89.0708C217.07 86.7377 218.101 84.3017 218.507 81.8105C218.679 80.7542 218.956 79.786 219.324 78.8859C219.52 78.4064 219.743 77.9453 219.99 77.5043C221.017 75.6746 222.474 74.1498 224.281 72.7885C225.973 71.5135 227.606 70.121 229.085 68.6072C229.211 68.4786 229.33 68.3482 229.446 68.2159C230.114 67.459 230.623 66.658 230.969 65.8111C231.578 64.3175 231.679 62.6825 231.26 60.9042C231.21 60.6929 231.154 60.4798 231.09 60.2649C230.612 58.6684 230.346 56.9783 230.211 55.3065L230.354 52.9127C230.654 51.6488 231.278 50.5079 231.943 49.3818C232.847 47.8533 233.827 46.3469 234.173 44.5887C234.52 45.1601 234.716 45.6984 234.932 46.2293C236.336 49.6739 237.75 53.1166 239.152 56.5631C240.1 58.8944 241.422 61.1522 241.9 63.5772C242.85 68.3959 245.603 71.6164 249.702 73.9054C251.169 74.7248 252.642 75.579 254.209 76.1467C255.425 76.5876 256.793 76.7842 258.092 76.7769C259.888 76.764 260.445 75.8362 259.641 74.2269Z" fill="white"/>
<path d="M51.922 123.765C48.8245 123.765 47.9238 123.77 44.8244 123.763C43.2134 123.759 42.223 123.489 42.1955 122.165C42.1681 120.798 43.1841 120.484 44.8464 120.48C47.9439 120.475 48.8446 120.478 51.944 120.478C52.2991 120.478 52.6561 120.478 53.0589 120.478V113.914C52.6396 113.914 52.2186 113.914 51.7975 113.914C38.677 113.914 29.9501 113.914 16.8295 113.912C16.4286 113.912 16.0222 113.936 15.6286 113.877C14.5228 113.707 13.7338 113.471 13.7723 112.378C13.8089 111.328 14.6016 110.804 15.6689 110.657C16.0625 110.604 16.4689 110.628 16.8698 110.628C29.9537 110.626 38.644 110.626 51.7279 110.626C52.1563 110.626 52.5847 110.626 53.0589 110.626V96.5883C52.7092 96.5718 52.3614 96.5406 52.0117 96.5406C49.0954 96.5369 46.181 96.5387 43.2647 96.5387C41.0477 96.5387 40.017 96.4046 39.9969 94.9239C39.9768 93.4138 41.0422 93.2521 43.3214 93.2521C46.527 93.2521 49.7325 93.2521 53.1119 93.2521C53.1119 92.8314 53.1119 91.8963 53.1119 91.5142C53.1119 86.9784 53.1083 82.4444 53.1138 77.9085C53.1156 75.895 53.8717 75.1455 55.9019 75.1455C58.0768 75.1455 60.4219 75.1455 62.9098 75.1455L62.8329 60.0646C61.9743 60.8436 60.4915 63.6837 59.5944 64.4149C59.0342 64.8724 58.269 65.0763 57.4031 65.4878C57.4031 64.8007 57.3537 64.4921 57.4104 64.2036C57.8278 62.0726 55.9404 61.4461 56.4255 59.3298C56.8173 57.6286 59.177 54.4982 58.9262 52.9697C58.8493 52.5012 58.7413 52.0401 58.6004 51.5863C58.1152 50.0266 57.2493 48.5698 55.9697 47.2213C54.0072 45.1546 51.7463 44.8147 49.2016 46.0676C47.0707 47.1166 45.6977 48.8931 44.6084 50.9084C43.4038 53.1332 41.6244 54.6506 39.4678 55.9403C37.7122 56.9893 36.1799 58.4424 34.6586 59.8368C34.2851 60.1804 34.135 61.0328 34.2357 61.5858C34.5634 63.3825 34.146 64.1963 32.33 64.4957C31.3798 64.6519 30.3803 64.4847 29.4192 64.6023C27.6379 64.8191 25.7633 64.8521 24.1138 65.4676C19.3119 67.2569 15.4071 70.5123 11.6029 73.8467C10.3104 74.9802 10.1329 76.6115 10.2354 78.2723C10.3269 79.7346 10.38 81.1988 10.4111 82.663C10.4624 84.9814 9.46648 86.7634 7.57904 88.0733C6.77903 88.6281 5.94424 89.1462 5.20281 89.7726C3.81331 90.9484 3.58631 92.5338 4.56756 94.0494C5.0472 94.7916 5.55247 95.5485 6.18223 96.1566C6.45866 96.4248 6.68017 96.6949 6.8486 96.9704C6.65271 97.0862 6.47148 97.2295 6.31038 97.4003C5.84721 97.8945 5.61288 98.5393 5.65316 99.2172L6.02662 105.517C6.04309 105.794 6.1749 106.053 6.38726 106.23C6.59779 106.404 6.87423 106.483 7.14334 106.446C7.15615 106.444 7.16897 106.444 7.18361 106.446C7.24403 106.454 7.29346 106.505 7.30078 106.564C7.30627 106.606 7.29346 106.645 7.26783 106.674C7.23853 106.707 7.20375 106.716 7.15798 106.72C6.88338 106.72 6.61976 106.834 6.4312 107.032C6.24447 107.231 6.14561 107.501 6.16209 107.775L6.57766 114.794C4.98496 115.514 3.57349 116.591 2.184 117.704C0.142783 119.343 -0.432053 121.549 0.292899 124.053C0.649884 125.286 1.0801 126.506 1.57438 127.689C3.63391 132.607 5.49572 137.55 6.10168 142.935C6.34333 145.073 7.23121 147.214 8.19049 149.174C9.0619 150.952 10.8377 151.353 12.7892 150.728C14.2794 150.252 14.9036 149.211 14.9 147.149C14.8981 146.574 14.8066 145.999 14.7883 145.423C14.7462 144.137 14.6052 142.84 14.7187 141.566C14.9256 139.255 16.694 138.065 18.9311 138.588C19.4053 138.699 19.8666 138.904 20.3444 138.945C20.9962 138.998 21.7101 139.094 22.3033 138.892C22.6969 138.757 23.0264 138.561 23.2937 138.326C23.7221 137.947 23.9802 137.464 24.0369 136.942C24.1047 136.332 23.9033 135.675 23.3816 135.087C21.8694 133.382 21.3788 131.372 21.1719 129.228C21.0584 128.045 21.1371 126.723 22.2191 126.098C24.7381 124.641 27.4347 123.693 30.3766 124.836C31.7222 125.358 31.8284 125.279 32.3776 123.921C32.643 123.261 33.1977 122.374 33.7652 122.251C33.8458 122.233 33.9245 122.22 34.005 122.205C34.4792 122.124 34.9424 122.117 35.3854 122.187C36.3373 122.334 37.1996 122.835 37.8806 123.752C38.4884 124.569 39.0394 125.475 39.8028 126.12C43.3983 129.162 47.1769 131.955 51.554 133.788C52.041 133.992 52.5316 134.183 53.0296 134.356V123.765C52.6872 123.765 52.3046 123.765 51.922 123.765Z" fill="white"/>
<path d="M64.7259 60.6305C65.1451 60.7573 65.3886 61.4701 65.698 62.1554C66.5968 61.9569 67.4243 61.4848 68.0486 60.7849C68.8852 59.8479 69.2861 58.5877 69.1488 57.3274C68.9273 55.3066 67.3071 53.6642 65.2952 53.4217C65.0737 53.396 64.8522 53.385 64.6325 53.3905L63.3382 31.5416C63.2613 30.2428 63.708 29.0064 64.5977 28.0585C65.4874 27.1105 66.6902 26.5906 67.9863 26.5906H160.817C162.113 26.5906 163.318 27.1123 164.207 28.0585C165.097 29.0064 165.544 30.2428 165.467 31.5416L164.268 51.7022C165.077 51.7242 165.59 52.2662 166.139 53.4823C166.368 53.9894 166.622 54.4652 166.902 54.9098C167.03 54.625 167.111 54.3164 167.131 53.9986L168.455 31.7198C168.581 29.5869 167.847 27.5533 166.386 25.999C164.925 24.443 162.948 23.5869 160.817 23.5869H67.9845C65.8554 23.5869 63.8783 24.443 62.4174 25.999C60.9565 27.5551 60.2224 29.5869 60.3487 31.7198L61.6686 54.0004C61.7107 54.7169 62.0531 55.3911 62.6059 55.8467C63.1515 56.2968 63.8636 56.5007 64.5593 56.4052C64.6819 56.3886 64.8101 56.3868 64.9382 56.4033C65.5826 56.4805 66.1007 57.0077 66.1721 57.6544C66.2179 58.0714 66.0916 58.4701 65.8188 58.7787C65.5442 59.0855 65.1671 59.2564 64.746 59.2564C64.0265 59.2527 63.3309 59.5485 62.8402 60.0684C62.3551 60.5809 62.1007 61.2809 62.1428 61.9882L62.1464 62.0378C62.3368 61.8651 62.5272 61.6961 62.7267 61.5344C63.2979 61.0696 64.1895 60.4689 64.7259 60.6305Z" fill="white"/>
<path d="M63.7336 63.4006C63.9515 64.5506 64.5227 65.4747 65.3648 66.0901L65.1909 62.8936C64.6728 63.0736 64.2261 63.2297 63.7336 63.4006Z" fill="white"/>
<path d="M65.8591 75.1455L65.3648 66.0903C64.5227 65.4767 63.9515 64.5527 63.7336 63.4008C64.2261 63.2281 64.6728 63.0738 65.1909 62.8919L65.1561 62.2434C65.3391 62.2269 65.5204 62.1938 65.698 62.1552C65.3886 61.47 65.1451 60.7572 64.7259 60.6304C64.1895 60.4687 63.2979 61.0695 62.7249 61.5361C62.5272 61.6978 62.335 61.8668 62.1446 62.0395L62.9116 75.1436C63.8728 75.1436 64.8558 75.1436 65.8591 75.1455Z" fill="white"/>
<path d="M164.266 51.7058L164.165 53.3923C163.944 53.3868 163.722 53.396 163.501 53.4235C161.492 53.6678 159.874 55.3102 159.653 57.3292C159.515 58.5876 159.916 59.8479 160.753 60.7848C161.5 61.6207 162.534 62.1388 163.638 62.2417L162.882 75.2099C163.892 75.2099 164.881 75.2099 165.848 75.2117L166.651 61.99C166.693 61.2845 166.439 60.5864 165.956 60.072C165.467 59.554 164.777 59.2582 164.055 59.2582C163.642 59.2582 163.257 59.091 162.981 58.7805C162.706 58.4737 162.582 58.0751 162.626 57.6581C162.697 57.0114 163.215 56.4841 163.858 56.4052C163.986 56.3905 164.114 56.3905 164.237 56.407C164.932 56.5007 165.643 56.2968 166.188 55.8485C166.496 55.595 166.736 55.2717 166.897 54.9134C166.617 54.4688 166.362 53.993 166.133 53.486C165.588 52.2698 165.075 51.7297 164.266 51.7058Z" fill="white"/>
<path d="M207.115 124.277C204.583 121.979 201.363 121.972 198.242 121.724C197.284 121.647 196.292 121.744 195.34 121.907C193.614 122.205 192.925 123.12 193.284 124.718C198.101 124.77 202.917 124.838 207.734 124.849C207.527 124.656 207.322 124.465 207.115 124.277Z" fill="white"/>
<path d="M99.3314 78.2742C101.098 78.276 102.877 78.2778 104.664 78.2778C104.157 77.9949 103.482 77.8039 102.638 77.7175C102.467 77.6992 102.299 77.6771 101.913 77.6312C102.153 76.7916 102.314 75.9539 102.557 75.1676C101.739 75.1676 100.92 75.1658 100.106 75.1658C100.126 76.2221 99.8275 77.3942 99.3314 78.2742Z" fill="white"/>
<path d="M232.399 151.331C229.645 151.331 226.075 151.25 223.428 151.358C221.515 151.437 219.983 151.004 218.357 149.72C212.728 145.276 204.893 145.81 199.574 150.677C199.223 150.998 198.707 151.302 198.267 151.303C190.54 151.34 182.813 151.329 175.085 151.325C174.979 151.325 174.873 151.296 174.692 151.268C174.692 150.212 174.692 149.154 174.692 148.098C173.817 148.143 172.823 148.09 171.671 147.96C171.519 147.943 171.365 147.925 171.213 147.908C171.213 149.001 171.213 150.091 171.213 151.184C170.842 151.184 170.454 151.184 170.064 151.184C164.381 151.184 154.323 151.175 143.218 151.16C142.852 151.61 142.234 151.902 141.293 152.115C138.843 152.668 136.513 152.501 134.244 151.199C134.213 151.18 134.186 151.166 134.157 151.147C131.883 151.144 129.604 151.142 127.345 151.138C126.993 151.437 126.605 151.781 126.169 152.169C125.325 152.918 124.41 153.6 123.46 154.232C148.822 154.252 180.678 154.287 196.633 154.287C195.38 156.144 195.014 158.349 194.978 160.722C173.37 160.722 119.872 160.652 98.1909 160.652C98.1707 158.532 97.8046 156.695 96.5487 154.217C101.239 154.217 107.311 154.221 114.191 154.224C114.059 154.105 113.929 153.987 113.799 153.868C112.825 152.979 111.864 152.073 110.971 151.114C104.41 151.103 98.7913 151.092 95.0604 151.083C94.4691 151.081 93.7551 150.804 93.3066 150.409C87.4649 145.278 78.802 145.272 72.9566 150.398C72.5063 150.793 71.7996 151.076 71.2065 151.081C66.6755 151.136 62.1446 151.112 57.6136 151.112C57.2475 151.112 56.8832 151.112 56.4511 151.112C56.4511 147.183 56.4511 141.047 56.4511 135.227C55.2722 135.045 54.1427 134.742 53.0406 134.356V151.147C48.5591 151.184 46.1261 154.329 46.5929 158.284C47.0799 162.403 50.3531 164.207 54.831 164.209C59.1679 164.211 63.5048 164.231 67.8417 164.191C68.7149 164.183 69.1415 164.387 69.4802 165.284C73.4509 175.746 87.1866 177.824 94.081 170.58C95.8549 168.778 97.2462 166.634 98.0462 164.246C120.359 164.246 173.192 164.316 195.435 164.316C198.051 171.124 202.088 174.997 209.44 175.002C216.798 175.008 220.825 172.039 223.436 165.265C223.494 165.249 224.477 165.212 224.547 165.21C227.941 165.205 231.335 165.221 234.729 165.192C238.085 165.163 241.115 163.009 242.083 159.785C242.089 159.771 242.092 159.754 242.098 159.739C242.312 159.054 242.409 158.137 242.431 157.594C242.467 156.682 241.638 154.992 241.332 154.493C240.146 152.554 238.105 151.662 235.864 151.197C235.864 150.594 235.873 148.764 235.862 148.221C235.837 146.942 235.846 145.66 235.844 144.379C234.612 144.326 233.46 144.001 232.406 143.413C232.417 146.014 232.399 148.625 232.399 151.331ZM69.2605 160.737C69.1104 160.737 67.6934 160.737 67.3749 160.737C63.1185 160.737 58.864 160.741 54.6076 160.735C51.1184 160.737 50.0016 159.37 50.0144 157.423C50.0273 155.512 51.5065 154.158 53.6282 154.155C58.6809 154.145 65.7474 154.151 70.7507 154.151C70.1575 155.777 69.2422 157.43 69.2605 160.737ZM83.5435 171.706C77.5022 171.703 72.5777 166.717 72.618 160.647C72.6582 154.632 77.6011 149.74 83.6094 149.766C89.6049 149.791 94.4965 154.741 94.4819 160.768C94.4672 166.788 89.5445 171.71 83.5435 171.706ZM209.557 171.778C203.569 171.749 198.672 166.788 198.69 160.768C198.707 154.752 203.633 149.83 209.632 149.835C215.633 149.841 220.545 154.766 220.554 160.788C220.561 166.856 215.608 171.807 209.557 171.778ZM239.147 157.551C239.313 160.002 236.556 162.269 234.896 162.444C234.608 162.473 234.315 162.46 234.024 162.46C230.976 162.46 227.015 162.46 223.954 162.46C224.302 161.104 223.994 158.488 223.752 157.43C223.513 156.376 223.168 155.351 222.831 154.243C226.724 154.243 231.304 154.178 235.147 154.272C236.807 154.314 239.165 155.905 239.147 157.551Z" fill="white"/>
<path d="M56.4493 123.8C56.9198 123.8 57.3555 123.8 57.7912 123.8C67.4646 123.8 69.8353 123.8 79.5068 123.8C79.8419 123.8 80.1769 123.816 80.5101 123.789C81.7732 123.686 82.6813 123.434 82.6575 122.213C82.6337 121.031 81.7476 120.646 80.5357 120.541C80.2043 120.511 79.8675 120.528 79.5343 120.528C69.9159 120.528 67.4371 120.528 57.8187 120.528C57.3811 120.528 56.9418 120.528 56.4438 120.528C56.4438 116.727 56.4438 117.796 56.4438 113.909C56.81 113.909 57.1981 113.909 57.588 113.909C61.5624 113.909 65.535 113.918 69.5095 113.903C70.8733 113.898 71.807 113.659 71.9589 112.458C72.1383 111.043 71.0765 110.464 69.4966 110.459C65.5607 110.442 61.6228 110.453 57.6869 110.453C57.2878 110.453 56.8869 110.453 56.4365 110.453C56.4365 105.879 56.4365 101.227 56.4365 96.594C56.8631 96.594 57.2896 96.594 57.718 96.594C69.6028 96.594 81.4858 96.594 93.3706 96.594C93.7423 96.594 94.1176 96.6161 94.4837 96.572C95.6242 96.436 96.4663 96.2174 96.4828 95.0821C96.4993 93.9486 95.6773 93.3295 94.5441 93.1715C94.1432 93.1145 93.7295 93.1403 93.3212 93.1403C81.5114 93.1384 69.7017 93.1384 57.8919 93.1384C57.4471 93.1384 57.004 93.1384 56.431 93.1384C56.431 88.5493 56.431 82.7955 56.431 78.2523C67.3621 78.2523 82.8387 78.2633 99.3332 78.2762C99.8293 77.3943 100.128 76.2223 100.108 75.1678C87.6864 75.1586 75.7924 75.1494 65.8609 75.1457L65.9506 76.7808L63.0215 76.9645L62.9153 75.1439C60.4274 75.1439 58.0823 75.142 55.9074 75.1439C53.8772 75.1439 53.1211 75.8934 53.1193 77.9069C53.1156 82.4427 53.1175 86.9767 53.1175 91.5126C53.1175 91.8965 53.0406 134.356 53.0406 134.356C54.1445 134.742 55.274 135.045 56.4512 135.227C56.4493 130.895 56.4493 126.739 56.4493 123.8Z" fill="white"/>
<path d="M134.243 151.199C136.511 152.501 138.841 152.666 141.291 152.115C142.232 151.902 142.852 151.612 143.217 151.16C140.249 151.156 137.206 151.153 134.153 151.149C134.184 151.165 134.211 151.182 134.243 151.199Z" fill="white"/>
<path d="M113.798 153.868C113.928 153.987 114.059 154.107 114.189 154.224C117.144 154.226 120.249 154.228 123.456 154.232C124.406 153.6 125.322 152.918 126.166 152.169C126.601 151.781 126.989 151.437 127.341 151.138C121.611 151.129 116.011 151.121 110.967 151.112C111.862 152.073 112.824 152.979 113.798 153.868Z" fill="white"/>
<path d="M216.697 121.338C216.001 121.316 215.357 120.961 214.956 120.39C208.825 111.667 202.652 102.976 196.521 94.2552C195.774 93.1916 194.899 92.7396 193.595 92.7488C187.691 92.7966 181.787 92.769 175.884 92.769C175.495 92.769 175.107 92.769 174.629 92.769C174.629 92.2528 174.629 91.8578 174.629 91.4628C174.629 87.0005 174.631 82.5381 174.629 78.0776C174.628 75.9612 173.899 75.2135 171.83 75.2117C169.958 75.2117 167.958 75.2117 165.851 75.2099L165.723 77.3299L162.794 76.7788L162.886 75.2099C146.235 75.2025 123.775 75.1841 102.559 75.1658C102.315 75.9521 102.154 76.7898 101.914 77.6293C102.301 77.6753 102.469 77.6992 102.639 77.7157C103.483 77.802 104.159 77.9931 104.666 78.276C129.194 78.2962 155.113 78.3201 171.215 78.3201C171.215 101.475 171.215 124.614 171.215 147.905C171.367 147.921 171.519 147.939 171.673 147.956C172.824 148.086 173.818 148.14 174.694 148.094C174.694 130.755 174.694 113.407 174.694 95.9344C180.162 95.9344 185.555 96.017 190.943 95.8848C192.638 95.8425 194.509 96.4322 195.457 97.8744C200.36 105.326 205.557 112.696 210.531 120.094C210.758 120.432 210.972 120.781 211.265 121.239C203.02 121.239 193.793 121.239 185.553 121.239C185.553 120.805 185.553 120.394 185.553 119.98C185.553 115.25 185.557 110.519 185.551 105.789C185.55 104.043 184.775 103.062 183.411 103.04C182 103.016 181.182 104.02 181.18 105.811C181.174 111.541 181.176 116.352 181.18 122.084C181.182 124.215 181.936 124.65 183.942 124.652C187.056 124.652 190.17 124.68 193.286 124.715C192.927 123.116 193.616 122.203 195.342 121.904C196.294 121.74 197.286 121.643 198.244 121.72C201.365 121.97 204.585 121.975 207.117 124.274C207.324 124.463 207.531 124.654 207.736 124.845C210.339 124.851 212.942 124.84 215.545 124.801C224.373 124.667 232.311 133.246 232.397 142.593C232.399 142.865 232.401 143.137 232.402 143.411C233.459 143.997 234.608 144.324 235.84 144.377C235.837 142.584 235.811 140.793 235.634 139.017C234.658 129.263 226.447 121.658 216.697 121.338Z" fill="white"/>
<path d="M63.0179 76.9642L65.947 76.7805L65.8573 75.1455C64.854 75.1455 63.8728 75.1455 62.9099 75.1455L63.0179 76.9642Z" fill="white"/>
<path d="M162.79 76.7804L165.72 77.3316L165.848 75.2116C164.881 75.2116 163.892 75.2116 162.882 75.2097L162.79 76.7804Z" fill="white"/>
<path d="M83.7065 154.156C80.111 154.167 77.1764 157.123 77.1746 160.735C77.1727 164.343 80.1128 167.306 83.7028 167.319C87.3422 167.33 90.3153 164.338 90.2896 160.684C90.2658 157.077 87.3056 154.145 83.7065 154.156ZM83.6076 164.226C81.7513 164.158 80.2373 162.563 80.2556 160.698C80.2758 158.767 81.9344 157.177 83.8548 157.248C85.7092 157.316 87.2287 158.913 87.2067 160.774C87.1848 162.704 85.5262 164.295 83.6076 164.226Z" fill="white"/>
<path d="M209.638 154.226C205.995 154.218 203.034 157.211 203.064 160.873C203.091 164.471 206.062 167.405 209.662 167.389C213.25 167.372 216.186 164.402 216.181 160.795C216.173 157.185 213.233 154.231 209.638 154.226ZM209.467 164.223C207.653 164.137 206.178 162.555 206.214 160.737C206.253 158.846 207.897 157.301 209.773 157.389C211.591 157.474 213.063 159.054 213.024 160.874C212.988 162.765 211.342 164.312 209.467 164.223Z" fill="white"/>
</svg>
