<svg id="svg" xmlns="http://www.w3.org/2000/svg" xmlns:xlink="http://www.w3.org/1999/xlink" width="400" height="170.54034048852702" viewBox="0, 0, 400,170.54034048852702"><g id="svgg"><path id="path0" d="M245.596 2.493 C 240.298 3.522,236.516 5.747,226.579 13.683 C 209.446 27.365,206.765 28.376,196.135 25.152 C 151.080 11.488,124.180 11.350,114.057 24.731 C 106.605 34.582,104.421 48.604,109.123 56.412 C 109.683 57.342,110.141 58.136,110.141 58.177 C 110.141 58.218,109.574 58.341,108.882 58.451 C 108.190 58.560,103.960 59.453,99.482 60.436 C 95.004 61.418,89.314 62.562,86.837 62.976 L 82.335 63.731 70.257 56.774 C 34.825 36.365,22.625 32.239,12.226 37.146 C 2.193 41.880,2.086 60.001,11.950 84.026 C 13.715 88.325,13.798 87.756,10.410 94.663 C -3.092 122.191,1.527 143.209,20.586 140.962 C 29.253 139.940,58.513 125.427,73.723 114.607 C 82.573 108.310,81.724 108.758,85.123 108.598 C 88.088 108.459,96.407 108.783,98.234 109.109 L 99.206 109.283 98.140 110.526 C 85.418 125.368,105.824 150.981,130.384 150.998 C 143.296 151.006,161.337 144.322,173.035 135.195 C 174.920 133.725,175.035 133.699,177.942 134.111 C 182.472 134.753,190.698 135.037,212.243 135.293 C 224.839 135.442,235.219 135.638,235.308 135.728 C 235.398 135.817,235.249 136.725,234.977 137.746 C 230.279 155.391,233.782 166.022,244.264 165.921 C 256.323 165.806,274.318 151.221,279.661 137.231 L 280.135 135.988 284.188 135.795 C 310.826 134.523,343.907 125.048,373.500 110.214 C 381.217 106.346,392.878 97.816,395.358 94.225 C 400.261 87.125,395.297 77.142,386.745 76.905 C 385.592 76.873,385.008 76.744,385.123 76.547 C 385.222 76.378,386.493 74.334,387.947 72.004 C 389.401 69.675,390.543 67.730,390.484 67.683 C 390.426 67.636,388.512 67.302,386.232 66.940 C 371.744 64.641,364.502 61.564,345.374 49.582 C 318.277 32.608,302.056 26.109,278.134 22.641 C 275.228 22.220,272.836 21.850,272.820 21.819 C 272.803 21.787,272.487 20.896,272.116 19.837 C 268.109 8.395,255.997 0.474,245.596 2.493 M253.724 13.507 C 256.765 14.925,260.320 18.497,261.846 21.672 C 263.167 24.416,263.171 24.221,261.720 27.862 C 261.062 29.514,260.562 30.895,260.609 30.930 C 260.657 30.965,263.294 31.215,266.469 31.485 C 293.492 33.783,311.453 40.240,338.770 57.475 C 354.520 67.413,369.132 74.611,373.556 74.611 C 374.033 74.611,372.318 76.923,365.552 85.401 C 359.598 92.861,358.920 94.603,360.889 97.369 C 363.405 100.903,365.335 100.443,374.760 94.066 C 385.088 87.077,386.323 86.424,386.960 87.615 C 387.709 89.015,376.541 97.287,368.384 101.374 C 338.142 116.526,308.119 124.731,278.041 126.062 L 273.181 126.277 271.659 129.978 C 267.655 139.710,262.893 145.901,255.680 150.749 C 251.721 153.411,245.999 156.033,244.149 156.033 C 242.416 156.033,242.743 148.301,244.820 140.192 C 246.667 132.979,246.291 133.817,249.585 129.568 C 252.925 125.259,253.274 125.547,244.708 125.539 C 209.998 125.505,183.943 124.816,176.610 123.737 C 171.488 122.984,171.932 122.886,168.912 125.425 C 158.002 134.594,142.315 140.815,130.274 140.746 C 114.149 140.655,98.351 124.233,106.785 116.331 C 109.150 114.114,109.770 113.839,124.500 108.468 C 131.364 105.965,133.397 105.109,132.480 105.107 C 132.325 105.106,128.058 104.248,122.998 103.200 C 103.188 99.096,94.001 98.026,83.560 98.609 C 78.153 98.910,78.646 98.692,70.762 104.258 C 59.792 112.003,55.767 114.350,39.674 122.382 C 19.474 132.465,15.534 133.250,13.448 127.605 C 11.185 121.481,13.488 111.263,20.135 97.941 C 24.379 89.434,24.438 87.550,20.732 78.615 C 16.779 69.085,14.621 59.234,14.860 51.813 C 15.040 46.216,15.555 45.734,21.318 45.762 C 28.447 45.798,39.696 50.800,62.768 64.195 C 66.269 66.228,71.599 69.287,74.611 70.994 L 80.089 74.097 84.086 73.593 C 88.792 73.000,93.150 72.178,103.035 70.021 C 107.024 69.150,111.887 68.155,113.842 67.809 C 118.967 66.902,143.112 60.095,143.861 59.347 C 144.065 59.143,143.373 58.995,133.049 57.036 C 120.571 54.669,119.322 54.140,117.505 50.449 C 115.160 45.686,118.504 33.976,123.499 29.463 C 131.974 21.807,156.797 23.750,193.486 34.943 C 207.248 39.141,213.475 37.133,231.680 22.630 C 245.204 11.856,247.840 10.765,253.724 13.507 " stroke="none" fill="#000000" fill-rule="evenodd"></path></g></svg>