<svg id="svg" xmlns="http://www.w3.org/2000/svg" xmlns:xlink="http://www.w3.org/1999/xlink" width="400" height="418.5185185185185" viewBox="0, 0, 400,418.5185185185185"><g id="svgg"><path id="path0" d="M230.713 5.169 C 222.142 7.956,207.925 9.425,199.120 8.432 C 180.223 6.302,162.278 12.894,144.175 28.615 C 136.371 35.392,125.300 40.600,115.435 42.134 C 64.904 49.993,25.926 91.982,25.926 138.560 C 25.926 153.828,24.278 160.035,19.258 163.679 C -26.252 196.712,7.333 257.147,73.442 261.181 L 94.357 262.457 119.348 293.077 C 147.217 327.224,156.626 349.441,155.132 377.578 C 153.532 407.723,173.727 421.258,214.754 417.538 C 243.703 414.913,260.524 405.997,256.937 395.178 C 245.557 360.847,259.069 314.870,291.621 277.169 L 309.259 256.739 332.114 258.483 C 379.886 262.127,406.926 224.160,390.666 176.268 C 385.370 160.670,385.479 158.956,392.504 147.435 C 412.723 114.272,390.350 67.762,348.088 55.100 C 336.943 51.761,331.606 47.479,327.313 38.432 C 313.722 9.792,266.498 -6.469,230.713 5.169 M284.117 30.009 C 299.513 37.462,311.111 52.307,311.111 64.560 C 311.111 67.729,315.604 71.224,321.296 72.484 C 371.051 83.500,389.562 110.568,368.519 141.536 C 357.339 157.989,357.392 156.463,367.174 180.063 C 383.905 220.429,357.268 247.578,315.290 232.944 C 286.743 222.993,232.024 309.956,231.796 365.637 L 231.687 392.386 216.075 394.727 C 186.502 399.161,179.980 394.024,177.281 364.169 C 174.122 329.226,165.564 311.741,131.961 271.574 L 103.533 237.592 79.645 237.730 C 28.051 238.028,2.040 201.036,37.886 178.340 C 49.729 170.842,49.880 170.386,48.800 145.553 C 46.920 102.350,85.462 62.963,129.618 62.963 C 140.417 62.963,146.427 59.930,158.631 48.321 C 175.064 32.688,192.395 27.034,207.130 32.498 C 213.518 34.867,221.006 33.914,233.056 29.199 C 255.325 20.485,264.752 20.635,284.117 30.009 M165.033 164.933 C 160.822 168.118,149.752 170.370,138.311 170.370 C 121.795 170.370,118.117 171.657,114.493 178.704 C 112.135 183.287,106.167 191.374,101.230 196.676 L 92.254 206.314 106.874 224.809 C 167.632 301.675,215.940 271.315,183.182 176.852 C 176.500 157.582,175.564 156.967,165.033 164.933 M239.815 180.836 L 211.111 186.476 211.125 208.979 C 211.158 263.326,237.736 268.832,287.037 224.704 L 305.556 208.129 295.913 197.583 C 290.610 191.783,285.246 184.120,283.993 180.556 C 281.385 173.137,278.923 173.153,239.815 180.836 M164.970 196.548 C 169.788 204.343,171.446 243.342,167.075 246.044 C 157.572 251.917,121.318 210.198,127.867 200.926 C 134.227 191.922,160.216 188.855,164.970 196.548 M269.327 206.130 C 271.383 212.299,241.153 231.524,236.583 226.954 C 228.222 218.593,234.539 205.669,248.148 203.291 C 263.715 200.572,267.650 201.100,269.327 206.130 " stroke="none" fill="#000000" fill-rule="evenodd"></path></g></svg>