<svg xmlns="http://www.w3.org/2000/svg" viewBox="0 0 307.3 397.04"><defs><style>.cls-1{fill:#c2c2c2;}.cls-2{fill:#333;}</style></defs><title>paket</title><g id="Layer_1" data-name="Layer 1"><path class="cls-1" d="M253.26,126.14a10.12,10.12,0,0,1,10.35-7,10.73,10.73,0,0,1,1.49.23l12.69-48.06a10.6,10.6,0,0,0-8.16-13.11L62.23,16.49a10.63,10.63,0,0,0-12.61,8.93L42.73,74.65a10.73,10.73,0,0,1,1.46.36,10.12,10.12,0,0,1,6.86,10.43Z"/><path class="cls-1" d="M46.67,129.17a10.06,10.06,0,0,1-9.09,11.16L51,365.92a11,11,0,0,0,11,10.36H237.56a11,11,0,0,0,11-10.36L262,140.33a10.08,10.08,0,0,1-9.09-11.15H46.67Z"/><path class="cls-2" d="M259.74,128.46l-6.49-2.08a10.12,10.12,0,0,1,10.35-6.95,9.36,9.36,0,0,1,1.5.23l12.76-48a10.64,10.64,0,0,0-8.15-13.13l-207.35-42a10.6,10.6,0,0,0-12.61,8.91l-7,49.22a9.27,9.27,0,0,1,1.47.36A10.14,10.14,0,0,1,51.1,85.41l-6.8-.62a3.23,3.23,0,0,0-2.19-3.34,3.56,3.56,0,0,0-.85-.17,5.83,5.83,0,0,1-4.11-2.12,5.9,5.9,0,0,1-1.26-4.54L43,24.44A17.45,17.45,0,0,1,63.72,9.79l207.34,42a17.43,17.43,0,0,1,13.39,21.56l-13,49a5.89,5.89,0,0,1-2.92,3.68,5.75,5.75,0,0,1-4.61.36,3.37,3.37,0,0,0-.85-.17A3.24,3.24,0,0,0,259.74,128.46Z"/><path class="cls-2" d="M238.86,127.32l-17.44-3.53,1.36-6.69,17.44,3.54ZM204,120.26l-17.44-3.54L187.9,110l17.44,3.53Zm-34.88-7.07-17.44-3.54L153,103l17.44,3.53Zm-34.88-7.07-17.44-3.54,1.36-6.68,17.44,3.53ZM99.34,99.05,81.9,95.51l1.36-6.68,17.44,3.53ZM64.46,92,47,88.44l1.36-6.68,17.44,3.53Z"/><path class="cls-2" d="M237.57,383.1H62a17.85,17.85,0,0,1-17.8-16.77L30.71,139.76a5.88,5.88,0,0,1,5.94-6.21h0a3.2,3.2,0,0,0,2.44-1.08,3.24,3.24,0,0,0,.81-2.55l6.78-.75a10.08,10.08,0,0,1-9.1,11.16L51,365.92a11,11,0,0,0,11,10.36H237.57a11,11,0,0,0,11-10.36L262,140.33a10.08,10.08,0,0,1-9.08-11.15l6.78.74a3.2,3.2,0,0,0,.81,2.55,3.26,3.26,0,0,0,2.45,1.08,6,6,0,0,1,4.33,1.85,5.85,5.85,0,0,1,1.58,4.36L255.37,366.33A17.85,17.85,0,0,1,237.57,383.1ZM263,140.37Z"/><path class="cls-2" d="M256.33,133h-5.44v-6.82h5.44ZM242,133H221.23v-6.82H242Zm-29.65,0H191.58v-6.82h20.76Zm-29.66,0H161.92v-6.82h20.76ZM153,133H132.26v-6.82H153Zm-29.66,0H102.6v-6.83h20.76Zm-29.65,0H73v-6.83H93.71Zm-29.66,0H43.29v-6.83H64.05Z"/></g></svg>