<svg xmlns="http://www.w3.org/2000/svg" viewBox="0 0 307.3 358.97"><defs><style>.cls-1{fill:#333;}.cls-2{fill:#c2c2c2;}</style></defs><title>paket</title><g id="Layer_1" data-name="Layer 1"><path class="cls-1" d="M243.47,345H67.89a17.86,17.86,0,0,1-17.81-16.78L36.61,101.68a5.87,5.87,0,0,1,5.94-6.2h0A3.23,3.23,0,0,0,45,94.4,3.25,3.25,0,0,0,43,89a3.53,3.53,0,0,0-.86,0,5.82,5.82,0,0,1-4.45-1.27,5.91,5.91,0,0,1-2.14-4.19l-3-50.6A17.45,17.45,0,0,1,49.93,14.48H261.48A17.45,17.45,0,0,1,278.89,33l-3,50.6a6,6,0,0,1-2.13,4.19A5.84,5.84,0,0,1,269.29,89a3.53,3.53,0,0,0-.86,0,3.25,3.25,0,0,0-2.81,2.85h0a3.23,3.23,0,0,0,.8,2.55,3.28,3.28,0,0,0,2.45,1.08,5.94,5.94,0,0,1,4.33,1.85,5.85,5.85,0,0,1,1.59,4.35L261.27,328.26A17.86,17.86,0,0,1,243.47,345Zm-200-242.77L56.89,327.85a11,11,0,0,0,11,10.36H243.47a11,11,0,0,0,11-10.36l13.46-225.59a10.06,10.06,0,0,1-9.08-11.16h0a10.13,10.13,0,0,1,8.77-8.87,10.91,10.91,0,0,1,1.51-.07l3-49.61a10.62,10.62,0,0,0-10.6-11.25H49.93a10.62,10.62,0,0,0-10.6,11.24l3,49.62a11.05,11.05,0,0,1,1.52.07,10.07,10.07,0,0,1-.32,20Z"/><path class="cls-2" d="M43.48,102.26,56.89,327.85a11,11,0,0,0,11,10.36H243.47a11,11,0,0,0,11-10.36l13.46-225.59a10.06,10.06,0,0,1-9.08-11.16h0a10.13,10.13,0,0,1,8.77-8.87,10.83,10.83,0,0,1,1.51-.07l3-49.61a10.62,10.62,0,0,0-10.6-11.25H49.93a10.62,10.62,0,0,0-10.6,11.24l3,49.62a11.05,11.05,0,0,1,1.52.07,10.07,10.07,0,0,1-.32,20Z"/></g></svg>