<svg id="svg" xmlns="http://www.w3.org/2000/svg" xmlns:xlink="http://www.w3.org/1999/xlink" width="400" height="224.375" viewBox="0, 0, 400,224.375"><g id="svgg"><path id="path0" d="M150.781 2.685 C 129.346 3.396,107.649 5.142,96.611 7.045 C 73.398 11.048,52.797 21.913,38.911 37.477 C 35.634 41.150,35.981 41.011,35.016 39.030 C 33.281 35.468,29.326 32.733,25.188 32.235 C 23.360 32.015,12.229 32.384,11.916 32.676 C 11.852 32.735,12.725 33.967,13.855 35.415 L 15.910 38.047 14.543 38.201 C 8.130 38.924,2.500 45.957,2.500 53.246 C 2.500 62.647,9.335 69.353,18.934 69.370 L 21.462 69.375 20.891 71.953 C 17.344 87.976,19.052 102.185,26.877 121.762 C 32.475 135.765,32.512 136.311,28.256 142.131 C 22.153 150.477,20.158 160.904,22.805 170.625 C 25.754 181.456,26.074 183.851,25.769 192.797 C 25.426 202.888,27.298 207.857,32.591 210.907 C 33.636 211.509,34.532 212.346,35.093 213.244 C 38.814 219.202,44.675 221.715,54.844 221.715 C 65.695 221.715,69.521 219.383,70.500 212.171 C 71.084 207.867,66.307 200.513,61.171 197.813 C 59.500 196.934,59.376 196.645,57.941 190.313 C 55.368 178.959,55.748 174.230,59.666 168.802 L 60.870 167.134 61.411 168.802 C 61.708 169.719,62.205 171.102,62.513 171.875 C 63.728 174.917,65.008 180.056,65.626 184.375 C 67.165 195.124,69.827 200.543,75.296 204.052 C 76.448 204.791,77.024 205.457,77.681 206.810 C 80.874 213.380,89.416 216.756,101.401 216.184 C 107.902 215.873,111.930 211.674,111.489 205.670 C 111.261 202.570,110.373 201.046,106.249 196.679 C 96.704 186.572,93.003 177.877,93.028 165.625 C 93.037 161.513,93.443 156.765,93.818 156.390 C 93.877 156.331,95.538 156.690,97.509 157.186 C 132.026 165.880,165.122 165.685,210.307 156.522 C 221.615 154.228,220.434 153.884,222.455 160.061 C 226.273 171.732,227.565 180.002,226.811 187.943 C 225.750 199.124,227.331 204.873,233.027 210.537 C 240.048 217.521,253.937 219.938,259.124 215.079 L 259.967 214.289 261.468 215.524 C 266.314 219.512,270.466 220.440,278.691 219.372 C 288.870 218.050,291.421 208.245,283.933 199.219 C 280.262 194.793,280.433 195.215,279.816 189.063 C 278.784 178.776,279.113 167.152,280.679 158.570 L 281.025 156.672 284.185 157.419 C 304.045 162.115,327.410 161.904,348.750 156.836 C 352.466 155.953,353.272 155.970,356.563 157.005 C 364.299 159.436,381.010 158.451,387.656 155.171 C 393.145 152.463,396.212 147.941,398.765 138.794 C 401.480 129.071,397.038 121.455,389.581 123.044 C 387.977 123.386,387.958 123.381,385.928 122.050 C 377.507 116.527,373.637 110.288,373.607 102.188 C 373.591 97.736,373.700 97.531,376.966 95.901 C 386.569 91.107,393.107 83.562,396.432 73.438 C 399.349 64.556,395.784 56.935,388.301 56.056 C 386.646 55.861,386.552 55.800,385.924 54.503 C 384.501 51.563,381.578 49.855,377.969 49.854 C 374.516 49.852,372.971 50.772,369.585 54.844 C 367.928 56.837,365.264 59.066,363.400 60.018 C 361.936 60.766,361.806 60.672,355.531 54.322 C 338.009 36.589,316.961 26.313,277.969 16.455 C 238.178 6.395,191.458 1.337,150.781 2.685 M178.906 13.439 C 217.963 14.796,252.929 20.189,288.183 30.295 C 317.063 38.574,332.981 47.059,348.438 62.416 C 358.914 72.824,363.386 73.731,372.019 67.197 C 374.503 65.317,374.256 65.348,374.462 66.888 C 374.624 68.094,375.597 69.614,378.035 72.469 L 378.943 73.532 381.737 71.883 C 383.274 70.976,384.948 69.884,385.457 69.456 C 386.745 68.374,386.759 68.896,385.524 71.960 C 382.784 78.755,378.941 82.807,371.753 86.481 C 364.746 90.062,362.958 93.266,362.987 102.188 C 363.026 114.230,368.417 123.273,380.289 131.209 C 384.185 133.813,385.866 134.507,387.824 134.320 L 388.972 134.211 388.356 136.402 C 385.833 145.371,383.990 146.638,372.188 147.518 C 365.092 148.047,361.510 147.630,356.250 145.663 C 354.183 144.890,352.585 144.840,350.302 145.477 C 328.922 151.440,304.316 151.667,282.942 146.100 C 277.736 144.744,273.617 146.336,271.875 150.379 C 269.484 155.925,267.995 171.385,268.720 183.125 C 269.536 196.339,270.122 199.039,272.956 202.656 C 277.872 208.931,277.641 208.565,276.827 208.794 C 275.237 209.241,270.792 209.081,269.991 208.549 C 268.374 207.473,265.320 204.251,265.697 204.018 C 266.091 203.775,266.145 204.043,263.246 191.875 C 259.844 177.599,257.467 173.220,248.325 164.394 C 246.539 162.671,246.841 161.984,245.516 170.781 C 242.589 190.224,243.223 197.447,248.546 205.261 L 249.682 206.929 248.374 206.708 C 240.432 205.366,236.215 199.719,237.235 191.790 C 238.524 181.765,237.041 170.288,232.766 157.221 C 228.392 143.847,225.517 142.509,208.619 145.982 C 164.760 154.994,133.263 155.161,99.066 146.563 C 87.713 143.709,84.567 145.657,82.917 156.563 C 80.252 174.179,85.564 190.959,97.694 203.245 L 100.127 205.709 97.017 205.482 C 89.275 204.916,87.564 203.931,86.356 199.344 L 85.829 197.344 83.086 196.017 C 78.463 193.780,77.510 191.916,76.100 182.344 C 75.343 177.202,74.213 172.652,72.647 168.438 C 72.232 167.320,71.591 165.422,71.223 164.219 C 68.055 153.868,61.369 151.011,55.174 157.361 C 46.517 166.233,44.481 173.119,46.448 186.875 C 48.037 197.988,50.272 203.742,53.835 205.894 C 56.084 207.253,59.627 210.477,59.267 210.838 C 58.848 211.258,52.665 211.334,50.371 210.947 C 47.197 210.412,45.275 209.182,43.626 206.629 C 42.063 204.210,41.375 203.529,39.226 202.277 C 36.437 200.652,36.410 200.539,36.384 190.469 C 36.360 180.924,35.988 177.745,34.194 171.719 C 32.635 166.484,32.450 165.475,32.411 162.031 C 32.352 156.829,33.870 152.607,37.640 147.491 C 41.031 142.888,42.009 139.763,41.793 134.219 C 41.622 129.860,41.467 129.340,37.027 118.280 C 28.789 97.759,27.737 84.696,32.986 68.103 C 34.120 64.516,34.358 61.107,33.600 59.297 C 33.422 58.872,33.525 58.750,34.060 58.750 C 35.750 58.750,36.848 57.772,39.746 53.684 C 55.502 31.461,76.912 19.695,107.832 16.265 C 130.936 13.703,156.849 12.672,178.906 13.439 " stroke="none" fill="#000000" fill-rule="evenodd"></path></g></svg>