<svg id="svg" xmlns="http://www.w3.org/2000/svg" xmlns:xlink="http://www.w3.org/1999/xlink" width="400" height="304.367816091954" viewBox="0, 0, 400,304.367816091954"><g id="svgg"><path id="path0" d="M325.057 5.119 C 318.793 5.688,311.449 8.084,306.054 11.320 C 304.255 12.398,303.052 12.885,301.540 13.146 C 292.828 14.649,288.761 17.460,269.579 35.231 C 253.739 49.906,243.099 53.140,210.575 53.163 C 202.132 53.169,194.572 53.019,191.418 52.783 C 181.779 52.063,169.444 50.874,154.176 49.194 C 115.448 44.932,97.832 44.392,80.153 46.928 C 56.646 50.299,39.403 59.814,27.086 76.214 C 25.639 78.140,23.764 80.297,22.918 81.007 C 15.522 87.220,12.053 91.432,9.074 97.817 C 1.997 112.987,3.960 126.449,13.673 129.350 L 14.932 129.726 15.111 134.058 C 15.462 142.514,17.402 150.031,22.087 161.088 C 28.710 176.719,29.191 178.295,29.240 184.521 C 29.276 189.176,28.723 191.621,26.847 195.096 C 26.301 196.107,25.634 197.349,25.365 197.854 C 25.096 198.360,24.212 200.602,23.400 202.835 C 22.317 205.816,21.789 206.897,21.417 206.897 C 21.013 206.897,20.777 207.601,20.260 210.345 C 18.976 217.169,19.799 222.032,22.946 226.207 C 24.832 228.709,23.853 252.019,21.415 262.657 C 19.053 272.963,20.007 278.015,25.756 285.647 C 32.295 294.327,37.249 297.318,45.088 297.318 C 61.125 297.318,67.617 287.139,58.675 276.015 C 52.718 268.604,50.599 254.156,52.102 231.186 C 52.654 222.743,52.501 222.640,55.707 233.604 C 59.789 247.564,60.484 250.861,61.002 258.722 C 61.878 272.033,64.711 279.005,72.325 286.590 C 82.159 296.387,98.628 296.938,102.898 287.612 C 105.564 281.789,102.883 275.519,94.216 267.306 C 89.742 263.066,89.383 262.517,87.692 257.318 C 83.547 244.576,83.469 234.591,87.445 225.867 C 88.799 222.896,89.904 221.177,94.766 214.478 C 99.674 207.715,102.160 203.923,104.210 200.077 C 105.085 198.433,105.865 197.088,105.942 197.088 C 106.019 197.088,107.904 197.649,110.129 198.334 C 128.333 203.941,143.162 206.388,158.008 206.235 C 164.900 206.163,169.734 206.267,173.180 206.558 C 181.483 207.261,192.718 206.773,208.053 205.044 C 216.340 204.110,221.315 205.725,222.518 209.739 C 222.729 210.443,224.265 214.580,225.931 218.931 C 230.717 231.428,233.099 242.056,231.884 245.498 C 231.278 247.217,231.295 247.444,232.001 247.066 C 233.567 246.227,233.139 261.376,231.351 270.038 C 229.722 277.929,231.234 282.766,236.015 284.954 C 236.855 285.338,237.301 285.886,238.067 287.473 C 241.964 295.545,251.145 300.346,262.744 300.378 C 269.420 300.396,274.672 296.406,275.450 290.724 C 275.554 289.968,275.672 289.349,275.713 289.349 C 275.754 289.349,276.590 289.832,277.571 290.422 C 287.088 296.153,301.151 295.077,304.497 288.362 C 306.632 284.079,305.342 280.552,299.146 273.724 C 288.843 262.372,285.924 254.065,286.380 237.395 C 286.553 231.052,286.906 227.507,288.735 213.724 C 290.834 197.914,292.461 194.400,300.691 187.908 C 315.503 176.224,323.546 160.034,327.067 134.815 C 328.071 127.626,328.102 127.566,333.750 122.146 C 344.813 111.527,349.880 106.242,353.005 102.062 C 359.963 92.755,364.671 90.148,371.590 91.771 C 377.795 93.226,382.394 91.543,388.199 85.694 C 393.552 80.300,394.616 77.767,394.581 70.498 C 394.535 60.985,391.968 55.030,384.565 47.262 C 378.935 41.355,375.098 36.310,370.923 29.326 C 360.616 12.081,344.139 3.385,325.057 5.119 M333.801 15.644 C 344.871 17.002,355.049 23.417,360.460 32.448 C 365.985 41.670,370.622 47.923,376.757 54.425 C 381.950 59.928,383.396 62.628,384.091 68.114 C 384.814 73.821,382.636 78.062,377.408 81.126 L 376.033 81.932 373.380 81.424 C 362.032 79.249,353.799 83.257,344.886 95.294 C 341.099 100.409,338.391 103.288,330.298 110.805 C 319.369 120.955,317.999 123.107,316.932 131.801 C 314.149 154.461,307.047 169.288,293.946 179.785 C 282.073 189.298,280.378 193.838,276.613 226.207 C 273.744 250.866,277.942 266.553,291.165 280.597 L 293.747 283.340 292.851 283.597 C 287.878 285.022,280.867 281.166,277.393 275.096 C 275.713 272.159,274.591 270.801,272.686 269.395 L 271.501 268.522 271.419 260.315 C 271.255 244.023,269.253 232.079,264.477 218.916 C 263.271 215.593,262.245 212.824,262.195 212.764 C 262.046 212.582,255.814 217.809,254.670 219.075 C 252.512 221.464,251.356 225.201,251.346 229.822 L 251.341 232.365 250.345 232.192 C 249.797 232.097,247.528 231.759,245.303 231.440 C 240.851 230.801,240.613 230.723,240.613 229.885 C 240.613 228.808,238.484 222.276,236.297 216.644 C 235.099 213.559,233.579 209.452,232.919 207.518 C 229.432 197.290,220.988 193.052,207.203 194.608 C 191.555 196.375,181.557 196.832,173.793 196.135 C 170.524 195.842,165.840 195.740,158.774 195.810 C 143.865 195.957,130.485 193.680,111.458 187.758 C 101.923 184.791,99.753 185.482,96.189 192.617 C 93.807 197.387,92.027 200.184,86.129 208.430 C 80.275 216.615,78.846 218.979,77.131 223.312 C 72.577 234.816,73.149 248.798,78.789 263.829 C 80.347 267.981,81.107 269.035,86.587 274.638 C 94.085 282.305,94.705 283.651,90.700 283.577 C 85.446 283.480,83.393 282.661,79.896 279.267 C 74.168 273.707,72.160 268.677,71.418 258.030 C 70.796 249.106,69.650 243.534,65.757 230.498 C 62.937 221.057,62.116 217.893,61.004 212.171 C 59.959 206.793,60.522 207.133,55.880 209.079 C 42.982 214.485,41.295 218.577,41.304 244.444 C 41.311 264.191,43.888 274.515,51.047 283.472 C 52.860 285.740,51.685 286.526,46.050 286.815 C 40.931 287.079,39.089 285.879,33.860 278.882 C 30.249 274.050,30.041 272.689,31.704 264.779 C 33.578 255.868,34.551 242.992,34.250 231.111 C 34.078 224.320,33.898 223.558,31.708 220.369 C 29.445 217.072,29.477 216.473,32.309 209.076 C 33.602 205.699,35.261 201.793,35.996 200.395 C 41.915 189.139,41.241 179.052,33.350 160.795 C 26.073 143.957,24.423 135.655,26.049 124.041 C 26.422 121.374,26.666 119.131,26.591 119.056 C 26.517 118.982,24.444 119.087,21.987 119.290 C 15.928 119.791,15.326 119.470,15.326 115.729 C 15.326 109.403,18.288 101.301,22.536 96.012 C 24.486 93.584,25.641 92.479,30.038 88.831 C 31.222 87.850,33.143 85.690,34.770 83.513 C 54.555 57.033,80.510 51.605,150.498 59.309 C 185.753 63.190,196.775 63.938,214.559 63.659 C 246.632 63.157,259.087 59.070,276.195 43.437 C 294.976 26.276,296.767 24.923,302.287 23.729 C 307.229 22.659,308.283 22.289,310.958 20.681 C 318.121 16.376,325.857 14.670,333.801 15.644 M251.433 245.594 C 251.888 268.254,253.994 276.534,260.950 283.026 C 267.040 288.710,266.784 290.504,260.001 289.675 C 252.488 288.756,249.482 286.894,246.888 281.548 C 245.100 277.863,243.198 275.862,241.484 275.862 C 241.046 275.862,240.944 275.697,241.060 275.172 C 243.030 266.219,243.727 256.761,243.075 247.816 C 242.867 244.950,242.675 242.292,242.651 241.910 C 242.612 241.318,249.814 236.819,251.067 236.653 C 251.169 236.639,251.333 240.663,251.433 245.594 " stroke="none" fill="#000000" fill-rule="evenodd"></path></g></svg>