<svg xmlns="http://www.w3.org/2000/svg" viewBox="0 0 1213.82 1227.27"><defs><style>.cls-1{fill:none;stroke:#333;stroke-miterlimit:10;stroke-width:23px;}.cls-1,.cls-4,.cls-5{opacity:0.6;}.cls-2{opacity:0.7;}.cls-3,.cls-4,.cls-6{fill:#333;}.cls-6{font-size:136.38px;font-family:Arial-Black, Arial Black;font-weight:800;}</style></defs><title>rst</title><g id="Layer_1" data-name="Layer 1"><circle class="cls-1" cx="606.91" cy="616.12" r="579.41"/><g class="cls-2"><path class="cls-3" d="M600,833.24l-.1,0-.81-.13a9.43,9.43,0,0,0-1.4-.18c-24.84-.5-51-3.75-80.09-9.93-15.4-3.28-33.47-7.65-50.79-15.25-32.33-14.19-59.41-35-80.5-61.85-21.6-27.5-34.65-58.24-38.79-91.37-.49-3.91-.82-7.9-1.14-11.76-.15-1.79-.3-3.59-.46-5.39V629l.14-1.29c.09-.85.18-1.71.29-2.57.38-3,.7-6,1-8.94a195.37,195.37,0,0,1,2.78-19.77c7.21-34,23.72-64.64,49.06-91.09A206.24,206.24,0,0,1,498.4,447.6,451.56,451.56,0,0,1,580.07,434c2.32-.16,4.67-.38,6.95-.59l3.18-.29h32l3.73.3c2.7.22,5.39.44,8.09.63,64.68,4.51,125.47,21.49,180.68,50.46,2.53,1.33,3.56,3,3.55,5.63-.07,21.32-.06,43,0,64v22.08l-3.36-1.75c-.72-.37-1.33-.69-1.93-1C778.1,554,743.65,542.33,707.64,537.63A227.85,227.85,0,0,0,678,535.42a130.63,130.63,0,0,0-22.78,1.88,105.74,105.74,0,0,0-54.48,27.85c-15,14.44-24.84,32.81-27.8,51.73-5.84,37.3,6.9,68.41,37.86,92.46,17.51,13.6,38.31,20.72,61.83,21.16,1.46,0,2.92,0,4.38,0,30.21,0,60.37-5.71,92.22-17.44a309.67,309.67,0,0,0,44-20.38c.51-.28,1-.55,1.7-.89l3.34-1.74v21.72c0,21,0,42.69,0,64a5.51,5.51,0,0,1-3.34,5.48c-42,22.29-88.3,37.69-137.62,45.78a439.34,439.34,0,0,1-62.45,5.79,13.07,13.07,0,0,0-1.79.2l-1,.13-.09,0Zm6.35-387.19c-31.38,0-64.22,4.26-100.39,13-46.71,11.31-84.17,35.52-111.35,72-29.79,40-40.61,83.7-32.15,130,10.72,58.64,45.4,103,103.1,131.84,18.18,9.08,38.09,14,55.18,17.51,31,6.47,58.7,9.61,84.71,9.61a439.31,439.31,0,0,0,74.35-6.44c44-7.58,85.39-21.17,123.07-40.37,1.49-.76,1.87-1.32,1.87-2.72-.08-13.8-.07-27.82-.07-41.38V713.5l-.93.44a299.16,299.16,0,0,1-109,29.17c-6.62.49-12.15.71-17.4.71a131.53,131.53,0,0,1-24.13-2c-58.09-10.77-99-60.64-95.21-116,1.53-22.28,10.37-43.56,25.57-61.53A117.36,117.36,0,0,1,641.58,527a134.68,134.68,0,0,1,36.83-4.69c5.23,0,10.67.22,16.63.68a305.68,305.68,0,0,1,109.34,29.19l.23.1V538.57c0-14.21,0-28.9,0-43.35,0-.8-.16-1.1-1.36-1.71-55.73-28.42-117-44.28-182.2-47.14C616.22,446.16,611.24,446.05,606.3,446.05Z"/><path class="cls-3" d="M622.19,434.61c3.93.3,7.85.64,11.78.91,63.93,4.47,124,20.9,180.08,50.3,2,1,2.76,2.11,2.75,4.29-.09,26.85,0,53.7,0,80.54v3c-1.28-.66-2.18-1.11-3.06-1.6-32.86-18.26-67.88-31-105.85-35.93A230.82,230.82,0,0,0,678,533.92a131.86,131.86,0,0,0-23,1.91c-42.27,7.44-77.25,40.93-83.5,80.81-5.94,37.91,7,69.46,38.42,93.88,18,14,39.28,21,62.72,21.47,1.47,0,3,0,4.41,0,32.08,0,62.88-6.53,92.74-17.53A310.34,310.34,0,0,0,813.94,694c.75-.42,1.53-.8,2.81-1.47v3q0,40.14,0,80.28a4,4,0,0,1-2.55,4.15c-42.87,22.76-88.69,37.68-137.15,45.63a435.15,435.15,0,0,1-62.24,5.77,29.41,29.41,0,0,0-2.92.35H600.05a19.18,19.18,0,0,0-2.38-.33c-27-.54-53.53-4.31-79.81-9.9-17.29-3.68-34.35-8.07-50.5-15.15q-48.27-21.2-79.92-61.41c-21.23-27-34.3-57.19-38.48-90.62-.71-5.68-1.08-11.4-1.6-17.11v-8.1c.14-1.25.26-2.5.42-3.75,1.21-9.54,1.78-19.2,3.77-28.59,7.28-34.3,23.79-64.39,48.67-90.36,26.89-28.07,59.67-47.41,98.55-57.37a453.46,453.46,0,0,1,81.41-13.56c3.39-.23,6.77-.59,10.16-.88h31.85M605.4,821.49A438.46,438.46,0,0,0,680,815c43.41-7.49,84.67-20.73,123.5-40.52,1.86-1,2.7-2,2.69-4.06-.1-18.91-.06-37.82-.07-56.73,0-.72-.11-1.44-.17-2.15l-.55,0a.5.5,0,0,0-.19,0c-.73.32-1.45.66-2.17,1a296.54,296.54,0,0,1-108.5,29c-5.77.42-11.54.7-17.29.7a130.26,130.26,0,0,1-23.85-2c-57.44-10.65-97.75-60-94-114.42,3.08-44.69,36.65-84.57,82.59-97.5a133.43,133.43,0,0,1,36.42-4.63c5.49,0,11,.25,16.52.68a302.72,302.72,0,0,1,108.8,29c.62.29,1.28.5,2.23.87.08-.82.15-1.23.15-1.64,0-19.16,0-38.33,0-57.49,0-1.66-.82-2.35-2.18-3.05-57-29.08-118.09-44.46-182.81-47.29q-7.45-.33-14.87-.33c-34.12,0-67.63,5-100.75,13.06-46.82,11.33-84.49,35.37-112.19,72.51-29.48,39.53-41.13,83.52-32.42,131.18,11,60.22,46.58,104.25,103.9,132.91,17.45,8.73,36.35,13.64,55.55,17.64,28,5.84,56.26,9.64,85,9.64m16.91-389.88H590.07l-3.23.29c-2.26.21-4.59.43-6.87.59A452.57,452.57,0,0,0,498,446.14a207.83,207.83,0,0,0-100,58.2c-25.54,26.65-42.17,57.55-49.44,91.82a191.78,191.78,0,0,0-2.81,19.93c-.31,2.93-.63,5.95-1,8.9-.11.87-.2,1.75-.29,2.62-.05.39-.09.79-.13,1.18l0,.16v8.55c.17,1.79.32,3.59.46,5.38.32,3.87.66,7.87,1.15,11.82,4.18,33.4,17.33,64.39,39.1,92.11,21.24,27,48.52,48,81.08,62.29,17.44,7.66,35.61,12.06,51.08,15.35,29.15,6.2,55.44,9.46,80.37,10a8.71,8.71,0,0,1,1.17.16l.86.14.2,0h12.28l.18,0,1-.14a12.83,12.83,0,0,1,1.6-.18,440.84,440.84,0,0,0,62.66-5.81c49.49-8.12,95.94-23.57,138.08-45.94a7,7,0,0,0,4.14-6.8c0-21.41,0-43.19,0-64.24v-24l-4.38,2.29-1.18.6c-.66.34-1.18.61-1.71.91a308.9,308.9,0,0,1-43.81,20.29C737,723.36,707,729,677,729c-1.44,0-2.91,0-4.36,0-23.18-.44-43.68-7.45-60.93-20.84-30.5-23.69-43-54.33-37.3-91,2.92-18.6,12.63-36.67,27.36-50.88a104.27,104.27,0,0,1,53.7-27.45A128.62,128.62,0,0,1,678,536.92a226.88,226.88,0,0,1,29.49,2.2c35.82,4.67,70.09,16.31,104.79,35.58.6.34,1.21.65,1.94,1l1.18.61,4.39,2.3V554.18c0-21,0-42.71,0-64.06,0-3.22-1.33-5.37-4.36-7-55.38-29.06-116.37-46.1-181.26-50.63-2.67-.18-5.38-.4-8-.62l-3.75-.3ZM605.4,818.49c-25.91,0-53.51-3.13-84.4-9.57-17-3.55-36.8-8.39-54.82-17.39-28.36-14.18-51.34-32.28-68.3-53.8-17.21-21.83-28.65-47.73-34-77-8.39-45.89,2.34-89.24,31.88-128.85,27-36.15,64.13-60.17,110.49-71.39,36.06-8.73,68.78-13,100-13,4.92,0,9.88.11,14.73.32a457.86,457.86,0,0,1,93.68,13.72,428.39,428.39,0,0,1,87.9,33.26,3.71,3.71,0,0,1,.55.31v0c0,14.39,0,29,0,43.17v11.48a307.45,307.45,0,0,0-108-28.42c-6-.45-11.48-.68-16.75-.68a136,136,0,0,0-37.23,4.74,119,119,0,0,0-58.85,37.79c-15.4,18.22-24.36,39.8-25.92,62.4-3.86,56.12,37.6,106.66,96.44,117.57a132.61,132.61,0,0,0,24.4,2.06c5.29,0,10.85-.22,17.5-.71a300.73,300.73,0,0,0,108.37-28.73V729c0,13.59,0,27.64.07,41.46,0,.76,0,.84-1.05,1.38-37.55,19.14-78.82,32.67-122.65,40.23a437.37,437.37,0,0,1-74.09,6.42Z"/></g><g class="cls-2"><path class="cls-3" d="M779.92,683.8v-59H744.76V582.22l1.38-.12.71-.07a16.2,16.2,0,0,1,1.74-.12H885.16c.52,0,1,0,1.57.07l.66,0,1.42.08v42.42l-34.15.14h-1V683.8ZM840,670.71V611.52h35V595H771.83c-4.81,0-8.69,0-12.23-.08h-.15c-1,0-1.2.16-1.21.17h0a2.33,2.33,0,0,0-.07,1.12c.14,2.3.11,4.61.08,6.86q0,1.43,0,2.85v5.76h35.47v59.05Z"/><path class="cls-3" d="M800.08,583.41h85.08c.71,0,1.43.07,2.15.11V623l-31.3.13h-3.86V682.3H781.42v-59H746.26V583.6c.79-.07,1.56-.19,2.33-.19h51.49m-43.36,29.74h35.47v59.06h49.29V613h35V593.45H786.34l-14.56,0q-6.07,0-12.16-.08h-.17c-2.31,0-2.91.75-2.78,2.88.19,3.2.05,6.41.05,9.62v7.25m43.36-32.74H748.59a17.73,17.73,0,0,0-1.89.13l-.68.07-2.76.23v45.41h35.16v59h76.73V626.17H856l24.19-.1,7.11,0h3V580.69l-2.84-.16-.64,0c-.53,0-1.08-.07-1.67-.07Zm-40.36,29.74V605.9c0-.95,0-1.89,0-2.84,0-2.17,0-4.41-.07-6.66,3.51.06,7.36.08,12.1.08H873.5V610h-35v59.19H795.19V610.15H759.72Z"/></g><path class="cls-4" d="M439.48,742.14c-17.59.22-39.12-13.66-39.1-37.06q0-35.33,0-70.65c0-13.51-.07-27,0-40.52.21-35.27,26.09-63.66,63.17-69.37,40.4-6.24,79.72,21.44,84.68,59.61,5,38.52-22.28,72.32-63.14,78.16a77.85,77.85,0,0,1-26.28-.86c-.75-.15-1.85-1.18-1.85-1.8-.1-12.16-.06-24.31,0-36.47,0-.15.12-.3.27-.65,1.14.44,2.27.89,3.41,1.32,15.86,6,33.82,1.12,43.15-11.74a31.72,31.72,0,0,0-3.37-41.38c-9.61-9.72-24.73-12.93-38.45-8.16-12.9,4.48-21.95,16.23-22.38,29.32-.19,6-.08,12-.08,18q0,64.71,0,129.41Z"/><g class="cls-5"><text class="cls-6" transform="translate(269.88 404.19) rotate(-48.21)">п</text><text class="cls-6" transform="translate(327.19 339.37) rotate(-36.47)">р</text><text class="cls-6" transform="translate(396.49 287.59) rotate(-24.72)">о</text><text class="cls-6" transform="matrix(0.97, -0.23, 0.23, 0.97, 475.18, 251.29)">в</text><text class="cls-6" transform="matrix(1, -0.04, 0.04, 1, 552.48, 231.93)">е</text><text class="cls-6" transform="translate(638.94 227.93) rotate(9.34)">р</text><text class="cls-6" transform="matrix(0.93, 0.36, -0.36, 0.93, 724.39, 241.51)">е</text><text class="cls-6" transform="translate(805.3 271.9) rotate(33.2)">н</text><text class="cls-6" transform="translate(882.96 322.49) rotate(45.18)">о</text><text class="cls-6" transform="translate(199.33 708.81) rotate(75.8)">л</text><text class="cls-6" transform="translate(229.57 818.22) rotate(60.92)">а</text><text class="cls-6" transform="translate(283.01 910.29) rotate(46.44)">б</text><text class="cls-6" transform="matrix(0.85, 0.53, -0.53, 0.85, 357.61, 985.88)">о</text><text class="cls-6" transform="matrix(0.95, 0.31, -0.31, 0.95, 448.61, 1040.92)">р</text><text class="cls-6" transform="translate(550.54 1071.54) rotate(3.33)">а</text><text class="cls-6" transform="translate(654.72 1074.93) rotate(-9.26)">т</text><text class="cls-6" transform="matrix(0.93, -0.37, 0.37, 0.93, 736.37, 1061.32)">о</text><text class="cls-6" transform="matrix(0.81, -0.59, 0.59, 0.81, 834.39, 1019.93)">р</text><text class="cls-6" transform="matrix(0.63, -0.78, 0.78, 0.63, 919.49, 955.24)">и</text><text class="cls-6" transform="matrix(0.41, -0.91, 0.91, 0.41, 987.91, 866.65)">е</text><text class="cls-6" transform="matrix(0.16, -0.99, 0.99, 0.16, 1030.18, 768.38)">й</text></g></g></svg>