<svg xmlns="http://www.w3.org/2000/svg" viewBox="0 0 1213.82 1227.27"><defs><style>.cls-1,.cls-3{opacity:0.6;}.cls-2{font-size:297.19px;}.cls-2,.cls-4{fill:#333;font-family:Arial-Black, Arial Black;font-weight:800;}.cls-3{fill:none;stroke:#333;stroke-miterlimit:10;stroke-width:23px;}.cls-4{font-size:136.38px;}</style></defs><title>24</title><g id="Layer_1" data-name="Layer 1"><g class="cls-1"><text class="cls-2" transform="translate(407.88 766.82)">24</text></g><circle class="cls-3" cx="606.91" cy="613.63" r="579.41"/><g class="cls-1"><text class="cls-4" transform="translate(210.57 523.2) rotate(-66.43)">с</text><text class="cls-4" transform="translate(244.73 443.71) rotate(-54.7)">р</text><text class="cls-4" transform="matrix(0.73, -0.68, 0.68, 0.73, 294.36, 372.84)">о</text><text class="cls-4" transform="translate(357.58 313.65) rotate(-31.51)">к</text><text class="cls-4" transform="matrix(0.92, -0.39, 0.39, 0.92, 429.98, 270.8)"> </text><text class="cls-4" transform="translate(468.04 252.48) rotate(-14.27)">х</text><text class="cls-4" transform="matrix(1, -0.04, 0.04, 1, 551.77, 230.7)">р</text><text class="cls-4" transform="matrix(0.99, 0.16, -0.16, 0.99, 638.19, 226.42)">а</text><text class="cls-4" transform="translate(723.67 239.52) rotate(21.19)">н</text><text class="cls-4" transform="matrix(0.84, 0.55, -0.55, 0.84, 810.1, 272.83)">е</text><text class="cls-4" transform="matrix(0.7, 0.71, -0.71, 0.7, 882.78, 319.6)">н</text><text class="cls-4" transform="translate(948.02 385.28) rotate(57.88)">и</text><text class="cls-4" transform="translate(996.77 463.12) rotate(69.46)">я</text><text class="cls-4" transform="translate(324.18 962.03) rotate(35.42)">м</text><text class="cls-4" transform="matrix(0.94, 0.33, -0.33, 0.94, 434.75, 1035.51)">е</text><text class="cls-4" transform="translate(535.96 1068.48) rotate(4.63)">с</text><text class="cls-4" transform="matrix(0.99, -0.16, 0.16, 0.99, 641.35, 1074.87)">я</text><text class="cls-4" transform="translate(740.24 1057.66) rotate(-23.35)">ц</text><text class="cls-4" transform="matrix(0.79, -0.62, 0.62, 0.79, 840.12, 1012.09)">а</text></g></g></svg>