<svg xmlns="http://www.w3.org/2000/svg" viewBox="0 0 10922.81 1475.68"><defs><style>.cls-1,.cls-3,.cls-5{opacity:0.6;}.cls-2{font-size:297.19px;}.cls-2,.cls-4,.cls-5,.cls-8{fill:#333;}.cls-2,.cls-4{font-family:Arial-Black, Arial Black;font-weight:800;}.cls-3,.cls-6{fill:none;}.cls-3{stroke:#333;stroke-miterlimit:10;stroke-width:23px;}.cls-4{font-size:136.38px;}.cls-7{opacity:0.7;}</style></defs><title>big krujochki 2</title><g id="Layer_1" data-name="Layer 1"><g class="cls-1"><text class="cls-2" transform="translate(335.85 855.28)">2014</text></g><circle class="cls-3" cx="726.69" cy="702.1" r="579.41"/><g class="cls-1"><text class="cls-4" transform="translate(335.68 596.05) rotate(-64.21)">п</text><text class="cls-4" transform="translate(372.9 517.95) rotate(-52.47)">р</text><text class="cls-4" transform="translate(425.25 449.06) rotate(-40.72)">о</text><text class="cls-4" transform="matrix(0.88, -0.48, 0.48, 0.88, 490.3, 392.09)">и</text><text class="cls-4" transform="translate(570.67 347.82) rotate(-16.76)">с</text><text class="cls-4" transform="translate(653.6 322.76) rotate(-5.52)">в</text><text class="cls-4" transform="translate(732.79 314.32) rotate(5.79)">о</text><text class="cls-4" transform="translate(818.94 322.67) rotate(17.43)">д</text><text class="cls-4" transform="translate(901.09 347.61) rotate(29.31)">и</text><text class="cls-4" transform="translate(981.65 390.85) rotate(43)">м</text><text class="cls-4" transform="matrix(0.6, 0.8, -0.8, 0.6, 1061.01, 468.67)"> </text><text class="cls-4" transform="translate(1087.79 501.35) rotate(62.09)">с</text><text class="cls-4" transform="translate(542.91 1116.98) rotate(22.38)">г</text><text class="cls-4" transform="translate(619.6 1148.25) rotate(9.77)">о</text><text class="cls-4" transform="translate(724.73 1164.35) rotate(-4.64)">д</text><text class="cls-4" transform="translate(829.72 1153.9) rotate(-18.95)">а</text></g><g class="cls-1"><text class="cls-2" transform="translate(10041.26 855.28)">24</text></g><circle class="cls-3" cx="10240.29" cy="702.1" r="579.41"/><g class="cls-1"><text class="cls-4" transform="translate(9843.95 611.67) rotate(-66.43)">с</text><text class="cls-4" transform="translate(9878.11 532.17) rotate(-54.7)">р</text><text class="cls-4" transform="matrix(0.73, -0.68, 0.68, 0.73, 9927.74, 461.31)">о</text><text class="cls-4" transform="translate(9990.96 402.11) rotate(-31.51)">к</text><text class="cls-4" transform="matrix(0.92, -0.39, 0.39, 0.92, 10063.36, 359.26)"> </text><text class="cls-4" transform="translate(10101.43 340.94) rotate(-14.27)">х</text><text class="cls-4" transform="matrix(1, -0.04, 0.04, 1, 10185.15, 319.16)">р</text><text class="cls-4" transform="matrix(0.99, 0.16, -0.16, 0.99, 10271.57, 314.88)">а</text><text class="cls-4" transform="translate(10357.05 327.98) rotate(21.19)">н</text><text class="cls-4" transform="matrix(0.84, 0.55, -0.55, 0.84, 10443.49, 361.29)">е</text><text class="cls-4" transform="matrix(0.7, 0.71, -0.71, 0.7, 10516.16, 408.06)">н</text><text class="cls-4" transform="translate(10581.41 473.74) rotate(57.88)">и</text><text class="cls-4" transform="translate(10630.15 551.58) rotate(69.46)">я</text><text class="cls-4" transform="translate(9957.56 1050.49) rotate(35.42)">м</text><text class="cls-4" transform="matrix(0.94, 0.33, -0.33, 0.94, 10068.13, 1123.97)">е</text><text class="cls-4" transform="translate(10169.34 1156.94) rotate(4.63)">с</text><text class="cls-4" transform="matrix(0.99, -0.16, 0.16, 0.99, 10274.73, 1163.33)">я</text><text class="cls-4" transform="translate(10373.62 1146.12) rotate(-23.35)">ц</text><text class="cls-4" transform="matrix(0.79, -0.62, 0.62, 0.79, 10473.5, 1100.55)">а</text></g><path class="cls-5" d="M2403.94,651.19l-33.58,61c-7.15-12-15.17-22.51-29.24-27a8.13,8.13,0,0,1,.39-2.17q14.14-28.18,28.39-56.31c1.11-2.2,2.55-4.25,3.78-6.4,12-21.08,30-31.55,55.58-30.42,20.48.9,41,.12,61.54.62a43.39,43.39,0,0,1,35,18.11,251.77,251.77,0,0,1,19.59,31.54c12.38,23.45,24.06,47.23,36,70.9,5.6,11.1,2.22,22-8.21,26.91s-21.5.84-27.42-10.09q-19.84-36.61-39.55-73.3a11,11,0,0,0-3.33-4c10.82,50.19,21.63,100.38,32.6,151.31H2502.3c-.15,1.93-.34,3.27-.34,4.61,0,24.73,0,49.46-.11,74.2,0,8.29-4,14.54-11.68,18.25-7.88,3.83-15.69,3-22.78-2-6-4.27-8.49-10.32-8.49-17.41q0-36-.05-72.09v-5h-9.56c0,1.9,0,3.77,0,5.63,0,24,0,48.06-.06,72.09,0,8.94-4.38,15.45-12.92,19.09-8.15,3.47-15.81,2.14-22.58-3.24-5.6-4.47-7.53-10.55-7.52-17.36q0-35.25,0-70.51v-5.69H2384.6c3.39-2.48,6-4,8.07-6,7-6.84,8.9-18.62,4.42-28-2.89-6-6.4-11.85-9-18a17.89,17.89,0,0,1-1.42-9.91c5.83-28.88,12-57.7,18.08-86.53a20.11,20.11,0,0,0,.23-2.58Z"/><path class="cls-5" d="M2102.48,648.82q-9.21,16.93-18.4,33.86c-8.5,15.71-16.86,31.49-25.51,47.12a19.77,19.77,0,0,1-20.11,10c-8.53-1.29-15.38-6.7-16.64-14.64a22.16,22.16,0,0,1,1.67-12.67c14-28.15,28.1-56.25,42.89-84,4.6-8.65,10.76-16.71,17.29-24.17,7.72-8.83,18.44-13.49,30.46-13.73,23.07-.48,46.16-.28,69.23-.39,20.56-.1,35.46,9.5,45.36,25.86,8.78,14.52,16.28,29.77,24.09,44.81,4.05,7.8,7.55,15.85,11.41,24-14.63,5.66-22,17.35-29.37,30.17L2200.31,649l-1,.08v12.69q0,108.39,0,216.79c0,10.94-5.34,18.69-14.78,21.65-14.18,4.45-28.1-5.35-28.15-20.09-.12-37.54-.07-75.07-.08-112.61V761h-9.68v26.73q0,45.51,0,91c0,13.21-8.93,22.41-21.54,22.41s-21.38-9.26-21.38-22.52q-.06-112.08,0-224.16V649.2Z"/><path class="cls-5" d="M2335.43,735.66v6.67q0,70.27,0,140.54a46.54,46.54,0,0,1-.11,4.73c-.88,8.69-6.87,14-15.5,13.69-7.84-.24-13.73-6.41-13.76-14.83-.07-23.87,0-47.73,0-71.59v-6.72l-5.23-.6a41.24,41.24,0,0,0-.46,4.29c0,24.56,0,49.12,0,73.69,0,8.65-5.32,15-13,15.72-9.17.92-16.25-5.39-16.38-15-.18-12.8-.06-25.61-.06-38.42q0-54,0-107.9c0-1.51-.14-3-.28-6.12-2,3.56-3.22,5.78-4.44,8-7.92,14.59-15.77,29.22-23.76,43.77-4.39,8-11.94,10.65-19.08,7-6.87-3.51-8.79-10.79-4.78-18.62,10-19.47,19.83-39,30.06-58.34,7.9-15,20.3-23,38.47-21.79,7.12.47,14.29.11,21.44.11l15.4,0c11.81,0,21.59,4.35,28.11,13.72a228.53,228.53,0,0,1,14.27,24.18c7.41,14,14.41,28.29,21.52,42.48,3.88,7.74,1.69,15.17-5.32,18.48s-14.4.65-18.62-7.07c-9.14-16.72-18.16-33.5-27.24-50.25Z"/><path class="cls-5" d="M2103.53,536.18c.16-25.45,21.43-45.6,48.06-45.52,26.33.08,47.79,20.87,47.61,46.1-.19,25.53-21.84,45.74-48.74,45.5C2124.38,582,2103.37,561.4,2103.53,536.18Z"/><path class="cls-5" d="M2501.84,536.57c-.19,25.8-21.44,45.84-48.44,45.7-26.24-.13-47.5-21-47.22-46.42.27-25.2,22-45.4,48.53-45.17C2480.88,490.91,2502,511.49,2501.84,536.57Z"/><path class="cls-5" d="M2302.5,689.08c-17.9-.64-32-14.61-31.55-31.29.43-16.86,16-30.92,33.4-30.17s31.78,15.44,31,31.42A31.6,31.6,0,0,1,2302.5,689.08Z"/><circle class="cls-3" cx="2302.79" cy="702.1" r="579.41"/><g class="cls-1"><text class="cls-4" transform="translate(1970.95 492.07) rotate(-48.33)">с</text><text class="cls-4" transform="translate(2028.11 427.13) rotate(-36.59)">е</text><text class="cls-4" transform="translate(2096.15 374.16) rotate(-23.27)">м</text><text class="cls-4" transform="translate(2197.84 331.34) rotate(-10.06)">е</text><text class="cls-4" transform="translate(2282.86 315.48) rotate(1.91)">й</text><text class="cls-4" transform="matrix(0.97, 0.25, -0.25, 0.97, 2374.47, 317.96)">н</text><text class="cls-4" transform="translate(2464.2 340.8) rotate(26.54)">о</text><text class="cls-4" transform="translate(2541.85 379.13) rotate(38.13)">е</text><text class="cls-4" transform="matrix(0.24, 0.97, -0.97, 0.24, 1895.21, 795.28)">п</text><text class="cls-4" transform="translate(1922.19 898.12) rotate(61.98)">р</text><text class="cls-4" transform="translate(1973.91 991.15) rotate(47.5)">о</text><text class="cls-4" transform="translate(2047.3 1068.63) rotate(32.81)">и</text><text class="cls-4" transform="translate(2142.88 1127.53) rotate(17.87)">з</text><text class="cls-4" transform="translate(2245.78 1158.23) rotate(3.86)">в</text><text class="cls-4" transform="translate(2344.27 1163.51) rotate(-9.89)">о</text><text class="cls-4" transform="translate(2448.54 1143.37) rotate(-24.15)">д</text><text class="cls-4" transform="translate(2544.2 1098.42) rotate(-38.55)">с</text><text class="cls-4" transform="matrix(0.63, -0.78, 0.78, 0.63, 2624.1, 1031.26)">т</text><text class="cls-4" transform="translate(2675.01 966.97) rotate(-63.2)">в</text><text class="cls-4" transform="translate(2718.34 878.16) rotate(-77.12)">о</text></g><path class="cls-6" d="M4115.25,697.09q-12.54,14.67-12.54,48.51,0,33.55,12.47,48.21t33.92,14.66q22.07,0,34.16-14.36t12.09-51.53a114,114,0,0,0-1.75-20.9A112.27,112.27,0,0,0,4180,736.13a149.52,149.52,0,0,0-17.45,28.34c-.46,1-1,1.87-1.55,2.86-.49-.41-.73-.51-.79-.67-.35-1-.68-2-1-3a236.12,236.12,0,0,0-15.43-39.5,180.1,180.1,0,0,0-21.67-33.55A43.5,43.5,0,0,0,4115.25,697.09Z"/><polygon class="cls-5" points="3544.33 855.92 3612.63 855.92 3612.63 688.78 3719.78 688.78 3719.78 634.38 3544.33 634.38 3544.33 855.92"/><polygon class="cls-5" points="3874.75 769.18 3840.03 634.38 3750 634.38 3750 855.92 3806.07 855.92 3806.07 686.97 3849.18 855.92 3899.93 855.92 3943.13 686.97 3943.13 855.92 3999.19 855.92 3999.19 634.38 3909.22 634.38 3874.75 769.18"/><path class="cls-5" d="M4233.88,660.3q-29.93-29.7-85.23-29.7-54,0-84.17,30.22t-30.23,84.48q0,38.84,15.27,64.68t39.82,37.78q24.56,11.94,62,11.94,36.87,0,61.58-13.83a93.15,93.15,0,0,0,37.78-38.69q13.07-24.85,13.07-63.69Q4263.8,690,4233.88,660.3ZM4206.45,840c-17.68,10.24-36.73,15.29-64.18,15.26-35-1.37-68.18-19.16-90.63-55.89a104.05,104.05,0,0,1-15.25-55c0-36.07,14.18-65.34,41.43-88.06a108.38,108.38,0,0,1,56.49-24.45c44.3-5.75,86,13.94,109.76,49.76a109.5,109.5,0,0,1,17.84,49.46C4266.84,776.59,4243.81,818.38,4206.45,840Z"/><path class="cls-5" d="M4159.18,763.7c.3,1,.63,2,1,3,.06.16.3.26.79.67.54-1,1.09-1.9,1.55-2.86A149.52,149.52,0,0,1,4180,736.13a112.27,112.27,0,0,1,13.65-14.45q-2.94-15.73-10.87-24.81-12.61-14.43-34.23-14.44-15.49,0-26.42,8.22a180.1,180.1,0,0,1,21.67,33.55A236.12,236.12,0,0,1,4159.18,763.7Z"/><path class="cls-5" d="M4261.91,731.05a109.5,109.5,0,0,0-17.84-49.46c-23.78-35.82-65.46-55.51-109.76-49.76a108.38,108.38,0,0,0-56.49,24.45c-27.25,22.72-41.45,52-41.43,88.06a104.05,104.05,0,0,0,15.25,55c22.45,36.73,55.6,54.52,90.63,55.89,27.45,0,46.5-5,64.18-15.26C4243.81,818.38,4266.84,776.59,4261.91,731.05Zm-31.76,22.7c-3.06,26.45-12.88,49.93-30.14,70a96.44,96.44,0,0,1-40.39,28.31,6.83,6.83,0,0,1-7.07-.91c-15.77-11.09-30.56-23.3-43.27-38-16.84-19.43-28.29-41.62-33.33-67.11a171.6,171.6,0,0,1-3-35.19c.18-18.15,2.91-35.95,6.95-53.58.1-.4.19-.81.33-1.2a5.91,5.91,0,0,1,.66-.86c2.71,1.73,5.35,3.33,7.9,5a155,155,0,0,1,33.26,30.34q10.92-8.22,26.42-8.22,21.61,0,34.23,14.44,7.94,9.07,10.87,24.81a97.77,97.77,0,0,1,28-17.36c.76-.31,1.53-.61,2.31-.88a8.92,8.92,0,0,1,1.23-.16c.39,1.09.85,2.22,1.19,3.38A116.89,116.89,0,0,1,4230.15,753.75Z"/><circle class="cls-3" cx="3890.29" cy="702.1" r="579.41"/><g class="cls-1"><text class="cls-4" transform="matrix(0.56, -0.83, 0.83, 0.56, 3518.95, 543.46)">н</text><text class="cls-4" transform="matrix(0.72, -0.69, 0.69, 0.72, 3570.5, 466.51)">е</text><text class="cls-4" transform="matrix(0.82, -0.58, 0.58, 0.82, 3634.46, 406.97)"> </text><text class="cls-4" transform="matrix(0.9, -0.44, 0.44, 0.9, 3667.82, 381.08)">с</text><text class="cls-4" transform="translate(3745.21 342.26) rotate(-14.72)">о</text><text class="cls-4" transform="matrix(1, -0.05, 0.05, 1, 3828.81, 319.87)">д</text><text class="cls-4" transform="translate(3914.52 314.71) rotate(8.59)">е</text><text class="cls-4" transform="translate(4000.15 327.19) rotate(20.34)">р</text><text class="cls-4" transform="translate(4081.86 354.61) rotate(34.14)">ж</text><text class="cls-4" transform="matrix(0.66, 0.75, -0.75, 0.66, 4180.98, 423.21)">и</text><text class="cls-4" transform="translate(4241.35 492.76) rotate(59.17)">т</text></g><path class="cls-5" d="M8700,916.54h-48V744.33h-49V916.52H8555v-388h145Zm-48.64-215.95V571.7h-47.7V700.59Z"/><path class="cls-5" d="M8456.78,743.85v129.8h47.64v42.76h-96.18V528.52h96.35v42.3h-47.7V700.7h47.53v43.15Z"/><path class="cls-5" d="M8799,873.92h47.89v42.37h-96.69V528.66H8847v42.39h-48Z"/><circle class="cls-3" cx="8627.58" cy="702.1" r="579.41"/><g class="cls-1"><text class="cls-4" transform="translate(8227.47 588.34) rotate(-64.25)">п</text><text class="cls-4" transform="translate(8264.64 510.21) rotate(-52.51)">о</text><text class="cls-4" transform="translate(8316.96 441.3) rotate(-40.81)">д</text><text class="cls-4" transform="translate(8382.65 385.36) rotate(-30.58)">т</text><text class="cls-4" transform="translate(8438.56 351.22) rotate(-20.8)">в</text><text class="cls-4" transform="matrix(0.99, -0.17, 0.17, 0.99, 8512.78, 322.21)">е</text><text class="cls-4" transform="translate(8598.03 307.34) rotate(2.16)">р</text><text class="cls-4" transform="translate(8684.16 307.89) rotate(16.14)">ж</text><text class="cls-4" transform="translate(8799.69 342.85) rotate(29.92)">д</text><text class="cls-4" transform="translate(8874.35 385.23) rotate(41.64)">е</text><text class="cls-4" transform="matrix(0.59, 0.81, -0.81, 0.59, 8939.48, 442.06)">н</text><text class="cls-4" transform="translate(8994.38 516.72) rotate(65.79)">о</text></g><circle class="cls-3" cx="5476.11" cy="702.1" r="579.41"/><g class="cls-1"><text class="cls-4" transform="matrix(0.97, -0.22, 0.22, 0.97, 5347.1, 349.71)">б</text><text class="cls-4" transform="translate(5431.31 329.82) rotate(-1.24)">е</text><text class="cls-4" transform="matrix(0.98, 0.18, -0.18, 0.98, 5517.78, 327.42)">з</text><text class="cls-4" transform="matrix(0.94, 0.33, -0.33, 0.94, 5604.85, 345.31)"> </text><text class="cls-4" transform="translate(5064.67 806.98) rotate(76.59)">к</text><text class="cls-4" transform="matrix(0.46, 0.89, -0.89, 0.46, 5090.04, 906.42)">о</text><text class="cls-4" transform="translate(5140.95 1000.61) rotate(47.54)">н</text><text class="cls-4" transform="matrix(0.84, 0.54, -0.54, 0.84, 5219.04, 1082.22)">с</text><text class="cls-4" transform="translate(5309.46 1138.2) rotate(18.39)">е</text><text class="cls-4" transform="translate(5411.04 1169.9) rotate(3.93)">р</text><text class="cls-4" transform="matrix(0.99, -0.17, 0.17, 0.99, 5516.53, 1174.94)">в</text><text class="cls-4" transform="translate(5613.48 1156.81) rotate(-23.57)">а</text><text class="cls-4" transform="matrix(0.78, -0.62, 0.62, 0.78, 5710.88, 1112.49)">н</text><text class="cls-4" transform="translate(5795.76 1040.76) rotate(-51.71)">т</text><text class="cls-4" transform="translate(5846.81 975.72) rotate(-64.22)">о</text><text class="cls-4" transform="translate(5890.79 879.51) rotate(-78.15)">в</text></g><path class="cls-5" d="M5363.93,930c4.78-4.56,8.78-9.68,13.95-12.93,4.91-3.09,8.27-8,13-10.52s7.52-6.69,11.57-9.54c6.36-4.48,11.58-10.35,17.74-14.78,4.35-3.13,7.72-7.18,12-10.08,6.26-4.23,11.11-10.21,17.18-14.26,4.73-3.16,8-7.64,12.62-10.55,6.21-3.94,10.71-9.9,16.58-13.83,4.4-2.94,7.44-7.47,11.86-9.64,6.1-3,9.19-9.23,14.64-12.15,5.94-3.18,9.18-9.19,14.63-12.15,5.9-3.2,9.17-9.24,14.62-12.18,5.92-3.19,9.43-8.61,14.57-12.28,2.24-1.6,5.55-2,8.44-2.32,12-1.45,24.15-2.25,36.09-4.19,6.19-1,12.14-3.71,18.06-6,3.9-1.5,4.35-3,2.25-6.53-4.18-7.08-8.59-14-12.9-21-.13-.21-.21-.45-.44-.92,2.13-2.81,4.05-5.45,7.92-7.06,3.41-1.41,5.79-5.27,8.66-8,1.24-1.2,2.38-2.93,3.88-3.37,2.4-.71,4.9-1.07,6.93,1.8A191.7,191.7,0,0,1,5650,759.33c9.82,25.29,10.8,51.56,8.69,78-1.34,16.83-6.46,33-13.43,48.49a169,169,0,0,1-43.19,58.65A165.51,165.51,0,0,1,5550,975.66c-23.32,8.64-47.28,12.64-72.12,10.62a169.19,169.19,0,0,1-113.62-55.68C5364,930.26,5363.81,929.76,5363.93,930Z"/><path class="cls-5" d="M5578.66,674.05c-3,2-6.08,3.78-8.89,6-2.15,1.66-3.8,4-5.93,5.66-3.41,2.73-7,5.22-10.58,7.73a2,2,0,0,1-1.76.1c-4.62-2.18-9.47-4-13.71-6.8-4.55-3-6.23-7.85-6.22-13.34q.06-40.93,0-81.89c0-7.13,0-7.13-7.1-7.13h-69.12c-6.44,0-6.45,0-6.45,6.3v77.75c0,14.26-2.4,17.49-15.52,23.12-24.11,10.35-43.08,26.92-57.33,48.84a151.79,151.79,0,0,0-11,20.82c37.28-15.87,74.83-17.89,114.07-5.81-3.33,3.25-4.89,6.45-9,7.62-2.42.69-4,4-6.27,5.63-6.39,4.61-11.78,10.5-18,15-4.22,3.08-7.56,7-11.73,9.87-6.29,4.38-11.42,10.18-17.5,14.51-4.37,3.11-7.72,7.18-12,10.08-6.27,4.23-11.13,10.22-17.2,14.26-4.74,3.16-8.09,7.51-12.59,10.61-5.06,3.5-9.25,8.29-14.26,11.37s-8.46,7.43-12.84,10.92c-4.58,3.64-9,7.5-13.61,11.06-.47.36-2.64-.41-3-1.12a77.14,77.14,0,0,1-4.06-10.86c-6.53-23.92-9.19-48.14-5-72.79,7.1-41.88,26.49-76.87,59.09-104.28a155.28,155.28,0,0,1,32.26-21c3.08-1.5,4.75-3.47,4.72-7.23-.15-23.17-.06-46.33-.08-69.5,0-4.76-.41-5.07-5.12-5.2-5.07-.15-10.23.74-15-2.2-5.68-3.5-8.43-8.45-8-15,.45-6.25,3.65-10.88,9.56-13.14a25.15,25.15,0,0,1,8.7-1.77q82.08-.16,164.16-.07c10.79,0,18.52,7.07,18.36,16.6-.13,7.61-7.08,15-14.68,15.5a59.94,59.94,0,0,1-8.26.06c-3.45-.26-4.69,1.15-4.64,4.54.13,9,.05,18,0,27,0,14.15.14,28.31-.08,42.45-.06,4.26,1.4,6.68,5.32,8.33,3.49,1.47,6.65,3.73,10,5.63C5578.45,672.88,5578.56,673.46,5578.66,674.05Z"/><path class="cls-5" d="M5517,478.69c15,.28,26.9,11.6,26.9,26.55,0,15.34-11.21,26.83-26.86,26.94-15.16.1-26.47-11.85-26.74-26.73C5490.05,491,5502.43,478.77,5517,478.69Z"/><path class="cls-5" d="M5436.05,468.31A23,23,0,1,1,5459,491.55,23.24,23.24,0,0,1,5436.05,468.31Z"/><path class="cls-5" d="M5513.7,417.49c10.18-1.09,19.14,9.45,18.78,18.62-.4,10.34-8.55,18.82-18.91,18.85s-18.61-8.57-19-19.17C5494.32,427.48,5502.86,416.23,5513.7,417.49Z"/><circle class="cls-3" cx="7065.29" cy="702.1" r="579.41"/><g class="cls-7"><path class="cls-8" d="M7058.33,919.21l-.1,0-.81-.13a9.3,9.3,0,0,0-1.39-.18c-24.84-.5-51-3.75-80.1-9.93-15.4-3.27-33.47-7.65-50.79-15.25-32.33-14.19-59.41-35-80.5-61.85-21.6-27.5-34.65-58.24-38.79-91.37-.49-3.91-.82-7.9-1.14-11.75-.15-1.8-.3-3.6-.46-5.4V715l.14-1.28c.09-.86.18-1.72.29-2.58.38-3,.7-6,1-8.94a192.61,192.61,0,0,1,2.79-19.77c7.21-34,23.71-64.64,49.05-91.09a206.28,206.28,0,0,1,99.26-57.78,450.78,450.78,0,0,1,81.67-13.6c2.32-.16,4.67-.38,6.95-.6l3.19-.29h32l3.74.29c2.69.22,5.39.44,8.08.63,64.69,4.51,125.47,21.49,180.68,50.46,2.53,1.33,3.56,3,3.55,5.63-.07,21.32-.06,43-.05,64v22.08l-3.36-1.75c-.72-.37-1.33-.69-1.92-1C7236.48,640,7202,628.3,7166,623.6a227.85,227.85,0,0,0-29.68-2.21,130.71,130.71,0,0,0-22.78,1.88,105.77,105.77,0,0,0-54.48,27.85c-15,14.44-24.83,32.81-27.79,51.73-5.85,37.3,6.89,68.41,37.85,92.46,17.51,13.6,38.31,20.72,61.83,21.16,1.46,0,2.93,0,4.38,0,30.21,0,60.37-5.7,92.22-17.44a308.57,308.57,0,0,0,44-20.38c.51-.28,1-.55,1.7-.89l3.34-1.74v21.72c0,21,0,42.69,0,64a5.5,5.5,0,0,1-3.34,5.48c-42,22.29-88.3,37.69-137.62,45.78a439.21,439.21,0,0,1-62.45,5.79,13.24,13.24,0,0,0-1.79.2l-1,.14h-12.17ZM7064.68,532c-31.38,0-64.22,4.26-100.39,13-46.71,11.31-84.17,35.52-111.34,72-29.8,40-40.62,83.7-32.15,130,10.71,58.64,45.4,103,103.1,131.84,18.17,9.09,38.09,13.95,55.18,17.52,31,6.46,58.69,9.6,84.71,9.6a439.28,439.28,0,0,0,74.34-6.44c44-7.58,85.39-21.17,123.07-40.37,1.49-.76,1.88-1.32,1.87-2.72-.07-13.8-.07-27.82-.07-41.38V799.47l-.93.44a299.12,299.12,0,0,1-109,29.18c-6.62.48-12.15.7-17.4.7a131.41,131.41,0,0,1-24.12-2c-58.1-10.77-99-60.64-95.22-116,1.53-22.28,10.37-43.56,25.57-61.53A117.45,117.45,0,0,1,7100,612.92a134.57,134.57,0,0,1,36.83-4.69c5.22,0,10.66.23,16.62.68a305.83,305.83,0,0,1,109.34,29.19l.23.1V624.55c0-14.22,0-28.91.06-43.36,0-.8-.17-1.1-1.37-1.71-55.73-28.42-117-44.28-182.2-47.13C7074.61,532.13,7069.63,532,7064.68,532Z"/><path class="cls-8" d="M7080.58,520.58c3.92.3,7.84.64,11.77.92,63.93,4.46,124.06,20.89,180.08,50.29,2,1,2.76,2.11,2.75,4.29-.08,26.85-.05,53.7-.05,80.54v3c-1.27-.67-2.18-1.12-3.06-1.61-32.86-18.26-67.88-31-105.85-35.93a230.82,230.82,0,0,0-29.88-2.23,131.86,131.86,0,0,0-23,1.91c-42.27,7.45-77.25,40.93-83.5,80.81-5.93,37.91,7,69.47,38.42,93.89,18.05,14,39.29,21,62.72,21.47,1.47,0,3,0,4.42,0,32.07,0,62.88-6.53,92.73-17.53A308.24,308.24,0,0,0,7272.32,780c.76-.42,1.54-.8,2.81-1.47v3q0,40.14,0,80.29a4,4,0,0,1-2.54,4.14c-42.88,22.76-88.7,37.68-137.16,45.63a435.15,435.15,0,0,1-62.24,5.77,28.86,28.86,0,0,0-2.91.35h-11.88a21.94,21.94,0,0,0-2.38-.33c-27-.54-53.54-4.31-79.82-9.9-17.29-3.68-34.34-8.06-50.49-15.15q-48.28-21.2-79.93-61.4c-21.22-27-34.3-57.2-38.48-90.63-.71-5.68-1.07-11.4-1.6-17.11v-8.1c.14-1.25.26-2.5.42-3.75,1.22-9.54,1.78-19.2,3.77-28.59,7.28-34.3,23.79-64.39,48.68-90.36,26.89-28.07,59.66-47.41,98.54-57.37a453.46,453.46,0,0,1,81.41-13.56c3.39-.23,6.77-.59,10.16-.88h31.86m-16.79,386.88a438.34,438.34,0,0,0,74.59-6.46c43.41-7.49,84.68-20.73,123.51-40.52,1.86-1,2.69-2,2.68-4.06-.1-18.91-.06-37.82-.07-56.73,0-.72-.11-1.44-.16-2.15l-.56,0a.48.48,0,0,0-.18,0c-.74.32-1.46.66-2.18,1a296.09,296.09,0,0,1-108.5,29c-5.77.42-11.53.7-17.29.7a130.34,130.34,0,0,1-23.85-2c-57.44-10.64-97.74-60-94-114.41,3.07-44.7,36.64-84.58,82.58-97.51a133.48,133.48,0,0,1,36.42-4.63c5.49,0,11,.26,16.52.68a302.72,302.72,0,0,1,108.8,29c.62.29,1.28.5,2.24.87.07-.82.14-1.23.14-1.64,0-19.16,0-38.33.06-57.49,0-1.66-.83-2.35-2.19-3.05-57-29.08-118.08-44.46-182.81-47.29q-7.46-.33-14.87-.33c-34.12,0-67.62,5-100.74,13.06-46.82,11.33-84.5,35.37-112.2,72.51-29.47,39.53-41.13,83.52-32.42,131.18,11,60.22,46.58,104.25,103.91,132.91,17.45,8.73,36.34,13.64,55.54,17.64,28,5.84,56.27,9.64,85,9.64m16.9-389.88h-32.23l-3.24.29c-2.25.21-4.59.43-6.87.59a453.59,453.59,0,0,0-81.94,13.64,207.83,207.83,0,0,0-100,58.2c-25.54,26.66-42.17,57.55-49.44,91.82a194.51,194.51,0,0,0-2.81,19.93c-.31,2.93-.63,6-1,8.9-.11.87-.21,1.75-.3,2.62,0,.4-.09.79-.13,1.18l0,.16v8.41l0,.14c.16,1.79.31,3.59.46,5.38.32,3.87.65,7.87,1.14,11.82,4.18,33.4,17.33,64.39,39.1,92.11,21.24,27,48.52,48,81.08,62.29,17.45,7.66,35.61,12.06,51.08,15.35,29.15,6.2,55.44,9.46,80.38,10a8.8,8.8,0,0,1,1.16.16l.86.14.21,0h12.27l.18,0,1-.14a12.9,12.9,0,0,1,1.59-.18,441.11,441.11,0,0,0,62.67-5.81c49.48-8.12,95.94-23.57,138.07-45.94a7,7,0,0,0,4.14-6.8c-.05-21.41,0-43.18,0-64.24v-24l-4.38,2.28-1.17.61c-.66.34-1.19.6-1.72.9a308.9,308.9,0,0,1-43.81,20.29c-31.67,11.67-61.67,17.34-91.69,17.34-1.45,0-2.92,0-4.36,0-23.19-.44-43.69-7.45-60.94-20.84-30.5-23.69-43-54.33-37.29-91,2.91-18.6,12.63-36.67,27.35-50.88a104.27,104.27,0,0,1,53.7-27.45,128.7,128.7,0,0,1,22.52-1.86,226.64,226.64,0,0,1,29.49,2.2c35.82,4.67,70.09,16.31,104.79,35.58.6.34,1.21.65,1.94,1l1.18.61,4.39,2.31V640.15c0-21,0-42.71.05-64.06,0-3.22-1.33-5.37-4.35-7-55.39-29.07-116.38-46.11-181.27-50.64-2.66-.18-5.38-.4-8-.61q-1.87-.17-3.75-.3Zm-16.9,386.88c-25.91,0-53.52-3.13-84.41-9.57-17-3.55-36.8-8.38-54.81-17.39-28.37-14.18-51.35-32.28-68.31-53.8-17.21-21.83-28.65-47.72-34-77-8.38-45.89,2.34-89.24,31.88-128.85,27-36.15,64.13-60.17,110.49-71.39,36.06-8.72,68.78-13,100-13,4.92,0,9.88.11,14.74.32a457.86,457.86,0,0,1,93.68,13.72,428.61,428.61,0,0,1,87.9,33.26c.29.15.45.25.55.31v0c-.05,14.39-.06,29-.06,43.17v11.48a307.17,307.17,0,0,0-107.95-28.41c-6-.46-11.48-.69-16.75-.69a136,136,0,0,0-37.23,4.75,118.91,118.91,0,0,0-58.85,37.78c-15.4,18.22-24.36,39.8-25.92,62.4-3.86,56.12,37.6,106.67,96.44,117.57a132.76,132.76,0,0,0,24.4,2.06c5.29,0,10.85-.22,17.51-.71a300.53,300.53,0,0,0,108.36-28.73V815c0,13.58,0,27.63.07,41.46,0,.76,0,.83-1,1.37C7223,877,7181.71,890.48,7137.87,898a437.25,437.25,0,0,1-74.08,6.42Z"/></g><g class="cls-7"><path class="cls-8" d="M7238.3,769.78V710.72h-35.15V668.19l1.37-.12.72-.07a15.84,15.84,0,0,1,1.73-.12h136.57c.52,0,1.05,0,1.57.07l.66,0,1.42.08v42.43l-34.15.13h-1v59.14Zm60.06-13.09v-59.2h35V680.92H7230.21c-4.8,0-8.69,0-12.23-.08h-.15c-1,0-1.2.16-1.21.17h0a2.54,2.54,0,0,0-.07,1.12c.14,2.3.11,4.62.08,6.86,0,1,0,1.9,0,2.85v5.76h35.47v59.06Z"/><path class="cls-8" d="M7258.47,669.38h85.07c.72,0,1.43.07,2.15.11V709l-31.3.13h-3.86v59.14H7239.8V709.22h-35.15V669.57c.78-.07,1.55-.19,2.32-.19h51.5m-43.37,29.75h35.47v59.06h49.29V699h35V679.42h-90.16l-14.56,0q-6.09,0-12.16-.08h-.18c-2.31,0-2.9.75-2.78,2.88.2,3.2.05,6.41.05,9.62v7.26m43.37-32.75H7207a17.73,17.73,0,0,0-1.89.13l-.68.07-2.75.23v45.41h35.15v59.06h76.73V712.14h.88l24.18-.1,7.11,0h3V666.66l-2.84-.16-.64,0c-.53,0-1.08-.07-1.67-.07Zm-40.37,29.75v-4.26c0-.94,0-1.89,0-2.83,0-2.18.06-4.42-.07-6.67,3.51.06,7.36.08,12.11.08h101.72V696h-35v59.2h-43.29V696.13H7218.1Z"/></g><path class="cls-5" d="M6897.86,828.11c-17.59.22-39.12-13.65-39.1-37.06s0-47.1,0-70.65c0-13.51-.07-27,0-40.52.21-35.27,26.1-63.66,63.17-69.37,40.4-6.23,79.72,21.44,84.68,59.61,5,38.53-22.27,72.32-63.13,78.17a77.9,77.9,0,0,1-26.29-.87c-.75-.15-1.84-1.18-1.85-1.8-.1-12.16-.06-24.31,0-36.47a3.17,3.17,0,0,1,.28-.65c1.13.44,2.26.89,3.4,1.32,15.86,6,33.82,1.12,43.15-11.74a31.73,31.73,0,0,0-3.36-41.38c-9.61-9.72-24.73-12.93-38.46-8.16-12.9,4.48-21.95,16.23-22.38,29.33-.19,6-.08,12-.08,18q0,64.71,0,129.41Z"/><g class="cls-1"><text class="cls-4" transform="translate(6728.26 490.17) rotate(-48.21)">п</text><text class="cls-4" transform="translate(6785.57 425.35) rotate(-36.47)">р</text><text class="cls-4" transform="translate(6854.88 373.56) rotate(-24.72)">о</text><text class="cls-4" transform="matrix(0.97, -0.23, 0.23, 0.97, 6933.57, 337.26)">в</text><text class="cls-4" transform="matrix(1, -0.04, 0.04, 1, 7010.86, 317.9)">е</text><text class="cls-4" transform="translate(7097.32 313.9) rotate(9.34)">р</text><text class="cls-4" transform="matrix(0.93, 0.36, -0.36, 0.93, 7182.77, 327.48)">е</text><text class="cls-4" transform="translate(7263.68 357.87) rotate(33.2)">н</text><text class="cls-4" transform="translate(7341.34 408.46) rotate(45.18)">о</text><text class="cls-4" transform="translate(6657.72 794.78) rotate(75.8)">л</text><text class="cls-4" transform="translate(6687.95 904.19) rotate(60.92)">а</text><text class="cls-4" transform="translate(6741.39 996.26) rotate(46.44)">б</text><text class="cls-4" transform="matrix(0.85, 0.53, -0.53, 0.85, 6815.99, 1071.85)">о</text><text class="cls-4" transform="matrix(0.95, 0.31, -0.31, 0.95, 6907, 1126.89)">р</text><text class="cls-4" transform="translate(7008.92 1157.51) rotate(3.33)">а</text><text class="cls-4" transform="translate(7113.1 1160.9) rotate(-9.26)">т</text><text class="cls-4" transform="matrix(0.93, -0.37, 0.37, 0.93, 7194.75, 1147.29)">о</text><text class="cls-4" transform="matrix(0.81, -0.59, 0.59, 0.81, 7292.77, 1105.9)">р</text><text class="cls-4" transform="matrix(0.63, -0.78, 0.78, 0.63, 7377.87, 1041.21)">и</text><text class="cls-4" transform="matrix(0.41, -0.91, 0.91, 0.41, 7446.3, 952.63)">е</text><text class="cls-4" transform="matrix(0.16, -0.99, 0.99, 0.16, 7488.56, 854.35)">й</text></g></g></svg>