<svg xmlns="http://www.w3.org/2000/svg" viewBox="0 0 1213.82 1227.27"><defs><style>.cls-1,.cls-4{fill:#333;}.cls-1,.cls-2,.cls-3{opacity:0.6;}.cls-2{fill:none;stroke:#333;stroke-miterlimit:10;stroke-width:23px;}.cls-4{font-size:136.38px;font-family:Arial-Black, Arial Black;font-weight:800;}</style></defs><title>semeinoe</title><g id="Layer_1" data-name="Layer 1"><path class="cls-1" d="M708.05,565.22c-11,20.1-22.11,40.19-33.57,61-7.16-12-15.18-22.51-29.24-27a8.78,8.78,0,0,1,.38-2.18q14.16-28.17,28.39-56.3c1.12-2.2,2.56-4.25,3.79-6.4,12-21.08,30-31.55,55.58-30.42,20.48.9,41,.12,61.53.62a43.4,43.4,0,0,1,35,18.11,251.05,251.05,0,0,1,19.59,31.54c12.37,23.45,24.06,47.23,36,70.89,5.59,11.11,2.21,22-8.21,26.92s-21.5.84-27.42-10.09q-19.85-36.62-39.56-73.3a10.91,10.91,0,0,0-3.32-4l32.59,151.31H806.42c-.15,1.93-.34,3.27-.34,4.61-.05,24.73,0,49.46-.11,74.19,0,8.3-4,14.55-11.68,18.26-7.88,3.83-15.69,3-22.79-2-6-4.27-8.48-10.32-8.48-17.41q0-36,0-72.09v-5h-9.56v5.63c0,24,0,48.06-.07,72.09,0,8.94-4.37,15.45-12.91,19.09-8.15,3.47-15.81,2.14-22.58-3.25-5.61-4.46-7.53-10.54-7.53-17.35q0-35.26,0-70.51v-5.69H688.72c3.39-2.48,6-4,8.06-6,7.06-6.84,8.9-18.62,4.43-28-2.89-6.06-6.4-11.85-9-18-1.27-3-2.05-6.79-1.41-9.91,5.82-28.88,12-57.7,18.08-86.53a22.07,22.07,0,0,0,.22-2.58Z"/><path class="cls-1" d="M406.6,562.85q-9.21,16.93-18.41,33.86c-8.5,15.71-16.86,31.49-25.5,47.12a19.78,19.78,0,0,1-20.11,10c-8.54-1.3-15.38-6.7-16.64-14.64a22.16,22.16,0,0,1,1.67-12.67c14-28.15,28.1-56.25,42.88-84,4.6-8.64,10.77-16.7,17.3-24.17,7.72-8.82,18.43-13.48,30.46-13.72,23.07-.48,46.15-.28,69.23-.39,20.56-.1,35.45,9.5,45.35,25.86,8.79,14.52,16.28,29.76,24.1,44.81,4.05,7.8,7.55,15.85,11.41,24-14.64,5.66-22.05,17.35-29.38,30.17-11.7-22.38-23.11-44.23-34.53-66.07l-1.05.07v12.7q0,108.39,0,216.79c0,10.94-5.35,18.69-14.79,21.65-14.18,4.45-28.1-5.35-28.14-20.09-.12-37.54-.07-75.07-.09-112.61V675h-9.68v26.73q0,45.51,0,91c0,13.2-8.93,22.41-21.54,22.41s-21.38-9.26-21.39-22.52q0-112.08,0-224.16v-5.25Z"/><path class="cls-1" d="M639.55,649.69v6.67q0,70.27,0,140.54a46.61,46.61,0,0,1-.11,4.73c-.88,8.69-6.87,14-15.5,13.69-7.85-.24-13.74-6.41-13.76-14.84-.08-23.86,0-47.72,0-71.58v-6.72l-5.23-.6c-.17,1.61-.45,2.95-.45,4.29,0,24.56,0,49.12,0,73.69,0,8.65-5.33,15-13,15.72-9.16.92-16.24-5.4-16.38-15-.18-12.8-.06-25.61-.06-38.42q0-54,0-107.9c0-1.51-.13-3-.28-6.12-2,3.55-3.22,5.78-4.43,8-7.92,14.59-15.77,29.22-23.77,43.77-4.39,8-11.93,10.64-19.07,7-6.87-3.52-8.8-10.79-4.78-18.62,10-19.47,19.83-39,30-58.34,7.91-15,20.31-23,38.48-21.79,7.12.47,14.29.11,21.44.11l15.39,0c11.82,0,21.59,4.35,28.12,13.72a230.11,230.11,0,0,1,14.27,24.17c7.41,14.05,14.41,28.29,21.52,42.49,3.88,7.74,1.68,15.17-5.32,18.48s-14.4.65-18.62-7.07c-9.14-16.73-18.17-33.5-27.24-50.25Z"/><path class="cls-1" d="M407.64,450.21c.16-25.46,21.43-45.6,48.07-45.52,26.33.08,47.79,20.86,47.6,46.1-.18,25.53-21.83,45.74-48.74,45.5C428.5,496.06,407.49,475.43,407.64,450.21Z"/><path class="cls-1" d="M806,450.6c-.19,25.8-21.43,45.84-48.43,45.7-26.25-.13-47.5-21-47.22-46.42.27-25.2,22-45.4,48.52-45.17C785,404.94,806.14,425.52,806,450.6Z"/><path class="cls-1" d="M606.62,603.11c-17.9-.64-32-14.61-31.56-31.29.43-16.86,16-30.92,33.4-30.17s31.78,15.44,30.95,31.42A31.59,31.59,0,0,1,606.62,603.11Z"/><circle class="cls-2" cx="606.91" cy="616.12" r="579.41"/><g class="cls-3"><text class="cls-4" transform="translate(275.06 406.1) rotate(-48.33)">с</text><text class="cls-4" transform="translate(332.23 341.16) rotate(-36.59)">е</text><text class="cls-4" transform="translate(400.27 288.19) rotate(-23.27)">м</text><text class="cls-4" transform="translate(501.96 245.36) rotate(-10.06)">е</text><text class="cls-4" transform="translate(586.98 229.51) rotate(1.91)">й</text><text class="cls-4" transform="matrix(0.97, 0.25, -0.25, 0.97, 678.59, 231.99)">н</text><text class="cls-4" transform="translate(768.32 254.83) rotate(26.54)">о</text><text class="cls-4" transform="translate(845.96 293.15) rotate(38.13)">е</text><text class="cls-4" transform="matrix(0.24, 0.97, -0.97, 0.24, 199.33, 709.31)">п</text><text class="cls-4" transform="translate(226.31 812.15) rotate(61.98)">р</text><text class="cls-4" transform="translate(278.03 905.18) rotate(47.5)">о</text><text class="cls-4" transform="translate(351.42 982.66) rotate(32.81)">и</text><text class="cls-4" transform="translate(446.99 1041.56) rotate(17.87)">з</text><text class="cls-4" transform="translate(549.9 1072.26) rotate(3.86)">в</text><text class="cls-4" transform="translate(648.39 1077.54) rotate(-9.89)">о</text><text class="cls-4" transform="translate(752.66 1057.4) rotate(-24.15)">д</text><text class="cls-4" transform="translate(848.32 1012.45) rotate(-38.55)">с</text><text class="cls-4" transform="matrix(0.63, -0.78, 0.78, 0.63, 928.22, 945.29)">т</text><text class="cls-4" transform="translate(979.13 881) rotate(-63.2)">в</text><text class="cls-4" transform="translate(1022.45 792.18) rotate(-77.12)">о</text></g></g></svg>