<svg xmlns="http://www.w3.org/2000/svg" viewBox="0 0 1213.82 1227.27"><defs><style>.cls-1,.cls-4,.cls-5{opacity:0.6;}.cls-2{font-size:136.38px;font-family:Arial-Black, Arial Black;font-weight:800;}.cls-2,.cls-4{fill:#333;}.cls-3,.cls-5{fill:none;}.cls-5{stroke:#333;stroke-miterlimit:10;stroke-width:23px;}</style></defs><title>gmo</title><g id="Layer_1" data-name="Layer 1"><g class="cls-1"><text class="cls-2" transform="matrix(0.24, 0.97, -0.97, 0.24, 199.33, -575.31)">п</text><text class="cls-2" transform="translate(226.31 -472.47) rotate(61.98)">р</text><text class="cls-2" transform="translate(278.03 -379.44) rotate(47.5)">о</text><text class="cls-2" transform="translate(351.42 -301.96) rotate(32.81)">и</text><text class="cls-2" transform="translate(446.99 -243.06) rotate(17.87)">з</text><text class="cls-2" transform="translate(549.9 -212.36) rotate(3.86)">в</text><text class="cls-2" transform="translate(648.39 -207.08) rotate(-9.89)">о</text><text class="cls-2" transform="translate(752.66 -227.22) rotate(-24.15)">д</text><text class="cls-2" transform="translate(848.32 -272.17) rotate(-38.55)">с</text><text class="cls-2" transform="matrix(0.63, -0.78, 0.78, 0.63, 928.22, -339.33)">т</text><text class="cls-2" transform="translate(979.13 -403.62) rotate(-63.2)">в</text><text class="cls-2" transform="translate(1022.45 -492.44) rotate(-77.12)">о</text></g><path class="cls-3" d="M832.24,611.12q-12.56,14.65-12.55,48.51,0,33.55,12.47,48.21t33.93,14.66q22,0,34.15-14.36t12.09-51.53a114.07,114.07,0,0,0-1.74-20.9,112.34,112.34,0,0,0-13.66,14.45,149.21,149.21,0,0,0-17.45,28.34c-.46,1-1,1.87-1.55,2.86-.49-.41-.73-.51-.79-.67-.35-1-.68-2-1-3a236.6,236.6,0,0,0-15.42-39.5,180.65,180.65,0,0,0-21.68-33.55A42.56,42.56,0,0,0,832.24,611.12Z"/><polygon class="cls-4" points="261.31 769.95 329.62 769.95 329.62 602.81 436.76 602.81 436.76 548.41 261.31 548.41 261.31 769.95"/><polygon class="cls-4" points="591.73 683.21 557.01 548.41 466.98 548.41 466.98 769.95 523.05 769.95 523.05 601 566.17 769.95 616.91 769.95 660.11 601 660.11 769.95 716.18 769.95 716.18 548.41 626.2 548.41 591.73 683.21"/><path class="cls-4" d="M950.86,574.32Q921,544.64,865.63,544.63q-53.94,0-84.17,30.22t-30.22,84.48q0,38.83,15.26,64.68t39.82,37.78q24.55,11.94,62,11.93,36.87,0,61.58-13.82a93.15,93.15,0,0,0,37.78-38.69q13.08-24.86,13.08-63.7Q980.79,604,950.86,574.32ZM923.43,754.05c-17.68,10.24-36.73,15.29-64.18,15.26-35-1.38-68.18-19.16-90.63-55.89a104,104,0,0,1-15.24-55.06c0-36.06,14.17-65.33,41.42-88.05a108.41,108.41,0,0,1,56.49-24.45c44.3-5.75,86,13.93,109.76,49.76a109.5,109.5,0,0,1,17.84,49.46C983.82,690.62,960.8,732.4,923.43,754.05Z"/><path class="cls-4" d="M876.16,677.73c.3,1,.63,2,1,3,.06.16.3.26.79.67.54-1,1.09-1.9,1.55-2.86a149.21,149.21,0,0,1,17.45-28.34,112.34,112.34,0,0,1,13.66-14.45q-3-15.74-10.88-24.82-12.62-14.42-34.23-14.43-15.5,0-26.42,8.22a180.65,180.65,0,0,1,21.68,33.55A236.6,236.6,0,0,1,876.16,677.73Z"/><path class="cls-4" d="M978.89,645.08a109.5,109.5,0,0,0-17.84-49.46c-23.78-35.83-65.46-55.51-109.76-49.76a108.41,108.41,0,0,0-56.49,24.45c-27.25,22.72-41.45,52-41.42,88.05a104,104,0,0,0,15.24,55.06c22.45,36.73,55.6,54.51,90.63,55.89,27.45,0,46.5-5,64.18-15.26C960.8,732.4,983.82,690.62,978.89,645.08Zm-31.76,22.7c-3,26.45-12.88,49.92-30.14,70a96.44,96.44,0,0,1-40.39,28.31,6.83,6.83,0,0,1-7.07-.91c-15.77-11.09-30.56-23.3-43.27-38-16.84-19.43-28.29-41.62-33.33-67.12a172.2,172.2,0,0,1-3-35.18c.19-18.15,2.91-35.95,7-53.58a10.11,10.11,0,0,1,.32-1.2,6.15,6.15,0,0,1,.66-.86c2.71,1.73,5.35,3.33,7.91,5.05a154.94,154.94,0,0,1,33.25,30.34q10.92-8.22,26.42-8.22,21.62,0,34.23,14.43,7.93,9.08,10.88,24.82a97.64,97.64,0,0,1,28-17.36c.76-.31,1.52-.61,2.3-.88a9.4,9.4,0,0,1,1.23-.16c.39,1.09.85,2.22,1.19,3.38A116.89,116.89,0,0,1,947.13,667.78Z"/><circle class="cls-5" cx="607.28" cy="616.12" r="579.41"/><g class="cls-1"><text class="cls-2" transform="matrix(0.56, -0.83, 0.83, 0.56, 235.93, 457.49)">н</text><text class="cls-2" transform="matrix(0.72, -0.69, 0.69, 0.72, 287.49, 380.54)">е</text><text class="cls-2" transform="matrix(0.82, -0.58, 0.58, 0.82, 351.44, 321)"> </text><text class="cls-2" transform="matrix(0.9, -0.44, 0.44, 0.9, 384.81, 295.11)">с</text><text class="cls-2" transform="translate(462.19 256.29) rotate(-14.72)">о</text><text class="cls-2" transform="matrix(1, -0.05, 0.05, 1, 545.79, 233.9)">д</text><text class="cls-2" transform="translate(631.5 228.74) rotate(8.59)">е</text><text class="cls-2" transform="translate(717.13 241.22) rotate(20.34)">р</text><text class="cls-2" transform="translate(798.85 268.64) rotate(34.14)">ж</text><text class="cls-2" transform="matrix(0.66, 0.75, -0.75, 0.66, 897.96, 337.24)">и</text><text class="cls-2" transform="translate(958.33 406.79) rotate(59.17)">т</text></g></g></svg>