<svg xmlns="http://www.w3.org/2000/svg" viewBox="0 0 1213.82 1227.27"><defs><style>.cls-1,.cls-4{fill:#333;}.cls-1,.cls-2,.cls-3{opacity:0.6;}.cls-2{fill:none;stroke:#333;stroke-miterlimit:10;stroke-width:23px;}.cls-4{font-size:136.38px;font-family:Arial-Black, Arial Black;font-weight:800;}</style></defs><title>eac</title><g id="Layer_1" data-name="Layer 1"><path class="cls-1" d="M679.36,830.57h-48V658.36h-49V830.55H534.34v-388h145Zm-48.64-216V485.73H583V614.62Z"/><path class="cls-1" d="M436.11,657.88v129.8h47.64v42.76H387.57V442.55h96.35v42.29h-47.7V614.72h47.53v43.16Z"/><path class="cls-1" d="M778.35,788h47.89v42.37H729.55V442.68h96.81v42.4h-48Z"/><circle class="cls-2" cx="606.91" cy="616.12" r="579.41"/><g class="cls-3"><text class="cls-4" transform="translate(206.8 502.37) rotate(-64.25)">п</text><text class="cls-4" transform="translate(243.97 424.23) rotate(-52.51)">о</text><text class="cls-4" transform="translate(296.3 355.33) rotate(-40.81)">д</text><text class="cls-4" transform="translate(361.99 299.39) rotate(-30.58)">т</text><text class="cls-4" transform="translate(417.89 265.25) rotate(-20.8)">в</text><text class="cls-4" transform="matrix(0.99, -0.17, 0.17, 0.99, 492.11, 236.24)">е</text><text class="cls-4" transform="translate(577.36 221.37) rotate(2.16)">р</text><text class="cls-4" transform="translate(663.49 221.91) rotate(16.14)">ж</text><text class="cls-4" transform="translate(779.02 256.87) rotate(29.92)">д</text><text class="cls-4" transform="translate(853.68 299.26) rotate(41.64)">е</text><text class="cls-4" transform="matrix(0.59, 0.81, -0.81, 0.59, 918.81, 356.09)">н</text><text class="cls-4" transform="translate(973.71 430.75) rotate(65.79)">о</text></g></g></svg>