<svg xmlns="http://www.w3.org/2000/svg" viewBox="0 0 1213.82 1227.27"><defs><style>.cls-1{fill:none;stroke:#333;stroke-miterlimit:10;stroke-width:23px;}.cls-1,.cls-2,.cls-4{opacity:0.6;}.cls-3{font-size:136.38px;font-family:Arial-Black, Arial Black;font-weight:800;}.cls-3,.cls-4{fill:#333;}</style></defs><title>bescons</title><g id="Layer_1" data-name="Layer 1"><circle class="cls-1" cx="606.53" cy="616.12" r="579.41"/><g class="cls-2"><text class="cls-3" transform="matrix(0.97, -0.22, 0.22, 0.97, 467.83, 250.59)">б</text><text class="cls-3" transform="translate(552.04 230.71) rotate(-1.24)">е</text><text class="cls-3" transform="matrix(0.98, 0.18, -0.18, 0.98, 638.51, 228.31)">з</text><text class="cls-3" transform="matrix(0.94, 0.33, -0.33, 0.94, 725.58, 246.19)"> </text><text class="cls-3" transform="translate(185.39 707.86) rotate(76.59)">к</text><text class="cls-3" transform="matrix(0.46, 0.89, -0.89, 0.46, 210.77, 807.3)">о</text><text class="cls-3" transform="translate(261.67 901.49) rotate(47.54)">н</text><text class="cls-3" transform="matrix(0.84, 0.54, -0.54, 0.84, 339.77, 983.1)">с</text><text class="cls-3" transform="translate(430.19 1039.09) rotate(18.39)">е</text><text class="cls-3" transform="translate(531.77 1070.78) rotate(3.93)">р</text><text class="cls-3" transform="matrix(0.99, -0.17, 0.17, 0.99, 637.26, 1075.82)">в</text><text class="cls-3" transform="translate(734.2 1057.69) rotate(-23.57)">а</text><text class="cls-3" transform="matrix(0.78, -0.62, 0.62, 0.78, 831.61, 1013.37)">н</text><text class="cls-3" transform="translate(916.49 941.64) rotate(-51.71)">т</text><text class="cls-3" transform="translate(967.53 876.6) rotate(-64.22)">о</text><text class="cls-3" transform="translate(1011.52 780.39) rotate(-78.15)">в</text></g><path class="cls-4" d="M484.65,830.87c4.78-4.56,8.78-9.68,14-12.93,4.91-3.08,8.27-8,13-10.52s7.51-6.68,11.57-9.54c6.35-4.47,11.58-10.35,17.74-14.78,4.35-3.13,7.72-7.18,12-10.08,6.27-4.23,11.12-10.21,17.18-14.26,4.74-3.16,8-7.64,12.63-10.55,6.2-3.94,10.7-9.9,16.57-13.83,4.4-2.94,7.44-7.47,11.87-9.63,6.1-3,9.19-9.24,14.64-12.16,5.94-3.18,9.18-9.19,14.62-12.15,5.91-3.2,9.18-9.23,14.63-12.17,5.92-3.2,9.43-8.62,14.57-12.29,2.24-1.6,5.55-2,8.44-2.32,12-1.45,24.15-2.24,36.09-4.18,6.19-1,12.14-3.72,18.06-6,3.89-1.5,4.35-3,2.25-6.54-4.18-7.08-8.59-14-12.9-21-.13-.21-.21-.45-.44-.92,2.13-2.8,4-5.45,7.92-7.06,3.4-1.41,5.79-5.27,8.65-8,1.25-1.2,2.39-2.92,3.89-3.37,2.4-.71,4.9-1.06,6.93,1.81a191.4,191.4,0,0,1,22.15,41.88c9.81,25.29,10.79,51.56,8.69,78C778.07,755,773,771.14,766,786.69a169,169,0,0,1-43.19,58.64,165.44,165.44,0,0,1-52.08,31.21c-23.31,8.64-47.28,12.64-72.11,10.63A169.29,169.29,0,0,1,485,831.48C484.68,831.14,484.54,830.65,484.65,830.87Z"/><path class="cls-4" d="M699.39,574.93c-3,2-6.08,3.78-8.89,6-2.15,1.66-3.81,4-5.93,5.66-3.41,2.73-7,5.22-10.58,7.74a2.12,2.12,0,0,1-1.76.1c-4.62-2.19-9.48-4-13.71-6.81-4.55-3-6.23-7.85-6.23-13.34q.08-40.93,0-81.89c0-7.12,0-7.13-7.1-7.13H576.09c-6.45,0-6.45,0-6.45,6.3q0,38.88,0,77.76c0,14.26-2.4,17.48-15.52,23.11C530,602.74,511,619.31,496.79,641.24a152.21,152.21,0,0,0-11.05,20.81c37.29-15.87,74.84-17.88,114.08-5.81-3.33,3.25-4.9,6.45-9,7.63-2.42.69-4,4-6.27,5.63-6.39,4.6-11.78,10.5-18,15-4.23,3.07-7.56,7-11.73,9.87-6.29,4.37-11.42,10.18-17.5,14.5-4.38,3.11-7.72,7.18-12,10.09-6.27,4.23-11.13,10.21-17.2,14.26-4.74,3.15-8.1,7.5-12.59,10.6-5.06,3.5-9.25,8.3-14.26,11.37s-8.46,7.43-12.84,10.92c-4.58,3.64-9,7.5-13.61,11.07-.47.35-2.64-.41-3-1.13a78.35,78.35,0,0,1-4.05-10.86c-6.53-23.92-9.19-48.14-5-72.79,7.1-41.88,26.49-76.86,59.09-104.27a154.92,154.92,0,0,1,32.26-21c3.08-1.5,4.74-3.46,4.72-7.23-.15-23.17-.07-46.33-.08-69.5,0-4.75-.42-5.07-5.12-5.2-5.07-.15-10.23.75-15-2.19-5.68-3.51-8.43-8.46-8-15,.45-6.25,3.65-10.88,9.56-13.14a25.1,25.1,0,0,1,8.7-1.77q82.08-.15,164.15-.07c10.8,0,18.53,7.07,18.37,16.6-.13,7.61-7.09,15-14.68,15.5a59.94,59.94,0,0,1-8.26.06c-3.45-.26-4.69,1.15-4.64,4.54.13,9,0,18,0,27,0,14.15.14,28.3-.08,42.44-.07,4.26,1.4,6.68,5.31,8.33,3.49,1.48,6.65,3.73,10,5.64C699.18,573.76,699.28,574.35,699.39,574.93Z"/><path class="cls-4" d="M637.74,379.58c15,.27,26.89,11.59,26.9,26.54,0,15.34-11.22,26.83-26.86,26.94-15.16.1-26.47-11.84-26.74-26.72C610.78,391.85,623.16,379.65,637.74,379.58Z"/><path class="cls-4" d="M556.78,369.19a23,23,0,1,1,22.94,23.25A23.24,23.24,0,0,1,556.78,369.19Z"/><path class="cls-4" d="M634.43,318.37c10.18-1.09,19.14,9.45,18.78,18.63-.4,10.34-8.56,18.82-18.91,18.84s-18.61-8.57-19-19.16C615.05,328.36,623.59,317.11,634.43,318.37Z"/></g></svg>