<?xml version="1.0" standalone="no"?>
<!DOCTYPE svg PUBLIC "-//W3C//DTD SVG 20010904//EN"
 "http://www.w3.org/TR/2001/REC-SVG-20010904/DTD/svg10.dtd">
<svg version="1.0" xmlns="http://www.w3.org/2000/svg"
 width="39.000000pt" height="37.000000pt" viewBox="0 0 39.000000 37.000000"
 preserveAspectRatio="xMidYMid meet">

<g transform="translate(0.000000,37.000000) scale(0.100000,-0.100000)"
fill="#000000" stroke="none">
<path d="M180 285 l-22 -65 -66 0 -67 0 53 -37 c28 -20 52 -42 52 -48 0 -7 -9
-37 -20 -69 -21 -62 -21 -62 51 -10 l46 34 53 -40 c30 -22 55 -38 57 -37 1 2
-7 32 -18 66 -12 34 -20 63 -18 65 2 1 26 18 53 37 l48 34 -65 3 -66 3 -21 64
c-12 36 -23 65 -25 65 -2 0 -13 -29 -25 -65z m50 -62 c0 -9 16 -13 45 -13 25
0 45 -3 45 -7 0 -5 -14 -17 -31 -28 -31 -21 -32 -26 -13 -94 l7 -24 -35 26
c-19 15 -38 27 -42 27 -4 0 -23 -12 -42 -26 -39 -30 -39 -30 -19 25 l14 41
-34 23 c-19 12 -35 25 -35 30 0 4 20 7 45 7 43 0 44 1 57 42 l12 41 13 -29 c6
-16 12 -35 13 -41z"/>
</g>
</svg>
